<svg xmlns="http://www.w3.org/2000/svg" xmlns:xlink="http://www.w3.org/1999/xlink" width="500" zoomAndPan="magnify" viewBox="0 0 375 74.999997" height="100" preserveAspectRatio="xMidYMid meet" version="1.0"><defs><g/><clipPath id="9c13aab859"><path d="M 0 1.746094 L 375 1.746094 L 375 73.730469 L 0 73.730469 Z M 0 1.746094 " clip-rule="nonzero"/></clipPath><clipPath id="5d39a6d32b"><path d="M 339.007812 1.746094 C 358.886719 1.746094 375 17.859375 375 37.738281 C 375 57.617188 358.886719 73.730469 339.007812 73.730469 L 35.992188 73.730469 C 16.113281 73.730469 0 57.617188 0 37.738281 C 0 17.859375 16.113281 1.746094 35.992188 1.746094 Z M 339.007812 1.746094 " clip-rule="nonzero"/></clipPath><clipPath id="7aa773b0c9"><path d="M 0 0.746094 L 375 0.746094 L 375 72.730469 L 0 72.730469 Z M 0 0.746094 " clip-rule="nonzero"/></clipPath><clipPath id="222794c3c6"><path d="M 339.007812 0.746094 C 358.886719 0.746094 375 16.859375 375 36.738281 C 375 56.617188 358.886719 72.730469 339.007812 72.730469 L 35.992188 72.730469 C 16.113281 72.730469 0 56.617188 0 36.738281 C 0 16.859375 16.113281 0.746094 35.992188 0.746094 Z M 339.007812 0.746094 " clip-rule="nonzero"/></clipPath><clipPath id="d52ee88896"><rect x="0" width="375" y="0" height="73"/></clipPath><clipPath id="6c3120c9ca"><path d="M 0.0234375 1.746094 L 375 1.746094 L 375 73.722656 L 0.0234375 73.722656 Z M 0.0234375 1.746094 " clip-rule="nonzero"/></clipPath><clipPath id="c93f00d55d"><path d="M 338.988281 1.746094 C 358.863281 1.746094 374.976562 17.859375 374.976562 37.734375 C 374.976562 57.609375 358.863281 73.722656 338.988281 73.722656 L 36.011719 73.722656 C 16.136719 73.722656 0.0234375 57.609375 0.0234375 37.734375 C 0.0234375 17.859375 16.136719 1.746094 36.011719 1.746094 Z M 338.988281 1.746094 " clip-rule="nonzero"/></clipPath><clipPath id="b8567a768f"><path d="M 8 25 L 63 25 L 63 50.695312 L 8 50.695312 Z M 8 25 " clip-rule="nonzero"/></clipPath><clipPath id="36dd837b8b"><path d="M 7.542969 36 L 63 36 L 63 50.695312 L 7.542969 50.695312 Z M 7.542969 36 " clip-rule="nonzero"/></clipPath><clipPath id="fb8a4c3820"><path d="M 14 24.445312 L 60 24.445312 L 60 39 L 14 39 Z M 14 24.445312 " clip-rule="nonzero"/></clipPath></defs><g clip-path="url(#9c13aab859)"><g clip-path="url(#5d39a6d32b)"><g transform="matrix(1, 0, 0, 1, 0, 1)"><g clip-path="url(#d52ee88896)"><g clip-path="url(#7aa773b0c9)"><g clip-path="url(#222794c3c6)"><path fill="#eaeaea" d="M 0 0.746094 L 375.113281 0.746094 L 375.113281 72.730469 L 0 72.730469 Z M 0 0.746094 " fill-opacity="1" fill-rule="nonzero"/></g></g></g></g></g></g><g clip-path="url(#6c3120c9ca)"><g clip-path="url(#c93f00d55d)"><path stroke-linecap="butt" transform="matrix(0.75, 0, 0, 0.75, 0.0000075, 1.746598)" fill="none" stroke-linejoin="miter" d="M 451.984402 -0.000671685 C 478.484404 -0.000671685 499.968781 21.483705 499.968781 47.983707 C 499.968781 74.483709 478.484404 95.968086 451.984402 95.968086 L 48.015619 95.968086 C 21.515617 95.968086 0.03124 74.483709 0.03124 47.983707 C 0.03124 21.483705 21.515617 -0.000671685 48.015619 -0.000671685 Z M 451.984402 -0.000671685 " stroke="#a6a6a6" stroke-width="2" stroke-opacity="1" stroke-miterlimit="4"/></g></g><g fill="#000000" fill-opacity="1"><g transform="translate(133.339663, 46.218663)"><g><path d="M 3.78125 -17.109375 L 5.75 -16.953125 C 5.6875 -16.773438 5.613281 -16.535156 5.53125 -16.234375 C 5.457031 -15.929688 5.40625 -15.675781 5.375 -15.46875 C 5.269531 -14.957031 5.148438 -14.320312 5.015625 -13.5625 C 4.890625 -12.8125 4.769531 -12.015625 4.65625 -11.171875 C 4.539062 -10.335938 4.445312 -9.519531 4.375 -8.71875 C 4.3125 -7.914062 4.28125 -7.203125 4.28125 -6.578125 C 4.28125 -6.035156 4.289062 -5.53125 4.3125 -5.0625 C 4.34375 -4.59375 4.398438 -4.09375 4.484375 -3.5625 C 4.660156 -4.070312 4.863281 -4.625 5.09375 -5.21875 C 5.320312 -5.8125 5.53125 -6.332031 5.71875 -6.78125 L 6.65625 -6.03125 C 6.476562 -5.53125 6.28125 -4.96875 6.0625 -4.34375 C 5.851562 -3.71875 5.660156 -3.125 5.484375 -2.5625 C 5.304688 -2 5.179688 -1.53125 5.109375 -1.15625 C 5.078125 -1.007812 5.046875 -0.84375 5.015625 -0.65625 C 4.984375 -0.46875 4.972656 -0.304688 4.984375 -0.171875 C 4.984375 -0.0664062 4.988281 0.0507812 5 0.1875 C 5.019531 0.332031 5.039062 0.460938 5.0625 0.578125 L 3.46875 0.71875 C 3.25 -0.0703125 3.050781 -1.066406 2.875 -2.265625 C 2.707031 -3.460938 2.625 -4.800781 2.625 -6.28125 C 2.625 -7.082031 2.660156 -7.925781 2.734375 -8.8125 C 2.816406 -9.707031 2.914062 -10.582031 3.03125 -11.4375 C 3.144531 -12.289062 3.257812 -13.070312 3.375 -13.78125 C 3.488281 -14.5 3.570312 -15.085938 3.625 -15.546875 C 3.675781 -15.804688 3.710938 -16.070312 3.734375 -16.34375 C 3.765625 -16.613281 3.78125 -16.867188 3.78125 -17.109375 Z M 15.046875 -3.4375 C 15.046875 -3.539062 15.046875 -3.65625 15.046875 -3.78125 C 15.046875 -3.90625 15.035156 -4.035156 15.015625 -4.171875 C 14.316406 -4.398438 13.566406 -4.515625 12.765625 -4.515625 C 11.953125 -4.515625 11.285156 -4.351562 10.765625 -4.03125 C 10.242188 -3.707031 9.984375 -3.285156 9.984375 -2.765625 C 9.984375 -2.210938 10.226562 -1.785156 10.71875 -1.484375 C 11.207031 -1.191406 11.847656 -1.046875 12.640625 -1.046875 C 13.566406 -1.046875 14.195312 -1.257812 14.53125 -1.6875 C 14.875 -2.125 15.046875 -2.707031 15.046875 -3.4375 Z M 21.0625 -2.34375 L 20.09375 -0.890625 C 19.539062 -1.410156 18.988281 -1.878906 18.4375 -2.296875 C 17.894531 -2.722656 17.34375 -3.09375 16.78125 -3.40625 L 16.78125 -3.015625 C 16.78125 -2.398438 16.664062 -1.816406 16.4375 -1.265625 C 16.21875 -0.722656 15.828125 -0.273438 15.265625 0.078125 C 14.710938 0.429688 13.941406 0.609375 12.953125 0.609375 C 11.460938 0.609375 10.320312 0.320312 9.53125 -0.25 C 8.75 -0.820312 8.359375 -1.597656 8.359375 -2.578125 C 8.359375 -3.203125 8.535156 -3.765625 8.890625 -4.265625 C 9.242188 -4.773438 9.757812 -5.179688 10.4375 -5.484375 C 11.113281 -5.796875 11.9375 -5.953125 12.90625 -5.953125 C 13.644531 -5.953125 14.328125 -5.882812 14.953125 -5.75 C 14.921875 -6.59375 14.878906 -7.515625 14.828125 -8.515625 C 14.773438 -9.523438 14.742188 -10.484375 14.734375 -11.390625 C 14.367188 -11.367188 14.007812 -11.351562 13.65625 -11.34375 C 13.3125 -11.34375 12.960938 -11.34375 12.609375 -11.34375 C 11.984375 -11.34375 11.375 -11.359375 10.78125 -11.390625 C 10.1875 -11.421875 9.5625 -11.445312 8.90625 -11.46875 L 8.90625 -13.171875 C 10.15625 -13.035156 11.40625 -12.96875 12.65625 -12.96875 C 13 -12.96875 13.34375 -12.96875 13.6875 -12.96875 C 14.039062 -12.976562 14.390625 -12.992188 14.734375 -13.015625 L 14.734375 -15.75 C 14.734375 -15.945312 14.71875 -16.171875 14.6875 -16.421875 C 14.664062 -16.671875 14.640625 -16.894531 14.609375 -17.09375 L 16.640625 -17.09375 C 16.585938 -16.675781 16.546875 -16.238281 16.515625 -15.78125 C 16.492188 -15.476562 16.476562 -15.085938 16.46875 -14.609375 C 16.46875 -14.140625 16.457031 -13.644531 16.4375 -13.125 C 17.113281 -13.164062 17.769531 -13.226562 18.40625 -13.3125 C 19.039062 -13.40625 19.65625 -13.515625 20.25 -13.640625 L 20.25 -11.890625 C 19.65625 -11.785156 19.035156 -11.703125 18.390625 -11.640625 C 17.742188 -11.578125 17.09375 -11.519531 16.4375 -11.46875 C 16.457031 -10.375 16.492188 -9.285156 16.546875 -8.203125 C 16.609375 -7.128906 16.660156 -6.132812 16.703125 -5.21875 C 17.597656 -4.851562 18.398438 -4.410156 19.109375 -3.890625 C 19.828125 -3.378906 20.476562 -2.863281 21.0625 -2.34375 Z M 21.0625 -2.34375 "/></g></g></g><g fill="#000000" fill-opacity="1"><g transform="translate(155.605217, 46.218663)"><g><path d="M 13.453125 -15.375 C 13.648438 -15.101562 13.878906 -14.757812 14.140625 -14.34375 C 14.398438 -13.925781 14.660156 -13.488281 14.921875 -13.03125 C 15.191406 -12.582031 15.414062 -12.179688 15.59375 -11.828125 L 14.28125 -11.234375 C 14 -11.828125 13.671875 -12.445312 13.296875 -13.09375 C 12.929688 -13.75 12.5625 -14.332031 12.1875 -14.84375 Z M 16.328125 -16.515625 C 16.523438 -16.253906 16.757812 -15.914062 17.03125 -15.5 C 17.3125 -15.09375 17.585938 -14.664062 17.859375 -14.21875 C 18.128906 -13.769531 18.351562 -13.375 18.53125 -13.03125 L 17.25 -12.40625 C 16.945312 -12.988281 16.601562 -13.597656 16.21875 -14.234375 C 15.84375 -14.878906 15.460938 -15.445312 15.078125 -15.9375 Z M 5.0625 -17.171875 L 7.3125 -17.15625 C 7.25 -16.78125 7.203125 -16.40625 7.171875 -16.03125 C 7.140625 -15.664062 7.109375 -15.304688 7.078125 -14.953125 C 7.066406 -14.328125 7.039062 -13.5625 7 -12.65625 C 6.96875 -11.75 6.941406 -10.773438 6.921875 -9.734375 C 6.898438 -8.691406 6.875 -7.671875 6.84375 -6.671875 C 6.820312 -5.671875 6.8125 -4.753906 6.8125 -3.921875 C 6.8125 -3.117188 6.972656 -2.476562 7.296875 -2 C 7.617188 -1.53125 8.050781 -1.191406 8.59375 -0.984375 C 9.144531 -0.773438 9.765625 -0.671875 10.453125 -0.671875 C 11.804688 -0.671875 12.972656 -0.890625 13.953125 -1.328125 C 14.929688 -1.773438 15.78125 -2.347656 16.5 -3.046875 C 17.21875 -3.742188 17.835938 -4.472656 18.359375 -5.234375 L 19.578125 -3.703125 C 19.210938 -3.179688 18.753906 -2.632812 18.203125 -2.0625 C 17.648438 -1.5 17 -0.972656 16.25 -0.484375 C 15.5 0.00390625 14.632812 0.398438 13.65625 0.703125 C 12.6875 1.003906 11.597656 1.15625 10.390625 1.15625 C 9.328125 1.15625 8.394531 0.992188 7.59375 0.671875 C 6.789062 0.359375 6.160156 -0.160156 5.703125 -0.890625 C 5.253906 -1.617188 5.03125 -2.578125 5.03125 -3.765625 C 5.03125 -4.578125 5.039062 -5.503906 5.0625 -6.546875 C 5.09375 -7.585938 5.117188 -8.640625 5.140625 -9.703125 C 5.171875 -10.773438 5.195312 -11.769531 5.21875 -12.6875 C 5.25 -13.613281 5.265625 -14.367188 5.265625 -14.953125 C 5.265625 -15.796875 5.195312 -16.535156 5.0625 -17.171875 Z M 5.0625 -17.171875 "/></g></g></g><g fill="#000000" fill-opacity="1"><g transform="translate(177.870771, 46.218663)"><g><path d="M 9.046875 -7.15625 C 9.117188 -7.03125 9.191406 -6.90625 9.265625 -6.78125 C 9.335938 -6.65625 9.410156 -6.535156 9.484375 -6.421875 C 9.960938 -7.203125 10.425781 -8.132812 10.875 -9.21875 C 11.332031 -10.300781 11.722656 -11.410156 12.046875 -12.546875 C 10.359375 -12.453125 8.796875 -11.945312 7.359375 -11.03125 C 7.617188 -10.269531 7.898438 -9.539062 8.203125 -8.84375 C 8.515625 -8.144531 8.796875 -7.582031 9.046875 -7.15625 Z M 5.265625 -2.515625 C 5.804688 -2.515625 6.351562 -2.75 6.90625 -3.21875 C 7.457031 -3.695312 7.976562 -4.257812 8.46875 -4.90625 C 8.375 -5.039062 8.28125 -5.175781 8.1875 -5.3125 C 8.101562 -5.457031 8.019531 -5.601562 7.9375 -5.75 C 7.625 -6.25 7.300781 -6.867188 6.96875 -7.609375 C 6.632812 -8.359375 6.300781 -9.148438 5.96875 -9.984375 C 5.238281 -9.296875 4.660156 -8.488281 4.234375 -7.5625 C 3.816406 -6.632812 3.609375 -5.738281 3.609375 -4.875 C 3.609375 -4.144531 3.753906 -3.566406 4.046875 -3.140625 C 4.347656 -2.722656 4.753906 -2.515625 5.265625 -2.515625 Z M 12.953125 -17.359375 L 14.890625 -17.171875 C 14.828125 -16.910156 14.757812 -16.613281 14.6875 -16.28125 C 14.625 -15.945312 14.5625 -15.675781 14.5 -15.46875 C 14.445312 -15.226562 14.394531 -14.976562 14.34375 -14.71875 C 14.289062 -14.46875 14.226562 -14.21875 14.15625 -13.96875 C 15.34375 -13.78125 16.378906 -13.359375 17.265625 -12.703125 C 18.160156 -12.054688 18.859375 -11.234375 19.359375 -10.234375 C 19.867188 -9.242188 20.125 -8.117188 20.125 -6.859375 C 20.125 -5.398438 19.796875 -4.132812 19.140625 -3.0625 C 18.484375 -1.988281 17.5625 -1.117188 16.375 -0.453125 C 15.195312 0.203125 13.820312 0.644531 12.25 0.875 L 11.1875 -0.71875 C 13.488281 -0.925781 15.253906 -1.585938 16.484375 -2.703125 C 17.722656 -3.828125 18.34375 -5.234375 18.34375 -6.921875 C 18.34375 -7.878906 18.15625 -8.742188 17.78125 -9.515625 C 17.40625 -10.285156 16.875 -10.921875 16.1875 -11.421875 C 15.5 -11.929688 14.6875 -12.269531 13.75 -12.4375 C 13.332031 -11.039062 12.84375 -9.671875 12.28125 -8.328125 C 11.726562 -6.984375 11.140625 -5.847656 10.515625 -4.921875 C 10.960938 -4.347656 11.414062 -3.835938 11.875 -3.390625 L 10.5 -2.25 C 10.320312 -2.457031 10.140625 -2.660156 9.953125 -2.859375 C 9.773438 -3.054688 9.609375 -3.269531 9.453125 -3.5 C 8.765625 -2.675781 8.070312 -2.007812 7.375 -1.5 C 6.675781 -1 5.910156 -0.75 5.078125 -0.75 C 4.242188 -0.75 3.519531 -1.09375 2.90625 -1.78125 C 2.289062 -2.46875 1.984375 -3.460938 1.984375 -4.765625 C 1.984375 -5.609375 2.128906 -6.445312 2.421875 -7.28125 C 2.710938 -8.113281 3.113281 -8.898438 3.625 -9.640625 C 4.132812 -10.390625 4.722656 -11.039062 5.390625 -11.59375 C 5.273438 -11.925781 5.160156 -12.265625 5.046875 -12.609375 C 4.929688 -12.953125 4.820312 -13.285156 4.71875 -13.609375 C 4.613281 -13.972656 4.503906 -14.320312 4.390625 -14.65625 C 4.273438 -15 4.148438 -15.3125 4.015625 -15.59375 L 5.859375 -16.171875 C 5.921875 -15.878906 5.988281 -15.554688 6.0625 -15.203125 C 6.144531 -14.859375 6.226562 -14.535156 6.3125 -14.234375 C 6.382812 -13.984375 6.457031 -13.71875 6.53125 -13.4375 C 6.613281 -13.15625 6.707031 -12.859375 6.8125 -12.546875 C 7.75 -13.097656 8.6875 -13.488281 9.625 -13.71875 C 10.570312 -13.957031 11.523438 -14.085938 12.484375 -14.109375 C 12.609375 -14.628906 12.71875 -15.15625 12.8125 -15.6875 C 12.851562 -15.90625 12.890625 -16.175781 12.921875 -16.5 C 12.953125 -16.832031 12.960938 -17.117188 12.953125 -17.359375 Z M 12.953125 -17.359375 "/></g></g></g><g fill="#000000" fill-opacity="1"><g transform="translate(200.136326, 46.218663)"><g><path d="M 11.15625 -2.578125 C 11.15625 -2.773438 11.148438 -3 11.140625 -3.25 C 11.140625 -3.5 11.140625 -3.773438 11.140625 -4.078125 C 10.453125 -4.210938 9.738281 -4.28125 9 -4.28125 C 7.957031 -4.28125 7.15625 -4.101562 6.59375 -3.75 C 6.039062 -3.40625 5.765625 -2.976562 5.765625 -2.46875 C 5.765625 -1.96875 6.003906 -1.546875 6.484375 -1.203125 C 6.960938 -0.859375 7.742188 -0.6875 8.828125 -0.6875 C 9.460938 -0.6875 10.007812 -0.8125 10.46875 -1.0625 C 10.925781 -1.320312 11.15625 -1.828125 11.15625 -2.578125 Z M 19.203125 -1.828125 L 18.203125 -0.265625 C 17.566406 -0.859375 16.796875 -1.457031 15.890625 -2.0625 C 14.984375 -2.675781 13.976562 -3.1875 12.875 -3.59375 C 12.894531 -3.300781 12.90625 -3.035156 12.90625 -2.796875 C 12.914062 -2.566406 12.921875 -2.367188 12.921875 -2.203125 C 12.921875 -1.703125 12.796875 -1.210938 12.546875 -0.734375 C 12.296875 -0.253906 11.882812 0.132812 11.3125 0.4375 C 10.75 0.738281 9.988281 0.890625 9.03125 0.890625 C 7.445312 0.890625 6.226562 0.609375 5.375 0.046875 C 4.519531 -0.503906 4.09375 -1.316406 4.09375 -2.390625 C 4.09375 -3.398438 4.550781 -4.210938 5.46875 -4.828125 C 6.382812 -5.441406 7.632812 -5.75 9.21875 -5.75 C 9.863281 -5.75 10.484375 -5.703125 11.078125 -5.609375 C 11.054688 -6.097656 11.035156 -6.59375 11.015625 -7.09375 C 10.992188 -7.601562 10.976562 -8.09375 10.96875 -8.5625 C 10.769531 -8.5625 10.566406 -8.5625 10.359375 -8.5625 C 10.148438 -8.5625 9.941406 -8.5625 9.734375 -8.5625 C 9.234375 -8.5625 8.648438 -8.570312 7.984375 -8.59375 C 7.328125 -8.625 6.660156 -8.660156 5.984375 -8.703125 C 5.316406 -8.753906 4.71875 -8.8125 4.1875 -8.875 L 4.1875 -10.5625 C 4.695312 -10.46875 5.285156 -10.390625 5.953125 -10.328125 C 6.628906 -10.265625 7.3125 -10.21875 8 -10.1875 C 8.6875 -10.15625 9.265625 -10.140625 9.734375 -10.140625 C 9.941406 -10.140625 10.140625 -10.140625 10.328125 -10.140625 C 10.523438 -10.140625 10.722656 -10.140625 10.921875 -10.140625 L 10.921875 -13.296875 C 10.742188 -13.296875 10.5625 -13.296875 10.375 -13.296875 C 10.195312 -13.296875 10.015625 -13.296875 9.828125 -13.296875 C 9.316406 -13.296875 8.738281 -13.3125 8.09375 -13.34375 C 7.445312 -13.382812 6.816406 -13.429688 6.203125 -13.484375 C 5.597656 -13.535156 5.078125 -13.585938 4.640625 -13.640625 L 4.640625 -15.28125 C 5.078125 -15.207031 5.609375 -15.132812 6.234375 -15.0625 C 6.859375 -15 7.484375 -14.945312 8.109375 -14.90625 C 8.742188 -14.875 9.304688 -14.859375 9.796875 -14.859375 C 9.992188 -14.859375 10.1875 -14.859375 10.375 -14.859375 C 10.5625 -14.859375 10.75 -14.859375 10.9375 -14.859375 L 10.9375 -16.3125 C 10.9375 -16.488281 10.929688 -16.710938 10.921875 -16.984375 C 10.921875 -17.265625 10.90625 -17.476562 10.875 -17.625 L 12.765625 -17.625 C 12.734375 -17.425781 12.707031 -17.210938 12.6875 -16.984375 C 12.675781 -16.753906 12.664062 -16.476562 12.65625 -16.15625 C 12.644531 -16.019531 12.640625 -15.847656 12.640625 -15.640625 C 12.640625 -15.429688 12.640625 -15.191406 12.640625 -14.921875 C 13.597656 -14.953125 14.535156 -15.007812 15.453125 -15.09375 C 16.378906 -15.1875 17.328125 -15.3125 18.296875 -15.46875 L 18.3125 -13.84375 C 17.445312 -13.75 16.539062 -13.660156 15.59375 -13.578125 C 14.644531 -13.492188 13.648438 -13.425781 12.609375 -13.375 L 12.609375 -10.203125 C 13.660156 -10.242188 14.695312 -10.3125 15.71875 -10.40625 C 16.738281 -10.507812 17.742188 -10.632812 18.734375 -10.78125 L 18.765625 -9.109375 C 17.722656 -8.972656 16.703125 -8.863281 15.703125 -8.78125 C 14.710938 -8.707031 13.691406 -8.644531 12.640625 -8.59375 C 12.660156 -8.03125 12.6875 -7.460938 12.71875 -6.890625 C 12.75 -6.316406 12.773438 -5.773438 12.796875 -5.265625 C 13.773438 -4.992188 14.664062 -4.648438 15.46875 -4.234375 C 16.28125 -3.828125 17 -3.410156 17.625 -2.984375 C 18.257812 -2.554688 18.785156 -2.171875 19.203125 -1.828125 Z M 19.203125 -1.828125 "/></g></g></g><g fill="#000000" fill-opacity="1"><g transform="translate(222.40188, 46.218663)"><g><path d="M 5.375 -17.3125 L 7.625 -17.296875 C 7.5625 -16.929688 7.515625 -16.5625 7.484375 -16.1875 C 7.453125 -15.8125 7.421875 -15.441406 7.390625 -15.078125 C 7.378906 -14.460938 7.351562 -13.703125 7.3125 -12.796875 C 7.28125 -11.890625 7.253906 -10.914062 7.234375 -9.875 C 7.210938 -8.84375 7.1875 -7.828125 7.15625 -6.828125 C 7.132812 -5.828125 7.125 -4.910156 7.125 -4.078125 C 7.125 -3.273438 7.285156 -2.628906 7.609375 -2.140625 C 7.929688 -1.660156 8.363281 -1.316406 8.90625 -1.109375 C 9.445312 -0.898438 10.054688 -0.796875 10.734375 -0.796875 C 12.085938 -0.796875 13.257812 -1.019531 14.25 -1.46875 C 15.238281 -1.914062 16.09375 -2.488281 16.8125 -3.1875 C 17.53125 -3.882812 18.148438 -4.613281 18.671875 -5.375 L 19.890625 -3.828125 C 19.523438 -3.304688 19.066406 -2.765625 18.515625 -2.203125 C 17.960938 -1.640625 17.3125 -1.113281 16.5625 -0.625 C 15.8125 -0.132812 14.945312 0.257812 13.96875 0.5625 C 13 0.875 11.90625 1.03125 10.6875 1.03125 C 9.632812 1.03125 8.707031 0.867188 7.90625 0.546875 C 7.101562 0.222656 6.472656 -0.296875 6.015625 -1.015625 C 5.566406 -1.742188 5.34375 -2.707031 5.34375 -3.90625 C 5.34375 -4.71875 5.351562 -5.644531 5.375 -6.6875 C 5.40625 -7.726562 5.429688 -8.78125 5.453125 -9.84375 C 5.484375 -10.914062 5.507812 -11.910156 5.53125 -12.828125 C 5.550781 -13.753906 5.5625 -14.503906 5.5625 -15.078125 C 5.5625 -15.929688 5.5 -16.675781 5.375 -17.3125 Z M 5.375 -17.3125 "/></g></g></g><g fill="#000000" fill-opacity="1"><g transform="translate(243.999179, 46.218663)"><g><path d="M 1.984375 -14.796875 C 2.410156 -14.804688 2.789062 -14.820312 3.125 -14.84375 C 3.457031 -14.875 3.726562 -14.894531 3.9375 -14.90625 C 4.300781 -14.9375 4.816406 -14.984375 5.484375 -15.046875 C 6.148438 -15.117188 6.921875 -15.191406 7.796875 -15.265625 C 8.671875 -15.347656 9.601562 -15.429688 10.59375 -15.515625 C 11.59375 -15.609375 12.597656 -15.703125 13.609375 -15.796875 C 14.816406 -15.898438 15.925781 -15.976562 16.9375 -16.03125 C 17.957031 -16.09375 18.832031 -16.140625 19.5625 -16.171875 L 19.5625 -14.390625 C 19.144531 -14.390625 18.671875 -14.378906 18.140625 -14.359375 C 17.617188 -14.347656 17.097656 -14.320312 16.578125 -14.28125 C 16.066406 -14.238281 15.617188 -14.15625 15.234375 -14.03125 C 14.453125 -13.78125 13.75 -13.398438 13.125 -12.890625 C 12.5 -12.390625 11.96875 -11.8125 11.53125 -11.15625 C 11.101562 -10.507812 10.773438 -9.832031 10.546875 -9.125 C 10.316406 -8.414062 10.203125 -7.734375 10.203125 -7.078125 C 10.203125 -5.992188 10.425781 -5.085938 10.875 -4.359375 C 11.320312 -3.640625 11.914062 -3.054688 12.65625 -2.609375 C 13.394531 -2.160156 14.210938 -1.832031 15.109375 -1.625 C 16.015625 -1.414062 16.910156 -1.296875 17.796875 -1.265625 L 17.15625 0.578125 C 16.132812 0.535156 15.109375 0.363281 14.078125 0.0625 C 13.054688 -0.226562 12.117188 -0.664062 11.265625 -1.25 C 10.410156 -1.84375 9.722656 -2.585938 9.203125 -3.484375 C 8.679688 -4.378906 8.421875 -5.445312 8.421875 -6.6875 C 8.421875 -7.84375 8.617188 -8.90625 9.015625 -9.875 C 9.421875 -10.851562 9.9375 -11.707031 10.5625 -12.4375 C 11.195312 -13.164062 11.847656 -13.726562 12.515625 -14.125 C 12.128906 -14.082031 11.601562 -14.023438 10.9375 -13.953125 C 10.269531 -13.890625 9.535156 -13.8125 8.734375 -13.71875 C 7.929688 -13.632812 7.117188 -13.539062 6.296875 -13.4375 C 5.472656 -13.332031 4.695312 -13.226562 3.96875 -13.125 C 3.25 -13.03125 2.65625 -12.929688 2.1875 -12.828125 Z M 1.984375 -14.796875 "/></g></g></g><g fill="#000000" fill-opacity="1"><g transform="translate(266.264734, 46.218663)"><g><path d="M 10.40625 -5.390625 L 9.875 -14.03125 L 9.796875 -16.671875 L 12.484375 -16.671875 L 12.4375 -14.03125 L 11.875 -5.390625 Z M 11.140625 0.109375 C 10.648438 0.109375 10.226562 -0.046875 9.875 -0.359375 C 9.53125 -0.671875 9.359375 -1.101562 9.359375 -1.65625 C 9.359375 -2.164062 9.53125 -2.582031 9.875 -2.90625 C 10.226562 -3.226562 10.648438 -3.390625 11.140625 -3.390625 C 11.628906 -3.390625 12.046875 -3.226562 12.390625 -2.90625 C 12.742188 -2.582031 12.921875 -2.164062 12.921875 -1.65625 C 12.921875 -1.101562 12.742188 -0.671875 12.390625 -0.359375 C 12.046875 -0.046875 11.628906 0.109375 11.140625 0.109375 Z M 11.140625 0.109375 "/></g></g></g><g clip-path="url(#b8567a768f)"><path fill="#ffffff" d="M 57.230469 39.742188 L 23.703125 37.941406 L 54.222656 35.605469 C 54.566406 35.578125 54.90625 35.519531 55.238281 35.425781 C 55.570312 35.332031 55.890625 35.207031 56.195312 35.050781 C 56.503906 34.894531 56.792969 34.710938 57.0625 34.496094 C 57.335938 34.285156 57.582031 34.046875 57.808594 33.785156 C 58.03125 33.523438 58.226562 33.238281 58.398438 32.9375 C 58.566406 32.636719 58.703125 32.324219 58.8125 31.996094 C 58.917969 31.667969 58.992188 31.332031 59.03125 30.988281 C 59.074219 30.644531 59.082031 30.304688 59.054688 29.957031 C 59.027344 29.613281 58.96875 29.277344 58.875 28.945312 C 58.78125 28.609375 58.65625 28.292969 58.5 27.984375 C 58.34375 27.675781 58.160156 27.386719 57.949219 27.113281 C 57.734375 26.84375 57.496094 26.59375 57.234375 26.371094 C 56.972656 26.144531 56.691406 25.949219 56.390625 25.78125 C 56.089844 25.609375 55.777344 25.472656 55.449219 25.367188 C 55.121094 25.257812 54.785156 25.183594 54.445312 25.144531 C 54.101562 25.101562 53.757812 25.09375 53.414062 25.121094 L 19.714844 27.703125 C 19.371094 27.726562 19.03125 27.789062 18.699219 27.882812 C 18.367188 27.972656 18.046875 28.097656 17.742188 28.253906 C 17.433594 28.410156 17.144531 28.597656 16.875 28.808594 C 16.601562 29.023438 16.355469 29.261719 16.128906 29.523438 C 15.90625 29.785156 15.710938 30.066406 15.539062 30.367188 C 15.371094 30.667969 15.234375 30.980469 15.125 31.308594 C 15.019531 31.636719 14.945312 31.972656 14.902344 32.316406 C 14.863281 32.660156 14.855469 33 14.882812 33.347656 C 14.953125 34.257812 15.238281 35.09375 15.746094 35.851562 C 16.25 36.613281 16.910156 37.203125 17.71875 37.617188 L 13.578125 37.398438 C 13.234375 37.378906 12.890625 37.394531 12.550781 37.441406 C 12.207031 37.492188 11.875 37.574219 11.550781 37.691406 C 11.222656 37.804688 10.914062 37.949219 10.617188 38.128906 C 10.320312 38.304688 10.042969 38.507812 9.785156 38.738281 C 9.527344 38.96875 9.296875 39.222656 9.089844 39.5 C 8.882812 39.777344 8.707031 40.070312 8.558594 40.382812 C 8.410156 40.695312 8.292969 41.019531 8.207031 41.355469 C 8.125 41.6875 8.070312 42.027344 8.054688 42.375 C 8.035156 42.71875 8.050781 43.0625 8.101562 43.402344 C 8.148438 43.746094 8.230469 44.078125 8.347656 44.40625 C 8.460938 44.730469 8.605469 45.042969 8.785156 45.339844 C 8.960938 45.636719 9.164062 45.910156 9.394531 46.167969 C 9.625 46.425781 9.878906 46.65625 10.152344 46.863281 C 10.429688 47.070312 10.722656 47.246094 11.035156 47.398438 C 11.347656 47.546875 11.667969 47.664062 12.003906 47.746094 C 12.335938 47.832031 12.675781 47.882812 13.019531 47.902344 L 56.671875 50.246094 C 57.019531 50.265625 57.359375 50.25 57.703125 50.199219 C 58.042969 50.152344 58.375 50.070312 58.703125 49.953125 C 59.027344 49.839844 59.335938 49.695312 59.632812 49.515625 C 59.929688 49.339844 60.207031 49.136719 60.460938 48.90625 C 60.71875 48.675781 60.949219 48.421875 61.15625 48.144531 C 61.363281 47.871094 61.542969 47.574219 61.691406 47.265625 C 61.839844 46.953125 61.957031 46.628906 62.039062 46.292969 C 62.125 45.960938 62.175781 45.621094 62.195312 45.277344 C 62.214844 44.929688 62.199219 44.585938 62.148438 44.246094 C 62.101562 43.902344 62.019531 43.570312 61.90625 43.242188 C 61.789062 42.917969 61.644531 42.605469 61.46875 42.308594 C 61.292969 42.011719 61.089844 41.734375 60.859375 41.476562 C 60.628906 41.222656 60.375 40.988281 60.101562 40.78125 C 59.824219 40.574219 59.53125 40.398438 59.21875 40.246094 C 58.90625 40.097656 58.585938 39.980469 58.25 39.894531 C 57.917969 39.8125 57.578125 39.757812 57.230469 39.742188 Z M 57.230469 39.742188 " fill-opacity="1" fill-rule="nonzero"/></g><path fill="#2276a5" d="M 17.261719 39.570312 C 17.144531 39.601562 17.046875 39.65625 16.964844 39.742188 C 16.847656 39.867188 16.742188 40 16.644531 40.140625 L 15.488281 41.992188 C 15.464844 42.03125 15.429688 42.050781 15.382812 42.046875 C 15.335938 42.046875 15.304688 42.023438 15.285156 41.980469 L 14.347656 40.007812 C 14.277344 39.855469 14.191406 39.710938 14.085938 39.582031 C 14.007812 39.488281 13.914062 39.421875 13.804688 39.378906 C 13.683594 39.335938 13.558594 39.3125 13.429688 39.308594 C 13.273438 39.300781 13.132812 39.335938 13.003906 39.421875 C 12.871094 39.503906 12.796875 39.65625 12.785156 39.882812 L 12.453125 45.746094 C 12.445312 45.882812 12.503906 45.984375 12.628906 46.042969 C 12.902344 46.199219 13.179688 46.214844 13.46875 46.089844 C 13.597656 46.046875 13.667969 45.953125 13.675781 45.8125 L 13.878906 42.179688 C 13.882812 42.117188 13.914062 42.082031 13.976562 42.070312 C 14.035156 42.058594 14.078125 42.078125 14.105469 42.136719 L 14.871094 43.792969 C 14.910156 43.878906 14.96875 43.945312 15.050781 43.996094 C 15.117188 44.03125 15.183594 44.054688 15.257812 44.058594 C 15.339844 44.0625 15.417969 44.050781 15.492188 44.015625 C 15.578125 43.976562 15.648438 43.917969 15.699219 43.839844 L 16.65625 42.332031 C 16.6875 42.28125 16.734375 42.265625 16.789062 42.28125 C 16.847656 42.300781 16.875 42.339844 16.871094 42.402344 L 16.667969 45.984375 C 16.660156 46.121094 16.71875 46.222656 16.84375 46.28125 C 17.117188 46.433594 17.394531 46.449219 17.679688 46.328125 C 17.808594 46.28125 17.878906 46.191406 17.886719 46.050781 L 18.21875 40.191406 C 18.230469 39.964844 18.175781 39.804688 18.054688 39.707031 C 17.9375 39.605469 17.796875 39.550781 17.644531 39.542969 C 17.515625 39.535156 17.386719 39.542969 17.261719 39.570312 Z M 17.261719 39.570312 " fill-opacity="1" fill-rule="nonzero"/><path fill="#2276a5" d="M 20.09375 46.464844 C 20.203125 46.535156 20.324219 46.574219 20.453125 46.582031 L 23.789062 46.769531 C 23.925781 46.785156 24.027344 46.734375 24.09375 46.617188 C 24.160156 46.507812 24.195312 46.390625 24.203125 46.265625 C 24.214844 46.121094 24.1875 45.988281 24.117188 45.859375 C 24.054688 45.757812 23.964844 45.707031 23.847656 45.699219 L 21.316406 45.554688 C 21.238281 45.550781 21.199219 45.511719 21.203125 45.433594 L 21.296875 43.78125 C 21.300781 43.707031 21.339844 43.671875 21.414062 43.671875 L 22.722656 43.746094 C 22.851562 43.761719 22.953125 43.71875 23.027344 43.609375 C 23.089844 43.515625 23.125 43.410156 23.132812 43.296875 C 23.144531 43.171875 23.117188 43.054688 23.054688 42.945312 C 22.992188 42.839844 22.898438 42.785156 22.777344 42.785156 L 21.46875 42.710938 C 21.390625 42.707031 21.355469 42.664062 21.359375 42.585938 L 21.453125 40.945312 C 21.457031 40.867188 21.496094 40.828125 21.574219 40.835938 L 24.109375 40.976562 C 24.234375 40.988281 24.335938 40.941406 24.402344 40.835938 C 24.480469 40.71875 24.519531 40.59375 24.519531 40.457031 C 24.527344 40.328125 24.507812 40.210938 24.453125 40.09375 C 24.398438 39.96875 24.304688 39.90625 24.167969 39.910156 L 20.832031 39.722656 C 20.703125 39.710938 20.578125 39.738281 20.460938 39.796875 C 20.34375 39.851562 20.28125 39.945312 20.277344 40.074219 L 19.933594 46.160156 C 19.921875 46.296875 19.976562 46.398438 20.09375 46.464844 Z M 20.09375 46.464844 " fill-opacity="1" fill-rule="nonzero"/><path fill="#2276a5" d="M 30.015625 41.320312 C 30.132812 41.328125 30.230469 41.285156 30.300781 41.191406 C 30.382812 41.070312 30.429688 40.941406 30.433594 40.796875 C 30.4375 40.667969 30.414062 40.550781 30.363281 40.433594 C 30.308594 40.308594 30.214844 40.25 30.078125 40.25 L 26.816406 40.066406 C 26.742188 40.058594 26.667969 40.0625 26.59375 40.074219 C 26.332031 40.113281 26.199219 40.226562 26.1875 40.414062 L 25.84375 46.5 C 25.832031 46.691406 25.953125 46.816406 26.207031 46.886719 C 26.277344 46.90625 26.347656 46.917969 26.417969 46.917969 L 29.691406 47.105469 C 29.824219 47.121094 29.925781 47.070312 29.996094 46.953125 C 30.0625 46.84375 30.097656 46.726562 30.105469 46.601562 C 30.117188 46.457031 30.089844 46.324219 30.019531 46.195312 C 29.957031 46.09375 29.867188 46.039062 29.75 46.035156 L 27.21875 45.890625 C 27.136719 45.886719 27.101562 45.847656 27.105469 45.765625 L 27.199219 44.117188 C 27.203125 44.039062 27.246094 44.003906 27.324219 44.007812 L 28.628906 44.082031 C 28.761719 44.097656 28.863281 44.050781 28.933594 43.941406 C 28.996094 43.847656 29.03125 43.746094 29.039062 43.632812 C 29.050781 43.507812 29.023438 43.390625 28.960938 43.28125 C 28.898438 43.175781 28.808594 43.121094 28.683594 43.121094 L 27.378906 43.050781 C 27.304688 43.046875 27.265625 43.007812 27.265625 42.933594 L 27.359375 41.292969 C 27.363281 41.214844 27.40625 41.175781 27.484375 41.183594 Z M 30.015625 41.320312 " fill-opacity="1" fill-rule="nonzero"/><path fill="#2276a5" d="M 33.199219 47.203125 C 33.472656 47.359375 33.75 47.375 34.039062 47.25 C 34.167969 47.207031 34.238281 47.113281 34.246094 46.976562 L 34.542969 41.71875 C 34.546875 41.644531 34.585938 41.609375 34.660156 41.609375 L 35.910156 41.679688 C 36.039062 41.691406 36.140625 41.640625 36.207031 41.527344 C 36.28125 41.414062 36.316406 41.285156 36.324219 41.148438 C 36.332031 41.019531 36.308594 40.890625 36.253906 40.773438 C 36.203125 40.644531 36.105469 40.582031 35.96875 40.582031 L 32.007812 40.359375 C 31.871094 40.347656 31.773438 40.398438 31.707031 40.515625 C 31.636719 40.628906 31.597656 40.75 31.589844 40.882812 C 31.578125 41.019531 31.605469 41.148438 31.671875 41.273438 C 31.722656 41.386719 31.816406 41.449219 31.941406 41.457031 L 33.203125 41.527344 C 33.28125 41.53125 33.316406 41.574219 33.3125 41.652344 L 33.015625 46.90625 C 33.011719 47.046875 33.070312 47.148438 33.199219 47.203125 Z M 33.199219 47.203125 " fill-opacity="1" fill-rule="nonzero"/><path fill="#2276a5" d="M 42.074219 47.707031 C 42.203125 47.777344 42.339844 47.816406 42.488281 47.824219 C 42.632812 47.832031 42.773438 47.808594 42.90625 47.746094 C 43.039062 47.703125 43.109375 47.613281 43.117188 47.472656 L 43.25 45.109375 C 43.253906 45.066406 43.265625 45.027344 43.285156 44.992188 L 45.414062 41.746094 C 45.425781 41.722656 45.433594 41.703125 45.441406 41.675781 C 45.441406 41.65625 45.445312 41.640625 45.449219 41.625 C 45.453125 41.515625 45.414062 41.425781 45.332031 41.355469 C 45.238281 41.273438 45.136719 41.207031 45.023438 41.160156 C 44.910156 41.109375 44.792969 41.082031 44.671875 41.074219 C 44.589844 41.0625 44.511719 41.078125 44.441406 41.121094 C 44.378906 41.171875 44.324219 41.230469 44.28125 41.296875 L 42.820312 43.734375 C 42.796875 43.777344 42.757812 43.796875 42.710938 43.792969 C 42.664062 43.789062 42.632812 43.769531 42.613281 43.726562 L 41.429688 41.136719 C 41.402344 41.0625 41.355469 41 41.300781 40.945312 C 41.234375 40.894531 41.164062 40.871094 41.078125 40.871094 C 40.957031 40.863281 40.835938 40.878906 40.71875 40.917969 C 40.601562 40.949219 40.492188 41.003906 40.390625 41.078125 C 40.300781 41.136719 40.253906 41.222656 40.246094 41.332031 C 40.246094 41.347656 40.246094 41.367188 40.246094 41.382812 C 40.25 41.410156 40.253906 41.433594 40.265625 41.453125 L 42.015625 44.921875 C 42.03125 44.960938 42.039062 45 42.039062 45.039062 L 41.898438 47.410156 C 41.890625 47.546875 41.949219 47.644531 42.074219 47.707031 Z M 42.074219 47.707031 " fill-opacity="1" fill-rule="nonzero"/><path fill="#2276a5" d="M 47.5625 47.960938 C 48.289062 48.292969 49.035156 48.335938 49.796875 48.085938 C 50.144531 47.964844 50.421875 47.75 50.625 47.445312 C 50.835938 47.140625 50.957031 46.730469 50.988281 46.210938 L 51.136719 43.59375 C 51.164062 43.074219 51.089844 42.652344 50.914062 42.324219 C 50.742188 42 50.492188 41.753906 50.160156 41.59375 C 49.8125 41.429688 49.441406 41.335938 49.054688 41.320312 C 48.667969 41.289062 48.289062 41.339844 47.925781 41.464844 C 47.582031 41.589844 47.308594 41.804688 47.105469 42.109375 C 46.890625 42.414062 46.773438 42.824219 46.742188 43.34375 L 46.597656 45.960938 C 46.566406 46.480469 46.640625 46.902344 46.816406 47.226562 C 46.984375 47.554688 47.234375 47.796875 47.5625 47.960938 Z M 47.804688 46.03125 L 47.949219 43.414062 C 47.96875 43.046875 48.074219 42.777344 48.257812 42.613281 C 48.476562 42.449219 48.722656 42.375 48.996094 42.390625 C 49.265625 42.40625 49.503906 42.507812 49.703125 42.695312 C 49.867188 42.878906 49.9375 43.15625 49.917969 43.523438 L 49.769531 46.140625 C 49.75 46.511719 49.648438 46.777344 49.460938 46.941406 C 49.242188 47.105469 48.996094 47.179688 48.726562 47.164062 C 48.453125 47.148438 48.21875 47.046875 48.019531 46.859375 C 47.855469 46.675781 47.78125 46.398438 47.804688 46.03125 Z M 47.804688 46.03125 " fill-opacity="1" fill-rule="nonzero"/><path fill="#2276a5" d="M 54.410156 42 C 54.421875 41.859375 54.363281 41.761719 54.234375 41.703125 C 53.960938 41.5625 53.683594 41.546875 53.398438 41.65625 C 53.265625 41.699219 53.195312 41.792969 53.191406 41.933594 L 52.945312 46.320312 C 52.917969 46.839844 52.992188 47.261719 53.175781 47.589844 C 53.351562 47.914062 53.605469 48.160156 53.941406 48.320312 C 54.300781 48.488281 54.675781 48.578125 55.074219 48.59375 C 55.464844 48.621094 55.847656 48.574219 56.222656 48.449219 C 56.574219 48.328125 56.859375 48.113281 57.070312 47.808594 C 57.289062 47.507812 57.414062 47.09375 57.441406 46.574219 L 57.6875 42.183594 C 57.699219 42.042969 57.640625 41.945312 57.511719 41.890625 C 57.382812 41.820312 57.246094 41.78125 57.101562 41.769531 C 56.953125 41.757812 56.808594 41.78125 56.671875 41.835938 C 56.539062 41.882812 56.472656 41.976562 56.472656 42.113281 L 56.222656 46.5 C 56.203125 46.863281 56.097656 47.128906 55.902344 47.296875 C 55.671875 47.460938 55.414062 47.539062 55.128906 47.519531 C 54.847656 47.503906 54.597656 47.402344 54.386719 47.210938 C 54.21875 47.023438 54.144531 46.746094 54.164062 46.386719 Z M 54.410156 42 " fill-opacity="1" fill-rule="nonzero"/><g clip-path="url(#36dd837b8b)"><path fill="#2276a5" d="M 61.164062 41.210938 C 60.664062 40.648438 60.074219 40.203125 59.398438 39.878906 C 58.71875 39.554688 58.003906 39.371094 57.253906 39.332031 L 30.070312 37.882812 L 23.710938 38.367188 L 57.214844 40.164062 C 57.53125 40.183594 57.84375 40.230469 58.152344 40.308594 C 58.457031 40.386719 58.757812 40.496094 59.042969 40.632812 C 59.328125 40.769531 59.601562 40.933594 59.855469 41.121094 C 60.109375 41.3125 60.34375 41.527344 60.554688 41.761719 C 60.765625 42 60.953125 42.253906 61.117188 42.527344 C 61.277344 42.800781 61.414062 43.089844 61.519531 43.386719 C 61.625 43.6875 61.699219 43.996094 61.746094 44.308594 C 61.792969 44.625 61.804688 44.941406 61.789062 45.257812 C 61.773438 45.574219 61.722656 45.890625 61.644531 46.195312 C 61.566406 46.503906 61.460938 46.804688 61.324219 47.089844 C 61.1875 47.378906 61.023438 47.648438 60.832031 47.902344 C 60.640625 48.15625 60.429688 48.390625 60.191406 48.605469 C 59.957031 48.816406 59.703125 49.003906 59.429688 49.167969 C 59.15625 49.328125 58.871094 49.464844 58.570312 49.570312 C 58.269531 49.675781 57.964844 49.75 57.648438 49.796875 C 57.335938 49.84375 57.019531 49.855469 56.703125 49.839844 L 13.050781 47.496094 C 12.738281 47.46875 12.433594 47.417969 12.128906 47.332031 C 11.828125 47.25 11.539062 47.136719 11.257812 46.996094 C 10.980469 46.855469 10.714844 46.691406 10.46875 46.5 C 10.222656 46.308594 9.996094 46.09375 9.789062 45.859375 C 9.582031 45.625 9.402344 45.371094 9.242188 45.101562 C 9.085938 44.832031 8.957031 44.546875 8.855469 44.253906 C 8.75 43.957031 8.679688 43.652344 8.636719 43.34375 C 8.589844 43.035156 8.578125 42.722656 8.59375 42.410156 C 8.609375 42.097656 8.65625 41.789062 8.734375 41.488281 C 8.808594 41.183594 8.914062 40.890625 9.046875 40.605469 C 9.179688 40.324219 9.335938 40.054688 9.523438 39.804688 C 9.707031 39.550781 9.914062 39.316406 10.144531 39.105469 C 10.375 38.894531 10.621094 38.707031 10.886719 38.542969 C 11.152344 38.378906 11.433594 38.242188 11.726562 38.128906 C 12.019531 38.019531 12.320312 37.941406 12.628906 37.886719 C 12.933594 37.835938 13.246094 37.816406 13.558594 37.824219 L 17.605469 38.035156 C 17.183594 37.824219 16.792969 37.566406 16.433594 37.257812 C 16.386719 37.21875 16.34375 37.179688 16.296875 37.140625 L 13.605469 36.996094 C 13.234375 36.980469 12.867188 37 12.503906 37.054688 C 12.136719 37.113281 11.78125 37.203125 11.433594 37.328125 C 11.085938 37.453125 10.753906 37.613281 10.4375 37.804688 C 10.121094 37.996094 9.824219 38.214844 9.550781 38.464844 C 9.277344 38.710938 9.03125 38.984375 8.808594 39.28125 C 8.589844 39.578125 8.402344 39.894531 8.242188 40.230469 C 8.082031 40.5625 7.957031 40.910156 7.867188 41.269531 C 7.777344 41.628906 7.722656 41.992188 7.703125 42.363281 C 7.683594 42.730469 7.699219 43.097656 7.75 43.464844 C 7.804688 43.832031 7.890625 44.191406 8.015625 44.539062 C 8.136719 44.886719 8.292969 45.222656 8.480469 45.542969 C 8.667969 45.859375 8.882812 46.15625 9.128906 46.433594 C 9.375 46.710938 9.644531 46.960938 9.941406 47.183594 C 10.234375 47.40625 10.546875 47.601562 10.882812 47.761719 C 11.214844 47.921875 11.558594 48.050781 11.914062 48.144531 C 12.273438 48.242188 12.636719 48.300781 13.003906 48.320312 L 56.660156 50.667969 C 56.761719 50.667969 56.863281 50.675781 56.964844 50.675781 C 57.511719 50.671875 58.046875 50.59375 58.574219 50.4375 C 59.097656 50.285156 59.589844 50.054688 60.046875 49.757812 C 60.507812 49.457031 60.914062 49.101562 61.269531 48.683594 C 61.625 48.269531 61.910156 47.808594 62.132812 47.308594 C 62.355469 46.808594 62.503906 46.285156 62.574219 45.742188 C 62.644531 45.199219 62.640625 44.65625 62.554688 44.117188 C 62.46875 43.574219 62.308594 43.058594 62.070312 42.5625 C 61.835938 42.070312 61.535156 41.617188 61.167969 41.210938 Z M 61.164062 41.210938 " fill-opacity="1" fill-rule="nonzero"/></g><g clip-path="url(#fb8a4c3820)"><path fill="#f37c9c" d="M 59.464844 29.925781 C 59.4375 29.554688 59.375 29.191406 59.273438 28.832031 C 59.171875 28.472656 59.039062 28.128906 58.871094 27.796875 C 58.703125 27.464844 58.503906 27.152344 58.273438 26.859375 C 58.042969 26.566406 57.785156 26.300781 57.503906 26.054688 C 57.222656 25.8125 56.917969 25.601562 56.59375 25.417969 C 56.269531 25.238281 55.929688 25.089844 55.578125 24.972656 C 55.222656 24.855469 54.863281 24.777344 54.492188 24.734375 C 54.125 24.6875 53.753906 24.679688 53.382812 24.710938 L 19.683594 27.289062 C 19.132812 27.332031 18.597656 27.453125 18.082031 27.652344 C 17.566406 27.847656 17.089844 28.117188 16.652344 28.457031 C 16.214844 28.792969 15.835938 29.1875 15.515625 29.636719 C 15.191406 30.085938 14.941406 30.574219 14.761719 31.097656 C 14.582031 31.621094 14.480469 32.15625 14.457031 32.710938 C 14.433594 33.261719 14.492188 33.808594 14.628906 34.34375 C 14.765625 34.878906 14.976562 35.386719 15.257812 35.859375 C 15.542969 36.332031 15.890625 36.757812 16.296875 37.128906 C 16.34375 37.171875 16.386719 37.210938 16.433594 37.246094 C 16.789062 37.554688 17.179688 37.816406 17.601562 38.027344 C 18.390625 38.417969 19.226562 38.613281 20.105469 38.613281 C 20.253906 38.613281 20.402344 38.605469 20.550781 38.59375 L 23.703125 38.355469 L 30.070312 37.871094 L 54.253906 36.019531 C 54.625 35.988281 54.992188 35.925781 55.347656 35.824219 C 55.707031 35.722656 56.050781 35.589844 56.382812 35.421875 C 56.714844 35.25 57.027344 35.050781 57.320312 34.824219 C 57.613281 34.59375 57.878906 34.335938 58.121094 34.054688 C 58.363281 33.769531 58.574219 33.464844 58.757812 33.140625 C 58.9375 32.816406 59.089844 32.476562 59.203125 32.125 C 59.320312 31.769531 59.398438 31.40625 59.441406 31.039062 C 59.488281 30.667969 59.496094 30.296875 59.464844 29.925781 Z M 57.492188 33.515625 C 57.078125 34.003906 56.585938 34.394531 56.011719 34.683594 C 55.441406 34.976562 54.835938 35.144531 54.195312 35.195312 L 23.699219 37.527344 L 20.488281 37.773438 C 20.171875 37.796875 19.855469 37.792969 19.542969 37.753906 C 19.226562 37.714844 18.917969 37.648438 18.617188 37.546875 C 18.3125 37.449219 18.023438 37.324219 17.746094 37.167969 C 17.46875 37.011719 17.210938 36.828125 16.96875 36.621094 C 16.730469 36.414062 16.511719 36.1875 16.3125 35.9375 C 16.117188 35.6875 15.949219 35.421875 15.804688 35.136719 C 15.660156 34.851562 15.542969 34.558594 15.460938 34.25 C 15.375 33.945312 15.316406 33.632812 15.292969 33.316406 C 15.269531 33 15.277344 32.683594 15.3125 32.367188 C 15.351562 32.050781 15.417969 31.742188 15.519531 31.441406 C 15.617188 31.136719 15.746094 30.847656 15.898438 30.570312 C 16.054688 30.292969 16.238281 30.035156 16.441406 29.792969 C 16.648438 29.550781 16.878906 29.332031 17.128906 29.136719 C 17.378906 28.9375 17.644531 28.769531 17.925781 28.625 C 18.210938 28.480469 18.503906 28.367188 18.8125 28.28125 C 19.117188 28.195312 19.429688 28.140625 19.746094 28.113281 L 53.445312 25.535156 C 53.574219 25.523438 53.699219 25.519531 53.828125 25.519531 C 54.289062 25.523438 54.742188 25.585938 55.183594 25.71875 C 55.628906 25.847656 56.042969 26.039062 56.433594 26.289062 C 56.820312 26.539062 57.167969 26.839844 57.472656 27.1875 C 57.773438 27.539062 58.023438 27.921875 58.214844 28.34375 C 58.40625 28.765625 58.539062 29.203125 58.605469 29.660156 C 58.671875 30.121094 58.671875 30.578125 58.609375 31.035156 C 58.546875 31.492188 58.417969 31.933594 58.230469 32.355469 C 58.039062 32.777344 57.792969 33.164062 57.492188 33.515625 Z M 57.492188 33.515625 " fill-opacity="1" fill-rule="nonzero"/></g><path fill="#f37c9c" d="M 23.566406 29.410156 C 23.429688 29.355469 23.285156 29.339844 23.136719 29.351562 C 22.992188 29.359375 22.855469 29.398438 22.730469 29.46875 C 22.601562 29.527344 22.542969 29.628906 22.558594 29.769531 L 22.800781 33.050781 C 22.804688 33.113281 22.777344 33.152344 22.71875 33.171875 C 22.660156 33.191406 22.613281 33.175781 22.582031 33.121094 L 20.773438 30.179688 C 20.691406 30.035156 20.59375 29.902344 20.476562 29.78125 C 20.394531 29.703125 20.300781 29.648438 20.191406 29.621094 C 20.066406 29.59375 19.941406 29.589844 19.816406 29.601562 C 19.671875 29.609375 19.535156 29.652344 19.40625 29.726562 C 19.28125 29.789062 19.222656 29.890625 19.238281 30.03125 L 19.683594 36.109375 C 19.695312 36.246094 19.765625 36.339844 19.898438 36.382812 C 20.035156 36.4375 20.175781 36.460938 20.320312 36.449219 C 20.46875 36.441406 20.609375 36.398438 20.734375 36.320312 C 20.855469 36.257812 20.914062 36.15625 20.902344 36.019531 L 20.65625 32.71875 C 20.652344 32.65625 20.679688 32.617188 20.738281 32.597656 C 20.796875 32.578125 20.84375 32.59375 20.875 32.648438 L 22.925781 35.867188 C 23 35.996094 23.105469 36.085938 23.242188 36.144531 C 23.375 36.191406 23.507812 36.210938 23.648438 36.199219 C 23.796875 36.191406 23.933594 36.148438 24.0625 36.070312 C 24.183594 36.007812 24.238281 35.90625 24.226562 35.769531 L 23.777344 29.679688 C 23.773438 29.539062 23.703125 29.449219 23.566406 29.410156 Z M 23.566406 29.410156 " fill-opacity="1" fill-rule="nonzero"/><path fill="#f37c9c" d="M 26.851562 29.164062 C 26.710938 29.113281 26.570312 29.09375 26.421875 29.109375 C 26.277344 29.117188 26.140625 29.15625 26.011719 29.226562 C 25.886719 29.285156 25.828125 29.386719 25.84375 29.527344 L 26.289062 35.613281 C 26.300781 35.753906 26.371094 35.84375 26.503906 35.886719 C 26.792969 36.003906 27.074219 35.984375 27.339844 35.824219 C 27.460938 35.761719 27.519531 35.660156 27.507812 35.527344 L 27.058594 29.4375 C 27.050781 29.296875 26.980469 29.207031 26.851562 29.164062 Z M 26.851562 29.164062 " fill-opacity="1" fill-rule="nonzero"/><path fill="#f37c9c" d="M 33.609375 33.175781 C 33.460938 33.089844 33.300781 33.0625 33.132812 33.085938 C 32.988281 33.09375 32.851562 33.132812 32.726562 33.203125 C 32.609375 33.273438 32.554688 33.378906 32.5625 33.515625 C 32.5625 33.617188 32.546875 33.726562 32.53125 33.839844 C 32.519531 33.957031 32.488281 34.066406 32.4375 34.171875 C 32.375 34.289062 32.289062 34.382812 32.179688 34.449219 C 32.023438 34.539062 31.859375 34.585938 31.679688 34.589844 C 31.394531 34.628906 31.140625 34.5625 30.914062 34.382812 C 30.726562 34.222656 30.617188 33.957031 30.589844 33.585938 L 30.398438 30.972656 C 30.371094 30.613281 30.4375 30.335938 30.597656 30.144531 C 30.785156 29.933594 31.023438 29.828125 31.308594 29.824219 C 31.496094 29.800781 31.671875 29.824219 31.847656 29.886719 C 31.96875 29.9375 32.070312 30.015625 32.152344 30.121094 C 32.214844 30.210938 32.265625 30.308594 32.296875 30.414062 C 32.324219 30.5 32.339844 30.589844 32.347656 30.679688 C 32.359375 30.816406 32.425781 30.910156 32.554688 30.960938 C 32.691406 31.015625 32.835938 31.035156 32.984375 31.019531 C 33.152344 31.019531 33.300781 30.96875 33.433594 30.867188 C 33.53125 30.78125 33.566406 30.617188 33.550781 30.375 C 33.535156 30.027344 33.417969 29.71875 33.199219 29.449219 C 32.972656 29.1875 32.695312 29.003906 32.367188 28.894531 C 31.988281 28.765625 31.597656 28.71875 31.199219 28.757812 C 30.820312 28.78125 30.464844 28.878906 30.128906 29.050781 C 29.800781 29.214844 29.558594 29.464844 29.394531 29.789062 C 29.222656 30.121094 29.15625 30.546875 29.195312 31.0625 L 29.386719 33.675781 C 29.425781 34.195312 29.554688 34.605469 29.769531 34.90625 C 29.980469 35.207031 30.257812 35.414062 30.605469 35.53125 C 30.960938 35.652344 31.324219 35.695312 31.699219 35.664062 C 32.101562 35.640625 32.480469 35.539062 32.839844 35.351562 C 33.15625 35.191406 33.40625 34.957031 33.585938 34.648438 C 33.761719 34.335938 33.832031 34.003906 33.796875 33.644531 C 33.777344 33.402344 33.714844 33.25 33.609375 33.175781 Z M 33.609375 33.175781 " fill-opacity="1" fill-rule="nonzero"/><path fill="#f37c9c" d="M 39.765625 34.078125 C 39.695312 33.988281 39.597656 33.945312 39.480469 33.957031 L 36.949219 34.144531 C 36.871094 34.148438 36.828125 34.113281 36.824219 34.035156 L 36.707031 32.386719 C 36.699219 32.308594 36.738281 32.265625 36.816406 32.261719 L 38.121094 32.164062 C 38.25 32.164062 38.347656 32.105469 38.402344 31.988281 C 38.453125 31.886719 38.476562 31.78125 38.46875 31.667969 C 38.464844 31.542969 38.421875 31.429688 38.347656 31.332031 C 38.269531 31.234375 38.171875 31.195312 38.050781 31.207031 L 36.746094 31.304688 C 36.667969 31.308594 36.625 31.273438 36.617188 31.195312 L 36.5 29.554688 C 36.496094 29.476562 36.53125 29.433594 36.609375 29.429688 L 39.140625 29.242188 C 39.257812 29.234375 39.347656 29.179688 39.40625 29.078125 C 39.472656 28.949219 39.5 28.8125 39.484375 28.671875 C 39.476562 28.542969 39.4375 28.425781 39.367188 28.316406 C 39.296875 28.203125 39.195312 28.152344 39.058594 28.171875 L 35.804688 28.40625 C 35.730469 28.410156 35.65625 28.421875 35.585938 28.441406 C 35.332031 28.511719 35.210938 28.644531 35.222656 28.835938 L 35.671875 34.914062 C 35.6875 35.101562 35.820312 35.210938 36.078125 35.25 C 36.148438 35.257812 36.21875 35.261719 36.292969 35.253906 L 39.558594 35.023438 C 39.695312 35.023438 39.789062 34.957031 39.839844 34.832031 C 39.890625 34.71875 39.914062 34.597656 39.902344 34.46875 C 39.898438 34.328125 39.851562 34.195312 39.765625 34.078125 Z M 39.765625 34.078125 " fill-opacity="1" fill-rule="nonzero"/><path fill="#f37c9c" d="M 48.0625 27.683594 C 47.996094 27.566406 47.894531 27.515625 47.757812 27.53125 L 43.796875 27.824219 C 43.667969 27.835938 43.574219 27.898438 43.519531 28.023438 C 43.464844 28.140625 43.445312 28.265625 43.453125 28.398438 C 43.460938 28.535156 43.507812 28.660156 43.585938 28.773438 C 43.652344 28.882812 43.75 28.933594 43.878906 28.921875 L 45.136719 28.828125 C 45.214844 28.824219 45.257812 28.859375 45.261719 28.9375 L 45.648438 34.1875 C 45.660156 34.324219 45.726562 34.414062 45.859375 34.460938 C 46.148438 34.582031 46.429688 34.5625 46.703125 34.402344 C 46.824219 34.339844 46.882812 34.238281 46.871094 34.101562 L 46.484375 28.851562 C 46.480469 28.773438 46.515625 28.730469 46.59375 28.726562 L 47.84375 28.632812 C 47.972656 28.625 48.0625 28.5625 48.117188 28.441406 C 48.175781 28.320312 48.199219 28.1875 48.1875 28.050781 C 48.175781 27.917969 48.132812 27.796875 48.0625 27.683594 Z M 48.0625 27.683594 " fill-opacity="1" fill-rule="nonzero"/><path fill="#f37c9c" d="M 54.070312 29.222656 C 54.03125 28.707031 53.90625 28.296875 53.6875 27.996094 C 53.476562 27.691406 53.195312 27.484375 52.847656 27.371094 C 52.476562 27.25 52.101562 27.207031 51.714844 27.242188 C 51.328125 27.261719 50.957031 27.359375 50.613281 27.535156 C 50.289062 27.703125 50.042969 27.949219 49.882812 28.277344 C 49.714844 28.609375 49.648438 29.03125 49.683594 29.546875 L 49.875 32.160156 C 49.914062 32.679688 50.042969 33.089844 50.257812 33.390625 C 50.46875 33.691406 50.746094 33.898438 51.09375 34.015625 C 51.859375 34.253906 52.601562 34.195312 53.324219 33.851562 C 53.652344 33.683594 53.898438 33.4375 54.066406 33.109375 C 54.234375 32.777344 54.300781 32.355469 54.261719 31.835938 Z M 52.84375 32.757812 C 52.648438 32.949219 52.414062 33.054688 52.144531 33.074219 C 51.871094 33.09375 51.625 33.023438 51.40625 32.863281 C 51.21875 32.703125 51.109375 32.4375 51.082031 32.070312 L 50.890625 29.457031 C 50.863281 29.085938 50.929688 28.808594 51.09375 28.621094 C 51.289062 28.433594 51.519531 28.328125 51.792969 28.308594 C 52.066406 28.285156 52.3125 28.355469 52.53125 28.515625 C 52.71875 28.679688 52.828125 28.945312 52.855469 29.3125 L 53.046875 31.925781 C 53.074219 32.289062 53.007812 32.574219 52.84375 32.757812 Z M 52.84375 32.757812 " fill-opacity="1" fill-rule="nonzero"/></svg>