<svg xmlns="http://www.w3.org/2000/svg" xmlns:xlink="http://www.w3.org/1999/xlink" width="600" zoomAndPan="magnify" viewBox="0 0 450 225" height="300" preserveAspectRatio="xMidYMid meet" version="1.0"><defs><g/><clipPath id="307753a9e6"><path d="M 0 69.308594 L 450 69.308594 L 450 155.691406 L 0 155.691406 Z M 0 69.308594 " clip-rule="nonzero"/></clipPath><clipPath id="cb34f8d3cf"><path d="M 406.808594 69.308594 C 430.664062 69.308594 450 88.644531 450 112.5 C 450 136.355469 430.664062 155.691406 406.808594 155.691406 L 43.191406 155.691406 C 19.335938 155.691406 0 136.355469 0 112.5 C 0 88.644531 19.335938 69.308594 43.191406 69.308594 Z M 406.808594 69.308594 " clip-rule="nonzero"/></clipPath><clipPath id="d5bb60a171"><path d="M 0 0.308594 L 450 0.308594 L 450 86.691406 L 0 86.691406 Z M 0 0.308594 " clip-rule="nonzero"/></clipPath><clipPath id="2135cd28cd"><path d="M 406.808594 0.308594 C 430.664062 0.308594 450 19.644531 450 43.5 C 450 67.355469 430.664062 86.691406 406.808594 86.691406 L 43.191406 86.691406 C 19.335938 86.691406 0 67.355469 0 43.5 C 0 19.644531 19.335938 0.308594 43.191406 0.308594 Z M 406.808594 0.308594 " clip-rule="nonzero"/></clipPath><clipPath id="e99eaf1eb9"><rect x="0" width="450" y="0" height="87"/></clipPath><clipPath id="a5c253cacb"><path d="M 0.0117188 69.308594 L 450 69.308594 L 450 155.558594 L 0.0117188 155.558594 Z M 0.0117188 69.308594 " clip-rule="nonzero"/></clipPath><clipPath id="093868de64"><path d="M 406.800781 69.308594 C 430.652344 69.308594 449.988281 88.644531 449.988281 112.5 C 449.988281 136.351562 430.652344 155.6875 406.800781 155.6875 L 43.199219 155.6875 C 19.347656 155.6875 0.0117188 136.351562 0.0117188 112.5 C 0.0117188 88.644531 19.347656 69.308594 43.199219 69.308594 Z M 406.800781 69.308594 " clip-rule="nonzero"/></clipPath><clipPath id="17e03d463b"><path d="M 22.5 100 L 62.25 100 L 62.25 127.226562 L 22.5 127.226562 Z M 22.5 100 " clip-rule="nonzero"/></clipPath><clipPath id="7c345f45b5"><path d="M 26 97.976562 L 42 97.976562 L 42 123 L 26 123 Z M 26 97.976562 " clip-rule="nonzero"/></clipPath><clipPath id="ce17a7c20a"><path d="M 42 97.976562 L 59 97.976562 L 59 123 L 42 123 Z M 42 97.976562 " clip-rule="nonzero"/></clipPath><clipPath id="6b7a6216c5"><rect x="0" width="188" y="0" height="38"/></clipPath></defs><g clip-path="url(#307753a9e6)"><g clip-path="url(#cb34f8d3cf)"><g transform="matrix(1, 0, 0, 1, 0, 69)"><g clip-path="url(#e99eaf1eb9)"><g clip-path="url(#d5bb60a171)"><g clip-path="url(#2135cd28cd)"><path fill="#eaeaea" d="M 0 0.308594 L 450.136719 0.308594 L 450.136719 86.691406 L 0 86.691406 Z M 0 0.308594 " fill-opacity="1" fill-rule="nonzero"/></g></g></g></g></g></g><g clip-path="url(#a5c253cacb)"><g clip-path="url(#093868de64)"><path stroke-linecap="butt" transform="matrix(0.75, 0, 0, 0.75, 0.00996734, 69.308642)" fill="none" stroke-linejoin="miter" d="M 542.387774 -0.0000647495 C 574.189859 -0.0000647495 599.97111 25.781186 599.97111 57.588479 C 599.97111 89.390564 574.189859 115.171815 542.387774 115.171815 L 57.585671 115.171815 C 25.783586 115.171815 0.00233521 89.390564 0.00233521 57.588479 C 0.00233521 25.781186 25.783586 -0.0000647495 57.585671 -0.0000647495 Z M 542.387774 -0.0000647495 " stroke="#a6a6a6" stroke-width="2" stroke-opacity="1" stroke-miterlimit="4"/></g></g><g clip-path="url(#17e03d463b)"><path fill="#204186" d="M 61.699219 100.25 L 59.816406 100.25 L 59.816406 120.78125 C 59.816406 121.734375 59.050781 122.507812 58.109375 122.507812 L 48.277344 122.507812 C 46.253906 122.507812 44.296875 123.265625 42.773438 124.640625 C 42.769531 124.644531 42.769531 124.644531 42.769531 124.644531 C 42.746094 124.667969 42.71875 124.6875 42.6875 124.703125 C 42.679688 124.710938 42.667969 124.714844 42.660156 124.71875 C 42.648438 124.726562 42.632812 124.734375 42.621094 124.742188 C 42.613281 124.746094 42.605469 124.75 42.59375 124.75 C 42.589844 124.753906 42.582031 124.757812 42.574219 124.757812 C 42.546875 124.769531 42.515625 124.777344 42.488281 124.785156 C 42.480469 124.785156 42.476562 124.785156 42.46875 124.785156 C 42.4375 124.792969 42.40625 124.792969 42.375 124.792969 C 42.34375 124.792969 42.3125 124.792969 42.277344 124.785156 C 42.273438 124.785156 42.269531 124.785156 42.265625 124.785156 C 42.234375 124.777344 42.203125 124.769531 42.175781 124.757812 C 42.167969 124.757812 42.164062 124.753906 42.160156 124.753906 C 42.128906 124.742188 42.101562 124.726562 42.070312 124.710938 C 42.070312 124.707031 42.066406 124.707031 42.0625 124.703125 C 42.035156 124.6875 42.007812 124.667969 41.984375 124.644531 C 41.984375 124.644531 41.980469 124.644531 41.980469 124.640625 C 40.453125 123.265625 38.496094 122.507812 36.472656 122.507812 L 26.640625 122.507812 C 25.703125 122.507812 24.9375 121.734375 24.9375 120.78125 L 24.9375 100.25 L 23.050781 100.25 C 22.769531 100.25 22.539062 100.484375 22.539062 100.769531 L 22.539062 125 C 22.539062 125.289062 22.769531 125.523438 23.050781 125.523438 L 38.519531 125.523438 C 39.078125 125.523438 39.574219 125.742188 39.953125 126.152344 C 40.585938 126.84375 41.449219 127.222656 42.375 127.222656 C 43.292969 127.222656 44.175781 126.832031 44.800781 126.152344 C 45.175781 125.742188 45.671875 125.523438 46.230469 125.523438 L 61.699219 125.523438 C 61.980469 125.523438 62.210938 125.289062 62.210938 125 L 62.210938 100.769531 C 62.210938 100.484375 61.980469 100.25 61.699219 100.25 Z M 61.699219 100.25 " fill-opacity="1" fill-rule="nonzero"/></g><g clip-path="url(#7c345f45b5)"><path fill="#129dd8" d="M 26.640625 97.972656 C 26.359375 97.972656 26.128906 98.207031 26.128906 98.496094 L 26.128906 120.78125 C 26.128906 121.066406 26.359375 121.300781 26.640625 121.300781 L 36.472656 121.300781 C 38.371094 121.300781 40.214844 121.882812 41.78125 122.957031 L 41.78125 101.042969 C 41.78125 99.351562 40.421875 97.972656 38.753906 97.972656 Z M 37.945312 116.734375 L 29.964844 116.734375 C 29.636719 116.734375 29.367188 116.460938 29.367188 116.128906 C 29.367188 115.792969 29.636719 115.523438 29.964844 115.523438 L 37.945312 115.523438 C 38.273438 115.523438 38.542969 115.792969 38.542969 116.128906 C 38.542969 116.460938 38.273438 116.734375 37.945312 116.734375 Z M 37.945312 112.035156 L 29.964844 112.035156 C 29.636719 112.035156 29.367188 111.765625 29.367188 111.429688 C 29.367188 111.097656 29.636719 110.824219 29.964844 110.824219 L 37.945312 110.824219 C 38.273438 110.824219 38.542969 111.097656 38.542969 111.429688 C 38.542969 111.765625 38.273438 112.035156 37.945312 112.035156 Z M 38.507812 101.675781 L 33 107.265625 C 32.882812 107.382812 32.730469 107.441406 32.578125 107.441406 C 32.425781 107.441406 32.273438 107.382812 32.15625 107.265625 L 29.402344 104.472656 C 29.167969 104.234375 29.167969 103.851562 29.402344 103.617188 C 29.632812 103.378906 30.011719 103.378906 30.242188 103.613281 L 32.578125 105.984375 L 37.664062 100.820312 C 37.894531 100.585938 38.273438 100.585938 38.507812 100.820312 C 38.738281 101.058594 38.738281 101.441406 38.507812 101.675781 Z M 38.507812 101.675781 " fill-opacity="1" fill-rule="nonzero"/></g><g clip-path="url(#ce17a7c20a)"><path fill="#129dd8" d="M 45.996094 97.972656 C 44.328125 97.972656 42.972656 99.351562 42.972656 101.042969 L 42.972656 122.957031 C 44.535156 121.882812 46.378906 121.300781 48.277344 121.300781 L 58.109375 121.300781 C 58.390625 121.300781 58.621094 121.066406 58.621094 120.78125 L 58.621094 98.496094 C 58.621094 98.207031 58.390625 97.972656 58.109375 97.972656 Z M 47.621094 101.675781 C 47.386719 101.441406 47.386719 101.058594 47.621094 100.820312 C 47.855469 100.585938 48.230469 100.585938 48.464844 100.820312 L 50.796875 103.1875 L 53.128906 100.820312 C 53.359375 100.585938 53.738281 100.585938 53.972656 100.820312 C 54.203125 101.058594 54.203125 101.441406 53.972656 101.675781 L 51.640625 104.042969 L 53.972656 106.410156 C 54.203125 106.644531 54.203125 107.03125 53.972656 107.265625 C 53.855469 107.382812 53.703125 107.441406 53.550781 107.441406 C 53.398438 107.441406 53.246094 107.382812 53.128906 107.265625 L 50.796875 104.898438 L 48.464844 107.265625 C 48.347656 107.382812 48.195312 107.441406 48.042969 107.441406 C 47.890625 107.441406 47.738281 107.382812 47.621094 107.265625 C 47.386719 107.027344 47.386719 106.644531 47.621094 106.410156 L 49.953125 104.042969 Z M 54.789062 116.734375 L 46.808594 116.734375 C 46.476562 116.734375 46.210938 116.460938 46.210938 116.128906 C 46.210938 115.792969 46.476562 115.523438 46.808594 115.523438 L 54.789062 115.523438 C 55.117188 115.523438 55.382812 115.792969 55.382812 116.128906 C 55.382812 116.460938 55.117188 116.734375 54.789062 116.734375 Z M 54.789062 112.035156 L 46.808594 112.035156 C 46.476562 112.035156 46.210938 111.765625 46.210938 111.429688 C 46.210938 111.097656 46.476562 110.824219 46.808594 110.824219 L 54.789062 110.824219 C 55.117188 110.824219 55.382812 111.097656 55.382812 111.429688 C 55.382812 111.765625 55.117188 112.035156 54.789062 112.035156 Z M 54.789062 112.035156 " fill-opacity="1" fill-rule="nonzero"/></g><g transform="matrix(1, 0, 0, 1, 130, 93)"><g clip-path="url(#6b7a6216c5)"><g fill="#000000" fill-opacity="1"><g transform="translate(0.959399, 29.659831)"><g><path d="M 3.765625 0.640625 L 1.765625 -0.6875 C 2.890625 -1.488281 3.847656 -2.457031 4.640625 -3.59375 C 5.429688 -4.738281 6.023438 -5.960938 6.421875 -7.265625 C 6.609375 -7.890625 6.753906 -8.65625 6.859375 -9.5625 C 6.972656 -10.476562 7.054688 -11.441406 7.109375 -12.453125 C 7.160156 -13.472656 7.191406 -14.46875 7.203125 -15.4375 C 7.210938 -16.40625 7.21875 -17.265625 7.21875 -18.015625 C 7.21875 -18.429688 7.195312 -18.789062 7.15625 -19.09375 C 7.125 -19.394531 7.082031 -19.6875 7.03125 -19.96875 L 9.484375 -19.96875 C 9.472656 -19.8125 9.445312 -19.550781 9.40625 -19.1875 C 9.375 -18.832031 9.359375 -18.453125 9.359375 -18.046875 C 9.359375 -17.296875 9.347656 -16.410156 9.328125 -15.390625 C 9.304688 -14.378906 9.265625 -13.328125 9.203125 -12.234375 C 9.140625 -11.148438 9.054688 -10.125 8.953125 -9.15625 C 8.847656 -8.1875 8.707031 -7.363281 8.53125 -6.6875 C 8.132812 -5.257812 7.519531 -3.910156 6.6875 -2.640625 C 5.863281 -1.378906 4.890625 -0.285156 3.765625 0.640625 Z M 15.421875 0.609375 L 14.015625 -0.5625 C 14.066406 -0.769531 14.109375 -1.003906 14.140625 -1.265625 C 14.179688 -1.523438 14.203125 -1.789062 14.203125 -2.0625 L 14.203125 -18.078125 C 14.203125 -18.585938 14.175781 -19.015625 14.125 -19.359375 C 14.082031 -19.710938 14.050781 -19.941406 14.03125 -20.046875 L 16.5 -20.046875 C 16.476562 -19.941406 16.453125 -19.710938 16.421875 -19.359375 C 16.398438 -19.015625 16.390625 -18.585938 16.390625 -18.078125 L 16.390625 -2.640625 C 17.210938 -3.015625 18.09375 -3.523438 19.03125 -4.171875 C 19.976562 -4.816406 20.898438 -5.566406 21.796875 -6.421875 C 22.703125 -7.285156 23.492188 -8.21875 24.171875 -9.21875 L 25.453125 -7.40625 C 24.679688 -6.375 23.785156 -5.390625 22.765625 -4.453125 C 21.742188 -3.515625 20.675781 -2.664062 19.5625 -1.90625 C 18.445312 -1.15625 17.367188 -0.519531 16.328125 0 C 16.140625 0.101562 15.976562 0.203125 15.84375 0.296875 C 15.707031 0.398438 15.566406 0.503906 15.421875 0.609375 Z M 15.421875 0.609375 "/></g></g></g><g fill="#000000" fill-opacity="1"><g transform="translate(27.688476, 29.659831)"><g><path d="M 2.734375 -8.953125 L 2.734375 -11.578125 C 3.140625 -11.554688 3.671875 -11.523438 4.328125 -11.484375 C 4.984375 -11.453125 5.6875 -11.4375 6.4375 -11.4375 L 21.09375 -11.4375 C 21.769531 -11.4375 22.347656 -11.453125 22.828125 -11.484375 C 23.304688 -11.523438 23.691406 -11.554688 23.984375 -11.578125 L 23.984375 -8.953125 C 23.710938 -8.972656 23.316406 -9 22.796875 -9.03125 C 22.285156 -9.070312 21.726562 -9.09375 21.125 -9.09375 L 6.4375 -9.09375 C 5.707031 -9.09375 5.007812 -9.078125 4.34375 -9.046875 C 3.675781 -9.023438 3.140625 -8.992188 2.734375 -8.953125 Z M 2.734375 -8.953125 "/></g></g></g><g fill="#000000" fill-opacity="1"><g transform="translate(54.417553, 29.659831)"><g><path d="M 3.765625 0.640625 L 1.765625 -0.6875 C 2.890625 -1.488281 3.847656 -2.457031 4.640625 -3.59375 C 5.429688 -4.738281 6.023438 -5.960938 6.421875 -7.265625 C 6.609375 -7.890625 6.753906 -8.65625 6.859375 -9.5625 C 6.972656 -10.476562 7.054688 -11.441406 7.109375 -12.453125 C 7.160156 -13.472656 7.191406 -14.46875 7.203125 -15.4375 C 7.210938 -16.40625 7.21875 -17.265625 7.21875 -18.015625 C 7.21875 -18.429688 7.195312 -18.789062 7.15625 -19.09375 C 7.125 -19.394531 7.082031 -19.6875 7.03125 -19.96875 L 9.484375 -19.96875 C 9.472656 -19.8125 9.445312 -19.550781 9.40625 -19.1875 C 9.375 -18.832031 9.359375 -18.453125 9.359375 -18.046875 C 9.359375 -17.296875 9.347656 -16.410156 9.328125 -15.390625 C 9.304688 -14.378906 9.265625 -13.328125 9.203125 -12.234375 C 9.140625 -11.148438 9.054688 -10.125 8.953125 -9.15625 C 8.847656 -8.1875 8.707031 -7.363281 8.53125 -6.6875 C 8.132812 -5.257812 7.519531 -3.910156 6.6875 -2.640625 C 5.863281 -1.378906 4.890625 -0.285156 3.765625 0.640625 Z M 15.421875 0.609375 L 14.015625 -0.5625 C 14.066406 -0.769531 14.109375 -1.003906 14.140625 -1.265625 C 14.179688 -1.523438 14.203125 -1.789062 14.203125 -2.0625 L 14.203125 -18.078125 C 14.203125 -18.585938 14.175781 -19.015625 14.125 -19.359375 C 14.082031 -19.710938 14.050781 -19.941406 14.03125 -20.046875 L 16.5 -20.046875 C 16.476562 -19.941406 16.453125 -19.710938 16.421875 -19.359375 C 16.398438 -19.015625 16.390625 -18.585938 16.390625 -18.078125 L 16.390625 -2.640625 C 17.210938 -3.015625 18.09375 -3.523438 19.03125 -4.171875 C 19.976562 -4.816406 20.898438 -5.566406 21.796875 -6.421875 C 22.703125 -7.285156 23.492188 -8.21875 24.171875 -9.21875 L 25.453125 -7.40625 C 24.679688 -6.375 23.785156 -5.390625 22.765625 -4.453125 C 21.742188 -3.515625 20.675781 -2.664062 19.5625 -1.90625 C 18.445312 -1.15625 17.367188 -0.519531 16.328125 0 C 16.140625 0.101562 15.976562 0.203125 15.84375 0.296875 C 15.707031 0.398438 15.566406 0.503906 15.421875 0.609375 Z M 15.421875 0.609375 "/></g></g></g><g fill="#000000" fill-opacity="1"><g transform="translate(81.14663, 29.659831)"><g><path d="M 4.78125 -20.234375 L 7.1875 -20.046875 C 7.113281 -19.816406 7.023438 -19.523438 6.921875 -19.171875 C 6.816406 -18.816406 6.738281 -18.515625 6.6875 -18.265625 C 6.5625 -17.648438 6.421875 -16.921875 6.265625 -16.078125 C 6.117188 -15.234375 5.976562 -14.335938 5.84375 -13.390625 C 5.707031 -12.453125 5.597656 -11.523438 5.515625 -10.609375 C 5.441406 -9.703125 5.40625 -8.875 5.40625 -8.125 C 5.40625 -7.488281 5.421875 -6.882812 5.453125 -6.3125 C 5.484375 -5.738281 5.535156 -5.128906 5.609375 -4.484375 C 5.847656 -5.097656 6.097656 -5.753906 6.359375 -6.453125 C 6.628906 -7.160156 6.867188 -7.769531 7.078125 -8.28125 L 8.234375 -7.4375 C 8.015625 -6.8125 7.769531 -6.113281 7.5 -5.34375 C 7.238281 -4.582031 7.003906 -3.859375 6.796875 -3.171875 C 6.597656 -2.484375 6.453125 -1.925781 6.359375 -1.5 C 6.273438 -1.082031 6.234375 -0.691406 6.234375 -0.328125 L 6.3125 0.609375 L 4.390625 0.75 C 4.117188 -0.195312 3.890625 -1.40625 3.703125 -2.875 C 3.515625 -4.34375 3.421875 -5.96875 3.421875 -7.75 C 3.421875 -9.050781 3.492188 -10.382812 3.640625 -11.75 C 3.796875 -13.113281 3.96875 -14.378906 4.15625 -15.546875 C 4.34375 -16.710938 4.488281 -17.648438 4.59375 -18.359375 C 4.632812 -18.671875 4.675781 -18.988281 4.71875 -19.3125 C 4.757812 -19.644531 4.78125 -19.953125 4.78125 -20.234375 Z M 11.3125 -7.40625 L 13.234375 -7.21875 C 13.003906 -6.289062 12.890625 -5.476562 12.890625 -4.78125 C 12.890625 -4.394531 13.003906 -4.015625 13.234375 -3.640625 C 13.460938 -3.273438 13.894531 -2.976562 14.53125 -2.75 C 15.175781 -2.519531 16.109375 -2.40625 17.328125 -2.40625 C 19.617188 -2.40625 21.800781 -2.632812 23.875 -3.09375 L 23.90625 -0.859375 C 23.082031 -0.691406 22.117188 -0.5625 21.015625 -0.46875 C 19.910156 -0.375 18.671875 -0.328125 17.296875 -0.328125 C 15.085938 -0.328125 13.460938 -0.671875 12.421875 -1.359375 C 11.390625 -2.054688 10.875 -3.03125 10.875 -4.28125 C 10.875 -4.757812 10.914062 -5.257812 11 -5.78125 C 11.082031 -6.3125 11.1875 -6.851562 11.3125 -7.40625 Z M 12.21875 -15.828125 L 12.1875 -18.015625 C 12.914062 -17.890625 13.757812 -17.804688 14.71875 -17.765625 C 15.6875 -17.722656 16.6875 -17.703125 17.71875 -17.703125 C 18.757812 -17.703125 19.742188 -17.734375 20.671875 -17.796875 C 21.609375 -17.859375 22.410156 -17.929688 23.078125 -18.015625 L 23.078125 -15.828125 C 22.359375 -15.753906 21.53125 -15.695312 20.59375 -15.65625 C 19.65625 -15.625 18.675781 -15.609375 17.65625 -15.609375 C 16.644531 -15.609375 15.664062 -15.625 14.71875 -15.65625 C 13.78125 -15.695312 12.945312 -15.753906 12.21875 -15.828125 Z M 12.21875 -15.828125 "/></g></g></g><g fill="#000000" fill-opacity="1"><g transform="translate(107.875708, 29.659831)"><g><path d="M 2.0625 -13.953125 C 2.539062 -14.046875 3.019531 -14.160156 3.5 -14.296875 C 3.976562 -14.441406 4.46875 -14.585938 4.96875 -14.734375 C 5.539062 -14.910156 6.265625 -15.140625 7.140625 -15.421875 C 8.015625 -15.710938 8.972656 -16.003906 10.015625 -16.296875 C 11.054688 -16.585938 12.117188 -16.832031 13.203125 -17.03125 C 14.296875 -17.238281 15.320312 -17.34375 16.28125 -17.34375 C 17.738281 -17.34375 19.066406 -17.070312 20.265625 -16.53125 C 21.460938 -15.988281 22.410156 -15.195312 23.109375 -14.15625 C 23.816406 -13.113281 24.171875 -11.851562 24.171875 -10.375 C 24.171875 -8.789062 23.800781 -7.398438 23.0625 -6.203125 C 22.332031 -5.003906 21.304688 -4.003906 19.984375 -3.203125 C 18.671875 -2.398438 17.132812 -1.769531 15.375 -1.3125 C 13.625 -0.863281 11.722656 -0.585938 9.671875 -0.484375 L 8.734375 -2.703125 C 10.460938 -2.753906 12.113281 -2.925781 13.6875 -3.21875 C 15.257812 -3.507812 16.65625 -3.960938 17.875 -4.578125 C 19.09375 -5.191406 20.050781 -5.976562 20.75 -6.9375 C 21.457031 -7.894531 21.8125 -9.050781 21.8125 -10.40625 C 21.8125 -11.332031 21.59375 -12.164062 21.15625 -12.90625 C 20.71875 -13.65625 20.082031 -14.25 19.25 -14.6875 C 18.425781 -15.125 17.421875 -15.34375 16.234375 -15.34375 C 15.359375 -15.34375 14.410156 -15.238281 13.390625 -15.03125 C 12.378906 -14.832031 11.347656 -14.578125 10.296875 -14.265625 C 9.253906 -13.953125 8.257812 -13.617188 7.3125 -13.265625 C 6.375 -12.921875 5.53125 -12.597656 4.78125 -12.296875 C 4.03125 -11.992188 3.453125 -11.765625 3.046875 -11.609375 Z M 2.0625 -13.953125 "/></g></g></g><g fill="#000000" fill-opacity="1"><g transform="translate(134.604785, 29.659831)"><g><path d="M 6.046875 -18.609375 C 5.992188 -18.285156 5.945312 -17.863281 5.90625 -17.34375 C 5.875 -16.832031 5.847656 -16.398438 5.828125 -16.046875 C 5.804688 -15.222656 5.804688 -14.242188 5.828125 -13.109375 C 5.859375 -11.984375 5.921875 -10.875 6.015625 -9.78125 C 6.234375 -7.570312 6.648438 -5.796875 7.265625 -4.453125 C 7.890625 -3.109375 8.664062 -2.4375 9.59375 -2.4375 C 10.0625 -2.4375 10.5 -2.695312 10.90625 -3.21875 C 11.3125 -3.75 11.679688 -4.425781 12.015625 -5.25 C 12.359375 -6.082031 12.648438 -6.941406 12.890625 -7.828125 L 14.5625 -5.90625 C 14.050781 -4.40625 13.523438 -3.21875 12.984375 -2.34375 C 12.441406 -1.476562 11.882812 -0.851562 11.3125 -0.46875 C 10.738281 -0.0820312 10.148438 0.109375 9.546875 0.109375 C 8.722656 0.109375 7.925781 -0.191406 7.15625 -0.796875 C 6.394531 -1.410156 5.726562 -2.394531 5.15625 -3.75 C 4.582031 -5.113281 4.175781 -6.945312 3.9375 -9.25 C 3.84375 -10.019531 3.769531 -10.851562 3.71875 -11.75 C 3.675781 -12.644531 3.648438 -13.5 3.640625 -14.3125 C 3.640625 -15.125 3.640625 -15.789062 3.640625 -16.3125 C 3.640625 -16.613281 3.628906 -17 3.609375 -17.46875 C 3.585938 -17.9375 3.539062 -18.332031 3.46875 -18.65625 Z M 19.84375 -17.890625 C 20.425781 -17.117188 20.976562 -16.21875 21.5 -15.1875 C 22.03125 -14.164062 22.5 -13.078125 22.90625 -11.921875 C 23.320312 -10.765625 23.664062 -9.585938 23.9375 -8.390625 C 24.21875 -7.203125 24.398438 -6.046875 24.484375 -4.921875 L 22.328125 -4.0625 C 22.179688 -5.644531 21.90625 -7.25 21.5 -8.875 C 21.101562 -10.5 20.585938 -12.023438 19.953125 -13.453125 C 19.328125 -14.890625 18.59375 -16.125 17.75 -17.15625 Z M 19.84375 -17.890625 "/></g></g></g><g fill="#000000" fill-opacity="1"><g transform="translate(160.53187, 29.659831)"><g><path d="M 2.375 -17.75 C 2.894531 -17.769531 3.351562 -17.789062 3.75 -17.8125 C 4.15625 -17.84375 4.484375 -17.867188 4.734375 -17.890625 C 5.160156 -17.921875 5.773438 -17.972656 6.578125 -18.046875 C 7.378906 -18.128906 8.304688 -18.21875 9.359375 -18.3125 C 10.410156 -18.414062 11.53125 -18.519531 12.71875 -18.625 C 13.914062 -18.738281 15.117188 -18.847656 16.328125 -18.953125 C 17.773438 -19.078125 19.109375 -19.175781 20.328125 -19.25 C 21.546875 -19.320312 22.59375 -19.375 23.46875 -19.40625 L 23.46875 -17.265625 C 22.96875 -17.265625 22.398438 -17.253906 21.765625 -17.234375 C 21.140625 -17.222656 20.519531 -17.191406 19.90625 -17.140625 C 19.289062 -17.085938 18.75 -16.988281 18.28125 -16.84375 C 17.34375 -16.539062 16.5 -16.082031 15.75 -15.46875 C 15 -14.863281 14.363281 -14.171875 13.84375 -13.390625 C 13.332031 -12.609375 12.9375 -11.789062 12.65625 -10.9375 C 12.382812 -10.09375 12.25 -9.28125 12.25 -8.5 C 12.25 -7.195312 12.515625 -6.109375 13.046875 -5.234375 C 13.578125 -4.367188 14.285156 -3.664062 15.171875 -3.125 C 16.066406 -2.59375 17.050781 -2.203125 18.125 -1.953125 C 19.207031 -1.703125 20.285156 -1.5625 21.359375 -1.53125 L 20.578125 0.6875 C 19.347656 0.632812 18.117188 0.429688 16.890625 0.078125 C 15.660156 -0.273438 14.535156 -0.800781 13.515625 -1.5 C 12.492188 -2.207031 11.671875 -3.097656 11.046875 -4.171875 C 10.421875 -5.253906 10.109375 -6.535156 10.109375 -8.015625 C 10.109375 -9.410156 10.347656 -10.691406 10.828125 -11.859375 C 11.304688 -13.023438 11.925781 -14.046875 12.6875 -14.921875 C 13.445312 -15.796875 14.226562 -16.472656 15.03125 -16.953125 C 14.5625 -16.898438 13.925781 -16.832031 13.125 -16.75 C 12.320312 -16.664062 11.4375 -16.570312 10.46875 -16.46875 C 9.507812 -16.363281 8.535156 -16.25 7.546875 -16.125 C 6.554688 -16 5.628906 -15.878906 4.765625 -15.765625 C 3.898438 -15.648438 3.1875 -15.53125 2.625 -15.40625 Z M 2.375 -17.75 "/></g></g></g></g></g></svg>