<svg xmlns="http://www.w3.org/2000/svg" xmlns:xlink="http://www.w3.org/1999/xlink" width="600" zoomAndPan="magnify" viewBox="0 0 450 225" height="300" preserveAspectRatio="xMidYMid meet" version="1.0"><defs><g/><clipPath id="4c7a2a2f27"><path d="M 0 69.308594 L 450 69.308594 L 450 155.691406 L 0 155.691406 Z M 0 69.308594 " clip-rule="nonzero"/></clipPath><clipPath id="b16e975d7d"><path d="M 406.808594 69.308594 C 430.664062 69.308594 450 88.644531 450 112.5 C 450 136.355469 430.664062 155.691406 406.808594 155.691406 L 43.191406 155.691406 C 19.335938 155.691406 0 136.355469 0 112.5 C 0 88.644531 19.335938 69.308594 43.191406 69.308594 Z M 406.808594 69.308594 " clip-rule="nonzero"/></clipPath><clipPath id="784bcf5a68"><path d="M 0 0.308594 L 450 0.308594 L 450 86.691406 L 0 86.691406 Z M 0 0.308594 " clip-rule="nonzero"/></clipPath><clipPath id="18e7048ff1"><path d="M 406.808594 0.308594 C 430.664062 0.308594 450 19.644531 450 43.5 C 450 67.355469 430.664062 86.691406 406.808594 86.691406 L 43.191406 86.691406 C 19.335938 86.691406 0 67.355469 0 43.5 C 0 19.644531 19.335938 0.308594 43.191406 0.308594 Z M 406.808594 0.308594 " clip-rule="nonzero"/></clipPath><clipPath id="0dd9339e6c"><rect x="0" width="450" y="0" height="87"/></clipPath><clipPath id="a056857f61"><path d="M 0.0117188 69.308594 L 450 69.308594 L 450 155.558594 L 0.0117188 155.558594 Z M 0.0117188 69.308594 " clip-rule="nonzero"/></clipPath><clipPath id="94babab864"><path d="M 406.800781 69.308594 C 430.652344 69.308594 449.988281 88.644531 449.988281 112.5 C 449.988281 136.351562 430.652344 155.6875 406.800781 155.6875 L 43.199219 155.6875 C 19.347656 155.6875 0.0117188 136.351562 0.0117188 112.5 C 0.0117188 88.644531 19.347656 69.308594 43.199219 69.308594 Z M 406.800781 69.308594 " clip-rule="nonzero"/></clipPath><clipPath id="ed19f53461"><path d="M 22.5 86.054688 L 60.75 86.054688 L 60.75 139.304688 L 22.5 139.304688 Z M 22.5 86.054688 " clip-rule="nonzero"/></clipPath><clipPath id="be074c7369"><path d="M 47 86.054688 L 60.75 86.054688 L 60.75 100 L 47 100 Z M 47 86.054688 " clip-rule="nonzero"/></clipPath><clipPath id="840ba64a62"><rect x="0" width="347" y="0" height="40"/></clipPath></defs><g clip-path="url(#4c7a2a2f27)"><g clip-path="url(#b16e975d7d)"><g transform="matrix(1, 0, 0, 1, 0, 69)"><g clip-path="url(#0dd9339e6c)"><g clip-path="url(#784bcf5a68)"><g clip-path="url(#18e7048ff1)"><path fill="#eaeaea" d="M 0 0.308594 L 450.136719 0.308594 L 450.136719 86.691406 L 0 86.691406 Z M 0 0.308594 " fill-opacity="1" fill-rule="nonzero"/></g></g></g></g></g></g><g clip-path="url(#a056857f61)"><g clip-path="url(#94babab864)"><path stroke-linecap="butt" transform="matrix(0.75, 0, 0, 0.75, 0.00996734, 69.308642)" fill="none" stroke-linejoin="miter" d="M 542.387774 -0.0000647495 C 574.189859 -0.0000647495 599.97111 25.781186 599.97111 57.588479 C 599.97111 89.390564 574.189859 115.171815 542.387774 115.171815 L 57.585671 115.171815 C 25.783586 115.171815 0.00233521 89.390564 0.00233521 57.588479 C 0.00233521 25.781186 25.783586 -0.0000647495 57.585671 -0.0000647495 Z M 542.387774 -0.0000647495 " stroke="#a6a6a6" stroke-width="2" stroke-opacity="1" stroke-miterlimit="4"/></g></g><g clip-path="url(#ed19f53461)"><path fill="#7249bc" d="M 47.511719 86.054688 L 26.011719 86.054688 C 24.109375 86.054688 22.5 87.679688 22.5 89.605469 L 22.5 135.675781 C 22.5 137.675781 24.109375 139.300781 26.011719 139.300781 L 57.167969 139.300781 C 59.140625 139.300781 60.675781 137.675781 60.675781 135.75 L 60.675781 99.515625 Z M 47.511719 86.054688 " fill-opacity="1" fill-rule="nonzero"/></g><g clip-path="url(#be074c7369)"><path fill="#221f1f" d="M 47.511719 86.054688 L 47.511719 99.441406 L 60.75 99.441406 " fill-opacity="0.35" fill-rule="nonzero"/></g><path fill="#ffffff" d="M 34.128906 110.753906 C 34.128906 111.03125 34.078125 111.292969 33.972656 111.546875 C 33.867188 111.800781 33.722656 112.023438 33.527344 112.21875 C 33.335938 112.414062 33.117188 112.5625 32.863281 112.667969 C 32.613281 112.773438 32.351562 112.824219 32.082031 112.824219 C 31.808594 112.824219 31.546875 112.773438 31.296875 112.667969 C 31.046875 112.5625 30.824219 112.414062 30.632812 112.21875 C 30.441406 112.023438 30.292969 111.800781 30.1875 111.546875 C 30.085938 111.292969 30.03125 111.03125 30.03125 110.753906 C 30.03125 110.480469 30.085938 110.214844 30.1875 109.960938 C 30.292969 109.707031 30.441406 109.484375 30.632812 109.289062 C 30.824219 109.097656 31.046875 108.945312 31.296875 108.84375 C 31.546875 108.738281 31.808594 108.683594 32.082031 108.683594 C 32.351562 108.683594 32.613281 108.738281 32.863281 108.84375 C 33.117188 108.945312 33.335938 109.097656 33.527344 109.289062 C 33.722656 109.484375 33.867188 109.707031 33.972656 109.960938 C 34.078125 110.214844 34.128906 110.480469 34.128906 110.753906 Z M 34.128906 110.753906 " fill-opacity="1" fill-rule="nonzero"/><path fill="#ffffff" d="M 34.128906 117.335938 C 34.128906 117.613281 34.078125 117.875 33.972656 118.128906 C 33.867188 118.382812 33.722656 118.605469 33.527344 118.800781 C 33.335938 118.996094 33.117188 119.144531 32.863281 119.25 C 32.613281 119.355469 32.351562 119.40625 32.082031 119.40625 C 31.808594 119.40625 31.546875 119.355469 31.296875 119.25 C 31.046875 119.144531 30.824219 118.996094 30.632812 118.800781 C 30.441406 118.605469 30.292969 118.382812 30.1875 118.128906 C 30.085938 117.875 30.03125 117.613281 30.03125 117.335938 C 30.03125 117.0625 30.085938 116.796875 30.1875 116.542969 C 30.292969 116.289062 30.441406 116.066406 30.632812 115.871094 C 30.824219 115.679688 31.046875 115.527344 31.296875 115.425781 C 31.546875 115.320312 31.808594 115.265625 32.082031 115.265625 C 32.351562 115.265625 32.613281 115.320312 32.863281 115.425781 C 33.117188 115.527344 33.335938 115.679688 33.527344 115.871094 C 33.722656 116.066406 33.867188 116.289062 33.972656 116.542969 C 34.078125 116.796875 34.128906 117.0625 34.128906 117.335938 Z M 34.128906 117.335938 " fill-opacity="1" fill-rule="nonzero"/><path fill="#ffffff" d="M 34.128906 123.917969 C 34.128906 124.195312 34.078125 124.457031 33.972656 124.710938 C 33.867188 124.964844 33.722656 125.1875 33.527344 125.382812 C 33.335938 125.578125 33.117188 125.726562 32.863281 125.832031 C 32.613281 125.9375 32.351562 125.988281 32.082031 125.988281 C 31.808594 125.988281 31.546875 125.9375 31.296875 125.832031 C 31.046875 125.726562 30.824219 125.578125 30.632812 125.382812 C 30.441406 125.1875 30.292969 124.964844 30.1875 124.710938 C 30.085938 124.457031 30.03125 124.195312 30.03125 123.917969 C 30.03125 123.644531 30.085938 123.378906 30.1875 123.125 C 30.292969 122.871094 30.441406 122.648438 30.632812 122.453125 C 30.824219 122.261719 31.046875 122.109375 31.296875 122.003906 C 31.546875 121.902344 31.808594 121.847656 32.082031 121.847656 C 32.351562 121.847656 32.613281 121.902344 32.863281 122.003906 C 33.117188 122.109375 33.335938 122.261719 33.527344 122.453125 C 33.722656 122.648438 33.867188 122.871094 33.972656 123.125 C 34.078125 123.378906 34.128906 123.644531 34.128906 123.917969 Z M 34.128906 123.917969 " fill-opacity="1" fill-rule="nonzero"/><path fill="#ffffff" d="M 37.417969 109.351562 L 51.902344 109.351562 L 51.902344 112.234375 L 37.417969 112.234375 Z M 37.417969 109.351562 " fill-opacity="1" fill-rule="nonzero"/><path fill="#ffffff" d="M 37.417969 115.933594 L 51.902344 115.933594 L 51.902344 118.816406 L 37.417969 118.816406 Z M 37.417969 115.933594 " fill-opacity="1" fill-rule="nonzero"/><path fill="#ffffff" d="M 37.417969 122.515625 L 51.902344 122.515625 L 51.902344 125.398438 L 37.417969 125.398438 Z M 37.417969 122.515625 " fill-opacity="1" fill-rule="nonzero"/><g transform="matrix(1, 0, 0, 1, 87, 92)"><g clip-path="url(#840ba64a62)"><g fill="#000000" fill-opacity="1"><g transform="translate(0.431027, 31.084622)"><g><path d="M 21.390625 -18.828125 L 23.015625 -17.78125 C 22.929688 -17.601562 22.859375 -17.394531 22.796875 -17.15625 C 22.734375 -16.925781 22.675781 -16.6875 22.625 -16.4375 C 22.425781 -15.507812 22.144531 -14.453125 21.78125 -13.265625 C 21.425781 -12.085938 20.988281 -10.910156 20.46875 -9.734375 C 19.957031 -8.554688 19.347656 -7.503906 18.640625 -6.578125 C 17.421875 -5.003906 15.972656 -3.613281 14.296875 -2.40625 C 12.628906 -1.195312 10.5625 -0.195312 8.09375 0.59375 L 6.28125 -1.421875 C 8.007812 -1.859375 9.515625 -2.394531 10.796875 -3.03125 C 12.078125 -3.664062 13.195312 -4.390625 14.15625 -5.203125 C 15.113281 -6.015625 15.960938 -6.898438 16.703125 -7.859375 C 17.347656 -8.679688 17.910156 -9.601562 18.390625 -10.625 C 18.867188 -11.65625 19.265625 -12.691406 19.578125 -13.734375 C 19.890625 -14.773438 20.101562 -15.722656 20.21875 -16.578125 L 6.546875 -16.578125 C 6.015625 -16.578125 5.523438 -16.566406 5.078125 -16.546875 C 4.628906 -16.523438 4.226562 -16.507812 3.875 -16.5 L 3.875 -18.84375 C 4.25 -18.8125 4.675781 -18.773438 5.15625 -18.734375 C 5.632812 -18.703125 6.097656 -18.6875 6.546875 -18.6875 L 19.96875 -18.6875 C 20.164062 -18.6875 20.390625 -18.691406 20.640625 -18.703125 C 20.890625 -18.710938 21.140625 -18.753906 21.390625 -18.828125 Z M 21.390625 -18.828125 "/></g></g></g><g fill="#000000" fill-opacity="1"><g transform="translate(27.160104, 31.084622)"><g><path d="M 17.34375 -12.375 L 21.203125 -12.375 C 21.460938 -12.375 21.78125 -12.382812 22.15625 -12.40625 C 22.53125 -12.4375 22.804688 -12.460938 22.984375 -12.484375 L 22.984375 -10.375 C 22.753906 -10.394531 22.46875 -10.410156 22.125 -10.421875 C 21.789062 -10.441406 21.5 -10.453125 21.25 -10.453125 L 17.375 -10.453125 C 17.394531 -9.328125 17.410156 -8.128906 17.421875 -6.859375 C 17.441406 -5.597656 17.460938 -4.378906 17.484375 -3.203125 C 17.515625 -2.023438 17.53125 -1.019531 17.53125 -0.1875 C 17.550781 0.382812 17.367188 0.832031 16.984375 1.15625 C 16.609375 1.488281 16.125 1.65625 15.53125 1.65625 C 15 1.65625 14.351562 1.632812 13.59375 1.59375 C 12.832031 1.550781 12.1875 1.519531 11.65625 1.5 L 11.546875 -0.453125 C 12.078125 -0.378906 12.65625 -0.320312 13.28125 -0.28125 C 13.90625 -0.238281 14.414062 -0.21875 14.8125 -0.21875 C 15.289062 -0.21875 15.53125 -0.472656 15.53125 -0.984375 C 15.53125 -1.554688 15.523438 -2.25 15.515625 -3.0625 C 15.503906 -3.875 15.492188 -4.742188 15.484375 -5.671875 C 15.484375 -6.609375 15.472656 -7.550781 15.453125 -8.5 C 14.847656 -7.644531 14.046875 -6.726562 13.046875 -5.75 C 12.046875 -4.78125 10.945312 -3.84375 9.75 -2.9375 C 8.5625 -2.03125 7.363281 -1.253906 6.15625 -0.609375 L 4.65625 -2.265625 C 5.988281 -2.910156 7.296875 -3.703125 8.578125 -4.640625 C 9.859375 -5.578125 11.019531 -6.550781 12.0625 -7.5625 C 13.113281 -8.582031 13.941406 -9.546875 14.546875 -10.453125 L 7.40625 -10.453125 C 6.695312 -10.453125 6.019531 -10.425781 5.375 -10.375 L 5.375 -12.484375 C 5.675781 -12.453125 6 -12.425781 6.34375 -12.40625 C 6.695312 -12.382812 7.035156 -12.375 7.359375 -12.375 L 15.40625 -12.375 C 15.382812 -12.84375 15.367188 -13.257812 15.359375 -13.625 C 15.347656 -13.988281 15.332031 -14.296875 15.3125 -14.546875 C 15.3125 -14.804688 15.296875 -15.097656 15.265625 -15.421875 C 15.234375 -15.742188 15.1875 -16.046875 15.125 -16.328125 L 17.40625 -16.328125 C 17.363281 -16.046875 17.332031 -15.753906 17.3125 -15.453125 C 17.300781 -15.148438 17.296875 -14.847656 17.296875 -14.546875 Z M 17.34375 -12.375 "/></g></g></g><g fill="#000000" fill-opacity="1"><g transform="translate(53.889181, 31.084622)"><g><path d="M 2.734375 -8.953125 L 2.734375 -11.578125 C 3.140625 -11.554688 3.671875 -11.523438 4.328125 -11.484375 C 4.984375 -11.453125 5.6875 -11.4375 6.4375 -11.4375 L 21.09375 -11.4375 C 21.769531 -11.4375 22.347656 -11.453125 22.828125 -11.484375 C 23.304688 -11.523438 23.691406 -11.554688 23.984375 -11.578125 L 23.984375 -8.953125 C 23.710938 -8.972656 23.316406 -9 22.796875 -9.03125 C 22.285156 -9.070312 21.726562 -9.09375 21.125 -9.09375 L 6.4375 -9.09375 C 5.707031 -9.09375 5.007812 -9.078125 4.34375 -9.046875 C 3.675781 -9.023438 3.140625 -8.992188 2.734375 -8.953125 Z M 2.734375 -8.953125 "/></g></g></g><g fill="#000000" fill-opacity="1"><g transform="translate(79.816266, 31.084622)"><g><path d="M 24.9375 -0.109375 L 22.71875 0.90625 C 22.539062 0.425781 22.328125 -0.109375 22.078125 -0.703125 C 21.828125 -1.304688 21.550781 -1.9375 21.25 -2.59375 C 20.4375 -2.488281 19.453125 -2.367188 18.296875 -2.234375 C 17.148438 -2.097656 15.929688 -1.953125 14.640625 -1.796875 C 13.347656 -1.648438 12.066406 -1.507812 10.796875 -1.375 C 9.535156 -1.238281 8.363281 -1.117188 7.28125 -1.015625 C 6.207031 -0.910156 5.3125 -0.820312 4.59375 -0.75 C 4.257812 -0.726562 3.90625 -0.6875 3.53125 -0.625 C 3.15625 -0.5625 2.769531 -0.503906 2.375 -0.453125 L 1.984375 -2.9375 C 2.390625 -2.914062 2.804688 -2.910156 3.234375 -2.921875 C 3.660156 -2.929688 4.070312 -2.945312 4.46875 -2.96875 C 4.664062 -2.988281 4.878906 -3 5.109375 -3 C 5.335938 -3.007812 5.566406 -3.023438 5.796875 -3.046875 C 6.097656 -3.773438 6.4375 -4.671875 6.8125 -5.734375 C 7.1875 -6.796875 7.570312 -7.921875 7.96875 -9.109375 C 8.375 -10.304688 8.757812 -11.472656 9.125 -12.609375 C 9.488281 -13.753906 9.816406 -14.796875 10.109375 -15.734375 C 10.410156 -16.671875 10.632812 -17.394531 10.78125 -17.90625 C 10.9375 -18.53125 11.050781 -19.03125 11.125 -19.40625 C 11.195312 -19.78125 11.257812 -20.140625 11.3125 -20.484375 L 13.953125 -19.9375 C 13.828125 -19.601562 13.6875 -19.25 13.53125 -18.875 C 13.382812 -18.5 13.222656 -18.023438 13.046875 -17.453125 C 12.890625 -16.953125 12.664062 -16.253906 12.375 -15.359375 C 12.09375 -14.472656 11.769531 -13.484375 11.40625 -12.390625 C 11.050781 -11.296875 10.679688 -10.175781 10.296875 -9.03125 C 9.921875 -7.894531 9.554688 -6.820312 9.203125 -5.8125 C 8.859375 -4.800781 8.550781 -3.953125 8.28125 -3.265625 C 9.269531 -3.347656 10.3125 -3.445312 11.40625 -3.5625 C 12.5 -3.6875 13.582031 -3.804688 14.65625 -3.921875 C 15.738281 -4.046875 16.757812 -4.164062 17.71875 -4.28125 C 18.6875 -4.40625 19.535156 -4.507812 20.265625 -4.59375 C 19.734375 -5.644531 19.1875 -6.660156 18.625 -7.640625 C 18.0625 -8.617188 17.53125 -9.429688 17.03125 -10.078125 L 19.03125 -10.984375 C 19.507812 -10.285156 20.03125 -9.460938 20.59375 -8.515625 C 21.15625 -7.578125 21.71875 -6.585938 22.28125 -5.546875 C 22.84375 -4.503906 23.359375 -3.507812 23.828125 -2.5625 C 24.304688 -1.625 24.675781 -0.804688 24.9375 -0.109375 Z M 24.9375 -0.109375 "/></g></g></g><g fill="#000000" fill-opacity="1"><g transform="translate(106.545344, 31.084622)"><g><path d="M 18.09375 -10.875 L 20.484375 -11.359375 C 21.390625 -10.359375 22.066406 -9.375 22.515625 -8.40625 C 22.972656 -7.4375 23.203125 -6.378906 23.203125 -5.234375 C 23.203125 -3.929688 22.832031 -2.800781 22.09375 -1.84375 C 21.351562 -0.894531 20.328125 -0.171875 19.015625 0.328125 C 17.710938 0.835938 16.1875 1.09375 14.4375 1.09375 C 13.238281 1.09375 12.144531 0.898438 11.15625 0.515625 C 10.164062 0.140625 9.375 -0.476562 8.78125 -1.34375 C 8.195312 -2.207031 7.90625 -3.363281 7.90625 -4.8125 C 7.90625 -5.164062 7.921875 -5.601562 7.953125 -6.125 C 7.992188 -6.65625 8.050781 -7.234375 8.125 -7.859375 C 7.144531 -7.953125 6.179688 -8.070312 5.234375 -8.21875 C 4.296875 -8.375 3.425781 -8.578125 2.625 -8.828125 L 2.734375 -10.859375 C 3.597656 -10.554688 4.507812 -10.316406 5.46875 -10.140625 C 6.4375 -9.972656 7.382812 -9.851562 8.3125 -9.78125 C 8.40625 -10.570312 8.503906 -11.367188 8.609375 -12.171875 C 8.710938 -12.984375 8.8125 -13.773438 8.90625 -14.546875 C 7.957031 -14.628906 6.988281 -14.742188 6 -14.890625 C 5.007812 -15.046875 4.097656 -15.234375 3.265625 -15.453125 L 3.375 -17.4375 C 4.207031 -17.164062 5.128906 -16.945312 6.140625 -16.78125 C 7.160156 -16.625 8.160156 -16.519531 9.140625 -16.46875 C 9.210938 -17 9.273438 -17.5 9.328125 -17.96875 C 9.378906 -18.445312 9.414062 -18.863281 9.4375 -19.21875 C 9.46875 -19.519531 9.488281 -19.820312 9.5 -20.125 C 9.507812 -20.425781 9.5 -20.738281 9.46875 -21.0625 L 11.875 -20.9375 C 11.78125 -20.570312 11.707031 -20.25 11.65625 -19.96875 C 11.601562 -19.6875 11.554688 -19.394531 11.515625 -19.09375 C 11.484375 -18.75 11.4375 -18.347656 11.375 -17.890625 C 11.3125 -17.441406 11.242188 -16.941406 11.171875 -16.390625 C 13.191406 -16.390625 14.972656 -16.492188 16.515625 -16.703125 L 16.46875 -14.703125 C 15.632812 -14.628906 14.789062 -14.566406 13.9375 -14.515625 C 13.09375 -14.460938 12.144531 -14.4375 11.09375 -14.4375 L 10.90625 -14.4375 C 10.800781 -13.664062 10.695312 -12.875 10.59375 -12.0625 C 10.5 -11.257812 10.40625 -10.472656 10.3125 -9.703125 L 10.828125 -9.703125 C 11.722656 -9.703125 12.628906 -9.722656 13.546875 -9.765625 C 14.472656 -9.816406 15.398438 -9.90625 16.328125 -10.03125 L 16.28125 -8 C 15.40625 -7.90625 14.546875 -7.835938 13.703125 -7.796875 C 12.859375 -7.765625 11.988281 -7.75 11.09375 -7.75 C 10.9375 -7.75 10.773438 -7.75 10.609375 -7.75 C 10.453125 -7.75 10.289062 -7.75 10.125 -7.75 C 10.070312 -7.238281 10.03125 -6.753906 10 -6.296875 C 9.976562 -5.835938 9.96875 -5.453125 9.96875 -5.140625 C 9.96875 -3.890625 10.332031 -2.890625 11.0625 -2.140625 C 11.800781 -1.390625 12.925781 -1.015625 14.4375 -1.015625 C 16.445312 -1.015625 18.046875 -1.414062 19.234375 -2.21875 C 20.421875 -3.019531 21.015625 -4.109375 21.015625 -5.484375 C 21.015625 -6.367188 20.769531 -7.285156 20.28125 -8.234375 C 19.800781 -9.179688 19.070312 -10.0625 18.09375 -10.875 Z M 18.09375 -10.875 "/></g></g></g><g fill="#000000" fill-opacity="1"><g transform="translate(133.274421, 31.084622)"><g><path d="M 7.859375 -1.53125 C 8.484375 -1.53125 8.796875 -1.957031 8.796875 -2.8125 C 8.796875 -3.289062 8.785156 -3.945312 8.765625 -4.78125 C 8.742188 -5.625 8.726562 -6.523438 8.71875 -7.484375 C 7.644531 -6.984375 6.753906 -6.390625 6.046875 -5.703125 C 5.347656 -5.015625 5 -4.367188 5 -3.765625 C 5 -3.378906 5.160156 -3.007812 5.484375 -2.65625 C 5.816406 -2.3125 6.210938 -2.035156 6.671875 -1.828125 C 7.128906 -1.628906 7.523438 -1.53125 7.859375 -1.53125 Z M 10.640625 -11.0625 L 10.640625 -10.1875 C 11.640625 -10.507812 12.632812 -10.75 13.625 -10.90625 C 14.625 -11.0625 15.5625 -11.140625 16.4375 -11.140625 C 17.71875 -11.140625 18.859375 -10.921875 19.859375 -10.484375 C 20.859375 -10.054688 21.644531 -9.441406 22.21875 -8.640625 C 22.789062 -7.847656 23.078125 -6.925781 23.078125 -5.875 C 23.078125 -4.269531 22.585938 -2.957031 21.609375 -1.9375 C 20.640625 -0.925781 19.25 -0.203125 17.4375 0.234375 C 16.84375 0.359375 16.265625 0.441406 15.703125 0.484375 C 15.140625 0.535156 14.628906 0.570312 14.171875 0.59375 L 13.421875 -1.53125 C 13.921875 -1.53125 14.4375 -1.53125 14.96875 -1.53125 C 15.5 -1.539062 16.015625 -1.601562 16.515625 -1.71875 C 17.304688 -1.851562 18.035156 -2.085938 18.703125 -2.421875 C 19.367188 -2.765625 19.910156 -3.21875 20.328125 -3.78125 C 20.742188 -4.34375 20.953125 -5.035156 20.953125 -5.859375 C 20.953125 -6.609375 20.75 -7.238281 20.34375 -7.75 C 19.9375 -8.269531 19.390625 -8.65625 18.703125 -8.90625 C 18.015625 -9.164062 17.253906 -9.296875 16.421875 -9.296875 C 15.429688 -9.296875 14.457031 -9.207031 13.5 -9.03125 C 12.550781 -8.851562 11.609375 -8.597656 10.671875 -8.265625 C 10.703125 -7.140625 10.726562 -6.046875 10.75 -4.984375 C 10.769531 -3.921875 10.78125 -3.109375 10.78125 -2.546875 C 10.78125 -1.304688 10.5625 -0.457031 10.125 0 C 9.695312 0.457031 9.128906 0.6875 8.421875 0.6875 C 7.898438 0.6875 7.320312 0.570312 6.6875 0.34375 C 6.0625 0.113281 5.457031 -0.195312 4.875 -0.59375 C 4.300781 -1 3.828125 -1.46875 3.453125 -2 C 3.078125 -2.539062 2.890625 -3.101562 2.890625 -3.6875 C 2.890625 -4.414062 3.160156 -5.132812 3.703125 -5.84375 C 4.242188 -6.5625 4.957031 -7.238281 5.84375 -7.875 C 6.726562 -8.507812 7.675781 -9.039062 8.6875 -9.46875 L 8.6875 -10.96875 C 8.6875 -11.5 8.6875 -12.0625 8.6875 -12.65625 C 8.6875 -13.25 8.695312 -13.84375 8.71875 -14.4375 C 8 -14.382812 7.347656 -14.359375 6.765625 -14.359375 C 6.160156 -14.359375 5.578125 -14.363281 5.015625 -14.375 C 4.453125 -14.394531 3.910156 -14.429688 3.390625 -14.484375 L 3.34375 -16.515625 C 4.070312 -16.429688 4.691406 -16.375 5.203125 -16.34375 C 5.722656 -16.320312 6.222656 -16.3125 6.703125 -16.3125 C 7.347656 -16.3125 8.023438 -16.335938 8.734375 -16.390625 C 8.753906 -17.085938 8.769531 -17.707031 8.78125 -18.25 C 8.789062 -18.789062 8.796875 -19.175781 8.796875 -19.40625 C 8.796875 -19.675781 8.78125 -20 8.75 -20.375 C 8.726562 -20.75 8.691406 -21.050781 8.640625 -21.28125 L 10.96875 -21.28125 C 10.90625 -20.75 10.859375 -20.144531 10.828125 -19.46875 C 10.804688 -19.144531 10.789062 -18.734375 10.78125 -18.234375 C 10.78125 -17.734375 10.769531 -17.191406 10.75 -16.609375 C 11.707031 -16.734375 12.660156 -16.882812 13.609375 -17.0625 C 14.566406 -17.238281 15.421875 -17.441406 16.171875 -17.671875 L 16.203125 -15.5625 C 15.429688 -15.382812 14.5625 -15.210938 13.59375 -15.046875 C 12.625 -14.890625 11.65625 -14.757812 10.6875 -14.65625 C 10.675781 -14.03125 10.664062 -13.410156 10.65625 -12.796875 C 10.644531 -12.179688 10.640625 -11.601562 10.640625 -11.0625 Z M 18.265625 -16.734375 L 19.21875 -18.359375 C 19.84375 -18.046875 20.539062 -17.648438 21.3125 -17.171875 C 22.09375 -16.703125 22.835938 -16.226562 23.546875 -15.75 C 24.265625 -15.269531 24.835938 -14.847656 25.265625 -14.484375 L 24.1875 -12.78125 C 23.757812 -13.207031 23.1875 -13.664062 22.46875 -14.15625 C 21.75 -14.644531 21.007812 -15.117188 20.25 -15.578125 C 19.488281 -16.046875 18.828125 -16.429688 18.265625 -16.734375 Z M 18.265625 -16.734375 "/></g></g></g><g fill="#000000" fill-opacity="1"><g transform="translate(160.003498, 31.084622)"><g><path d="M 6.875 -22.296875 L 8.734375 -21.578125 C 8.222656 -20.828125 7.613281 -20.054688 6.90625 -19.265625 C 6.207031 -18.484375 5.457031 -17.742188 4.65625 -17.046875 C 3.851562 -16.359375 3.054688 -15.75 2.265625 -15.21875 C 2.160156 -15.445312 2.003906 -15.71875 1.796875 -16.03125 C 1.597656 -16.351562 1.414062 -16.613281 1.25 -16.8125 C 1.945312 -17.28125 2.65625 -17.820312 3.375 -18.4375 C 4.101562 -19.050781 4.773438 -19.691406 5.390625 -20.359375 C 6.003906 -21.023438 6.5 -21.671875 6.875 -22.296875 Z M 7.328125 -16.4375 L 9.0625 -15.75 C 8.78125 -15.195312 8.457031 -14.644531 8.09375 -14.09375 C 7.726562 -13.539062 7.335938 -13.003906 6.921875 -12.484375 L 6.921875 2.03125 L 5 2.03125 L 5 -10.21875 C 4.5 -9.664062 3.988281 -9.140625 3.46875 -8.640625 C 2.957031 -8.140625 2.441406 -7.679688 1.921875 -7.265625 C 1.835938 -7.503906 1.679688 -7.832031 1.453125 -8.25 C 1.234375 -8.664062 1.035156 -8.988281 0.859375 -9.21875 C 1.660156 -9.8125 2.457031 -10.488281 3.25 -11.25 C 4.039062 -12.019531 4.789062 -12.847656 5.5 -13.734375 C 6.21875 -14.628906 6.828125 -15.53125 7.328125 -16.4375 Z M 11.140625 -5.453125 L 12.75 -6.359375 C 13.15625 -5.898438 13.566406 -5.394531 13.984375 -4.84375 C 14.410156 -4.289062 14.796875 -3.742188 15.140625 -3.203125 C 15.492188 -2.671875 15.765625 -2.191406 15.953125 -1.765625 L 14.28125 -0.78125 C 14.101562 -1.207031 13.84375 -1.695312 13.5 -2.25 C 13.164062 -2.800781 12.789062 -3.359375 12.375 -3.921875 C 11.96875 -4.484375 11.554688 -4.992188 11.140625 -5.453125 Z M 25.640625 -11.875 L 21.875 -11.875 L 21.875 -8.921875 L 25.453125 -8.921875 L 25.453125 -7.109375 L 21.875 -7.109375 L 21.875 -0.375 C 21.875 0.226562 21.796875 0.679688 21.640625 0.984375 C 21.492188 1.285156 21.210938 1.519531 20.796875 1.6875 C 20.390625 1.84375 19.832031 1.929688 19.125 1.953125 C 18.425781 1.984375 17.554688 2 16.515625 2 C 16.484375 1.71875 16.40625 1.398438 16.28125 1.046875 C 16.15625 0.703125 16.019531 0.390625 15.875 0.109375 C 16.675781 0.128906 17.40625 0.140625 18.0625 0.140625 C 18.726562 0.148438 19.160156 0.148438 19.359375 0.140625 C 19.585938 0.117188 19.738281 0.0703125 19.8125 0 C 19.882812 -0.0703125 19.921875 -0.195312 19.921875 -0.375 L 19.921875 -7.109375 L 9.09375 -7.109375 L 9.09375 -8.921875 L 19.921875 -8.921875 L 19.921875 -11.875 L 8.796875 -11.875 L 8.796875 -13.71875 L 16.203125 -13.71875 L 16.203125 -17.109375 L 10.34375 -17.109375 L 10.34375 -18.921875 L 16.203125 -18.921875 L 16.203125 -22.25 L 18.15625 -22.25 L 18.15625 -18.921875 L 24.25 -18.921875 L 24.25 -17.109375 L 18.15625 -17.109375 L 18.15625 -13.71875 L 25.640625 -13.71875 Z M 25.640625 -11.875 "/></g></g></g><g fill="#000000" fill-opacity="1"><g transform="translate(186.732575, 31.084622)"><g><path d="M 20.875 -18.390625 L 20.90625 -16.328125 C 19.875 -16.148438 18.742188 -15.984375 17.515625 -15.828125 C 16.285156 -15.671875 15.039062 -15.539062 13.78125 -15.4375 C 12.519531 -15.34375 11.320312 -15.269531 10.1875 -15.21875 C 9.957031 -14.101562 9.691406 -12.972656 9.390625 -11.828125 C 9.097656 -10.679688 8.8125 -9.722656 8.53125 -8.953125 C 9.6875 -9.773438 10.84375 -10.363281 12 -10.71875 C 13.15625 -11.070312 14.46875 -11.25 15.9375 -11.25 C 18.050781 -11.25 19.691406 -10.757812 20.859375 -9.78125 C 22.035156 -8.800781 22.625 -7.535156 22.625 -5.984375 C 22.625 -4.148438 22.039062 -2.6875 20.875 -1.59375 C 19.71875 -0.507812 18.113281 0.21875 16.0625 0.59375 C 14.019531 0.96875 11.660156 1.007812 8.984375 0.71875 L 8.390625 -1.390625 C 9.921875 -1.171875 11.398438 -1.082031 12.828125 -1.125 C 14.253906 -1.175781 15.539062 -1.375 16.6875 -1.71875 C 17.84375 -2.070312 18.753906 -2.585938 19.421875 -3.265625 C 20.085938 -3.953125 20.421875 -4.84375 20.421875 -5.9375 C 20.421875 -6.9375 20.023438 -7.765625 19.234375 -8.421875 C 18.441406 -9.078125 17.269531 -9.40625 15.71875 -9.40625 C 14.144531 -9.40625 12.664062 -9.140625 11.28125 -8.609375 C 9.90625 -8.085938 8.78125 -7.300781 7.90625 -6.25 C 7.570312 -5.863281 7.296875 -5.457031 7.078125 -5.03125 L 5.109375 -5.75 C 5.554688 -6.625 5.96875 -7.597656 6.34375 -8.671875 C 6.726562 -9.753906 7.078125 -10.851562 7.390625 -11.96875 C 7.703125 -13.09375 7.96875 -14.15625 8.1875 -15.15625 L 8.15625 -15.15625 C 7.257812 -15.15625 6.390625 -15.175781 5.546875 -15.21875 C 4.703125 -15.269531 3.894531 -15.332031 3.125 -15.40625 L 3.09375 -17.515625 C 3.789062 -17.390625 4.601562 -17.28125 5.53125 -17.1875 C 6.457031 -17.101562 7.320312 -17.0625 8.125 -17.0625 L 8.5625 -17.0625 C 8.625 -17.414062 8.675781 -17.734375 8.71875 -18.015625 C 8.769531 -18.304688 8.804688 -18.566406 8.828125 -18.796875 C 8.890625 -19.222656 8.929688 -19.601562 8.953125 -19.9375 C 8.972656 -20.28125 8.972656 -20.628906 8.953125 -20.984375 L 11.328125 -20.859375 C 11.242188 -20.515625 11.160156 -20.144531 11.078125 -19.75 C 11.003906 -19.363281 10.929688 -18.992188 10.859375 -18.640625 C 10.816406 -18.441406 10.773438 -18.210938 10.734375 -17.953125 C 10.691406 -17.691406 10.632812 -17.410156 10.5625 -17.109375 C 12.144531 -17.179688 13.851562 -17.320312 15.6875 -17.53125 C 17.53125 -17.75 19.257812 -18.035156 20.875 -18.390625 Z M 20.875 -18.390625 "/></g></g></g><g fill="#000000" fill-opacity="1"><g transform="translate(213.461652, 31.084622)"><g><path d="M 6.4375 -20.765625 L 9.140625 -20.75 C 9.066406 -20.320312 9.007812 -19.878906 8.96875 -19.421875 C 8.9375 -18.960938 8.90625 -18.519531 8.875 -18.09375 C 8.851562 -17.34375 8.820312 -16.425781 8.78125 -15.34375 C 8.738281 -14.257812 8.703125 -13.097656 8.671875 -11.859375 C 8.648438 -10.617188 8.625 -9.394531 8.59375 -8.1875 C 8.570312 -6.988281 8.5625 -5.890625 8.5625 -4.890625 C 8.5625 -3.929688 8.75 -3.160156 9.125 -2.578125 C 9.507812 -2.003906 10.023438 -1.59375 10.671875 -1.34375 C 11.328125 -1.09375 12.066406 -0.96875 12.890625 -0.96875 C 14.503906 -0.96875 15.90625 -1.234375 17.09375 -1.765625 C 18.28125 -2.296875 19.304688 -2.976562 20.171875 -3.8125 C 21.035156 -4.65625 21.78125 -5.53125 22.40625 -6.4375 L 23.875 -4.59375 C 23.425781 -3.96875 22.875 -3.316406 22.21875 -2.640625 C 21.5625 -1.960938 20.78125 -1.328125 19.875 -0.734375 C 18.976562 -0.148438 17.945312 0.320312 16.78125 0.6875 C 15.613281 1.050781 14.296875 1.234375 12.828125 1.234375 C 11.566406 1.234375 10.453125 1.039062 9.484375 0.65625 C 8.523438 0.269531 7.773438 -0.359375 7.234375 -1.234375 C 6.691406 -2.109375 6.421875 -3.253906 6.421875 -4.671875 C 6.421875 -5.660156 6.429688 -6.773438 6.453125 -8.015625 C 6.484375 -9.265625 6.515625 -10.53125 6.546875 -11.8125 C 6.585938 -13.09375 6.617188 -14.285156 6.640625 -15.390625 C 6.671875 -16.503906 6.6875 -17.40625 6.6875 -18.09375 C 6.6875 -19.113281 6.601562 -20.003906 6.4375 -20.765625 Z M 6.4375 -20.765625 "/></g></g></g><g fill="#000000" fill-opacity="1"><g transform="translate(239.388738, 31.084622)"><g><path d="M 2.375 -17.75 C 2.894531 -17.769531 3.351562 -17.789062 3.75 -17.8125 C 4.15625 -17.84375 4.484375 -17.867188 4.734375 -17.890625 C 5.160156 -17.921875 5.773438 -17.972656 6.578125 -18.046875 C 7.378906 -18.128906 8.304688 -18.21875 9.359375 -18.3125 C 10.410156 -18.414062 11.53125 -18.519531 12.71875 -18.625 C 13.914062 -18.738281 15.117188 -18.847656 16.328125 -18.953125 C 17.773438 -19.078125 19.109375 -19.175781 20.328125 -19.25 C 21.546875 -19.320312 22.59375 -19.375 23.46875 -19.40625 L 23.46875 -17.265625 C 22.96875 -17.265625 22.398438 -17.253906 21.765625 -17.234375 C 21.140625 -17.222656 20.519531 -17.191406 19.90625 -17.140625 C 19.289062 -17.085938 18.75 -16.988281 18.28125 -16.84375 C 17.34375 -16.539062 16.5 -16.082031 15.75 -15.46875 C 15 -14.863281 14.363281 -14.171875 13.84375 -13.390625 C 13.332031 -12.609375 12.9375 -11.789062 12.65625 -10.9375 C 12.382812 -10.09375 12.25 -9.28125 12.25 -8.5 C 12.25 -7.195312 12.515625 -6.109375 13.046875 -5.234375 C 13.578125 -4.367188 14.285156 -3.664062 15.171875 -3.125 C 16.066406 -2.59375 17.050781 -2.203125 18.125 -1.953125 C 19.207031 -1.703125 20.285156 -1.5625 21.359375 -1.53125 L 20.578125 0.6875 C 19.347656 0.632812 18.117188 0.429688 16.890625 0.078125 C 15.660156 -0.273438 14.535156 -0.800781 13.515625 -1.5 C 12.492188 -2.207031 11.671875 -3.097656 11.046875 -4.171875 C 10.421875 -5.253906 10.109375 -6.535156 10.109375 -8.015625 C 10.109375 -9.410156 10.347656 -10.691406 10.828125 -11.859375 C 11.304688 -13.023438 11.925781 -14.046875 12.6875 -14.921875 C 13.445312 -15.796875 14.226562 -16.472656 15.03125 -16.953125 C 14.5625 -16.898438 13.925781 -16.832031 13.125 -16.75 C 12.320312 -16.664062 11.4375 -16.570312 10.46875 -16.46875 C 9.507812 -16.363281 8.535156 -16.25 7.546875 -16.125 C 6.554688 -16 5.628906 -15.878906 4.765625 -15.765625 C 3.898438 -15.648438 3.1875 -15.53125 2.625 -15.40625 Z M 2.375 -17.75 "/></g></g></g><g fill="#000000" fill-opacity="1"><g transform="translate(266.117815, 31.084622)"><g><path d="M 6.046875 -18.609375 C 5.992188 -18.285156 5.945312 -17.863281 5.90625 -17.34375 C 5.875 -16.832031 5.847656 -16.398438 5.828125 -16.046875 C 5.804688 -15.222656 5.804688 -14.242188 5.828125 -13.109375 C 5.859375 -11.984375 5.921875 -10.875 6.015625 -9.78125 C 6.234375 -7.570312 6.648438 -5.796875 7.265625 -4.453125 C 7.890625 -3.109375 8.664062 -2.4375 9.59375 -2.4375 C 10.0625 -2.4375 10.5 -2.695312 10.90625 -3.21875 C 11.3125 -3.75 11.679688 -4.425781 12.015625 -5.25 C 12.359375 -6.082031 12.648438 -6.941406 12.890625 -7.828125 L 14.5625 -5.90625 C 14.050781 -4.40625 13.523438 -3.21875 12.984375 -2.34375 C 12.441406 -1.476562 11.882812 -0.851562 11.3125 -0.46875 C 10.738281 -0.0820312 10.148438 0.109375 9.546875 0.109375 C 8.722656 0.109375 7.925781 -0.191406 7.15625 -0.796875 C 6.394531 -1.410156 5.726562 -2.394531 5.15625 -3.75 C 4.582031 -5.113281 4.175781 -6.945312 3.9375 -9.25 C 3.84375 -10.019531 3.769531 -10.851562 3.71875 -11.75 C 3.675781 -12.644531 3.648438 -13.5 3.640625 -14.3125 C 3.640625 -15.125 3.640625 -15.789062 3.640625 -16.3125 C 3.640625 -16.613281 3.628906 -17 3.609375 -17.46875 C 3.585938 -17.9375 3.539062 -18.332031 3.46875 -18.65625 Z M 19.84375 -17.890625 C 20.425781 -17.117188 20.976562 -16.21875 21.5 -15.1875 C 22.03125 -14.164062 22.5 -13.078125 22.90625 -11.921875 C 23.320312 -10.765625 23.664062 -9.585938 23.9375 -8.390625 C 24.21875 -7.203125 24.398438 -6.046875 24.484375 -4.921875 L 22.328125 -4.0625 C 22.179688 -5.644531 21.90625 -7.25 21.5 -8.875 C 21.101562 -10.5 20.585938 -12.023438 19.953125 -13.453125 C 19.328125 -14.890625 18.59375 -16.125 17.75 -17.15625 Z M 19.84375 -17.890625 "/></g></g></g><g fill="#000000" fill-opacity="1"><g transform="translate(292.846892, 31.084622)"><g><path d="M 13.390625 -3.09375 C 13.390625 -3.332031 13.382812 -3.601562 13.375 -3.90625 C 13.363281 -4.207031 13.359375 -4.535156 13.359375 -4.890625 C 12.546875 -5.054688 11.691406 -5.140625 10.796875 -5.140625 C 9.546875 -5.140625 8.585938 -4.925781 7.921875 -4.5 C 7.253906 -4.082031 6.921875 -3.570312 6.921875 -2.96875 C 6.921875 -2.363281 7.207031 -1.851562 7.78125 -1.4375 C 8.351562 -1.03125 9.289062 -0.828125 10.59375 -0.828125 C 11.351562 -0.828125 12.007812 -0.976562 12.5625 -1.28125 C 13.113281 -1.582031 13.390625 -2.1875 13.390625 -3.09375 Z M 23.046875 -2.1875 L 21.84375 -0.328125 C 21.070312 -1.035156 20.144531 -1.753906 19.0625 -2.484375 C 17.976562 -3.210938 16.773438 -3.816406 15.453125 -4.296875 C 15.472656 -3.960938 15.484375 -3.648438 15.484375 -3.359375 C 15.492188 -3.078125 15.5 -2.835938 15.5 -2.640625 C 15.5 -2.035156 15.347656 -1.445312 15.046875 -0.875 C 14.742188 -0.3125 14.253906 0.148438 13.578125 0.515625 C 12.898438 0.878906 11.984375 1.0625 10.828125 1.0625 C 8.941406 1.0625 7.484375 0.726562 6.453125 0.0625 C 5.429688 -0.601562 4.921875 -1.578125 4.921875 -2.859375 C 4.921875 -4.066406 5.46875 -5.039062 6.5625 -5.78125 C 7.65625 -6.519531 9.15625 -6.890625 11.0625 -6.890625 C 11.832031 -6.890625 12.570312 -6.835938 13.28125 -6.734375 C 13.269531 -7.328125 13.25 -7.925781 13.21875 -8.53125 C 13.195312 -9.132812 13.175781 -9.710938 13.15625 -10.265625 C 12.925781 -10.265625 12.6875 -10.265625 12.4375 -10.265625 C 12.1875 -10.265625 11.9375 -10.265625 11.6875 -10.265625 C 11.082031 -10.265625 10.378906 -10.28125 9.578125 -10.3125 C 8.785156 -10.351562 7.988281 -10.398438 7.1875 -10.453125 C 6.382812 -10.503906 5.664062 -10.566406 5.03125 -10.640625 L 5.03125 -12.671875 C 5.632812 -12.566406 6.34375 -12.472656 7.15625 -12.390625 C 7.96875 -12.304688 8.78125 -12.25 9.59375 -12.21875 C 10.414062 -12.1875 11.113281 -12.171875 11.6875 -12.171875 C 11.9375 -12.171875 12.175781 -12.171875 12.40625 -12.171875 C 12.632812 -12.171875 12.863281 -12.171875 13.09375 -12.171875 L 13.09375 -15.953125 C 12.882812 -15.953125 12.671875 -15.953125 12.453125 -15.953125 C 12.242188 -15.953125 12.023438 -15.953125 11.796875 -15.953125 C 11.179688 -15.953125 10.488281 -15.972656 9.71875 -16.015625 C 8.945312 -16.066406 8.191406 -16.125 7.453125 -16.1875 C 6.722656 -16.25 6.09375 -16.304688 5.5625 -16.359375 L 5.5625 -18.34375 C 6.09375 -18.25 6.734375 -18.160156 7.484375 -18.078125 C 8.234375 -18.003906 8.984375 -17.941406 9.734375 -17.890625 C 10.492188 -17.847656 11.171875 -17.828125 11.765625 -17.828125 C 11.992188 -17.828125 12.21875 -17.828125 12.4375 -17.828125 C 12.664062 -17.828125 12.894531 -17.828125 13.125 -17.828125 L 13.125 -19.5625 C 13.125 -19.78125 13.117188 -20.050781 13.109375 -20.375 C 13.097656 -20.707031 13.078125 -20.960938 13.046875 -21.140625 L 15.3125 -21.140625 C 15.28125 -20.910156 15.253906 -20.65625 15.234375 -20.375 C 15.222656 -20.101562 15.207031 -19.769531 15.1875 -19.375 C 15.164062 -19.21875 15.15625 -19.015625 15.15625 -18.765625 C 15.15625 -18.515625 15.15625 -18.226562 15.15625 -17.90625 C 16.3125 -17.945312 17.441406 -18.019531 18.546875 -18.125 C 19.660156 -18.226562 20.796875 -18.367188 21.953125 -18.546875 L 21.96875 -16.609375 C 20.9375 -16.492188 19.847656 -16.382812 18.703125 -16.28125 C 17.566406 -16.1875 16.375 -16.109375 15.125 -16.046875 L 15.125 -12.25 C 16.394531 -12.300781 17.640625 -12.382812 18.859375 -12.5 C 20.078125 -12.613281 21.285156 -12.757812 22.484375 -12.9375 L 22.515625 -10.9375 C 21.265625 -10.769531 20.039062 -10.640625 18.84375 -10.546875 C 17.65625 -10.453125 16.425781 -10.375 15.15625 -10.3125 C 15.195312 -9.632812 15.234375 -8.953125 15.265625 -8.265625 C 15.296875 -7.585938 15.320312 -6.9375 15.34375 -6.3125 C 16.519531 -5.988281 17.59375 -5.582031 18.5625 -5.09375 C 19.539062 -4.601562 20.40625 -4.097656 21.15625 -3.578125 C 21.914062 -3.066406 22.546875 -2.601562 23.046875 -2.1875 Z M 23.046875 -2.1875 "/></g></g></g><g fill="#000000" fill-opacity="1"><g transform="translate(319.57597, 31.084622)"><g><path d="M 12.828125 -6.25 C 13.617188 -6.25 14.234375 -6.566406 14.671875 -7.203125 C 15.117188 -7.835938 15.28125 -8.78125 15.15625 -10.03125 C 14.945312 -10.59375 14.628906 -11.003906 14.203125 -11.265625 C 13.785156 -11.523438 13.320312 -11.65625 12.8125 -11.65625 C 12.132812 -11.65625 11.515625 -11.40625 10.953125 -10.90625 C 10.398438 -10.40625 10.125 -9.726562 10.125 -8.875 C 10.125 -8.050781 10.390625 -7.40625 10.921875 -6.9375 C 11.460938 -6.476562 12.097656 -6.25 12.828125 -6.25 Z M 16.921875 -15.828125 L 16.578125 -15.828125 C 16.578125 -15.078125 16.582031 -14.316406 16.59375 -13.546875 C 16.601562 -12.785156 16.613281 -12.101562 16.625 -11.5 C 17.195312 -10.570312 17.484375 -9.4375 17.484375 -8.09375 C 17.484375 -7.207031 17.359375 -6.304688 17.109375 -5.390625 C 16.859375 -4.472656 16.4375 -3.585938 15.84375 -2.734375 C 15.257812 -1.890625 14.453125 -1.117188 13.421875 -0.421875 C 12.398438 0.265625 11.125 0.84375 9.59375 1.3125 L 7.75 -0.484375 C 9.5 -0.890625 10.96875 -1.460938 12.15625 -2.203125 C 13.351562 -2.941406 14.226562 -3.898438 14.78125 -5.078125 C 14.15625 -4.628906 13.398438 -4.40625 12.515625 -4.40625 C 11.765625 -4.40625 11.054688 -4.570312 10.390625 -4.90625 C 9.722656 -5.25 9.175781 -5.753906 8.75 -6.421875 C 8.332031 -7.097656 8.125 -7.90625 8.125 -8.84375 C 8.125 -9.71875 8.335938 -10.503906 8.765625 -11.203125 C 9.191406 -11.898438 9.757812 -12.453125 10.46875 -12.859375 C 11.1875 -13.265625 11.96875 -13.46875 12.8125 -13.46875 C 13.425781 -13.46875 14.007812 -13.375 14.5625 -13.1875 C 14.5625 -13.570312 14.5625 -13.988281 14.5625 -14.4375 C 14.5625 -14.894531 14.554688 -15.347656 14.546875 -15.796875 C 13.203125 -15.796875 11.832031 -15.773438 10.4375 -15.734375 C 9.039062 -15.691406 7.679688 -15.640625 6.359375 -15.578125 C 5.046875 -15.515625 3.835938 -15.4375 2.734375 -15.34375 L 2.671875 -17.4375 C 3.648438 -17.445312 4.8125 -17.46875 6.15625 -17.5 C 7.507812 -17.539062 8.914062 -17.578125 10.375 -17.609375 C 11.832031 -17.648438 13.210938 -17.679688 14.515625 -17.703125 C 14.515625 -18.078125 14.507812 -18.414062 14.5 -18.71875 C 14.488281 -19.019531 14.476562 -19.257812 14.46875 -19.4375 C 14.445312 -19.71875 14.421875 -20.023438 14.390625 -20.359375 C 14.367188 -20.691406 14.335938 -20.9375 14.296875 -21.09375 L 16.734375 -21.09375 L 16.609375 -19.4375 C 16.609375 -19.238281 16.601562 -18.992188 16.59375 -18.703125 C 16.582031 -18.410156 16.578125 -18.082031 16.578125 -17.71875 L 16.96875 -17.71875 C 18.039062 -17.71875 19.085938 -17.71875 20.109375 -17.71875 C 21.140625 -17.71875 22.0625 -17.710938 22.875 -17.703125 C 23.6875 -17.703125 24.304688 -17.703125 24.734375 -17.703125 L 24.703125 -15.6875 C 23.953125 -15.726562 22.953125 -15.757812 21.703125 -15.78125 C 20.460938 -15.8125 18.867188 -15.828125 16.921875 -15.828125 Z M 16.921875 -15.828125 "/></g></g></g></g></g></svg>