<svg xmlns="http://www.w3.org/2000/svg" xmlns:xlink="http://www.w3.org/1999/xlink" width="500" zoomAndPan="magnify" viewBox="0 0 375 74.999997" height="100" preserveAspectRatio="xMidYMid meet" version="1.0"><defs><g/><clipPath id="454105f242"><path d="M 0 1.746094 L 375 1.746094 L 375 73.441406 L 0 73.441406 Z M 0 1.746094 " clip-rule="nonzero"/></clipPath><clipPath id="3cec7743f6"><path d="M 339.007812 1.746094 C 358.886719 1.746094 375 17.796875 375 37.59375 C 375 57.394531 358.886719 73.441406 339.007812 73.441406 L 35.992188 73.441406 C 16.113281 73.441406 0 57.394531 0 37.59375 C 0 17.796875 16.113281 1.746094 35.992188 1.746094 Z M 339.007812 1.746094 " clip-rule="nonzero"/></clipPath><clipPath id="3083f26569"><path d="M 0 0.746094 L 375 0.746094 L 375 72.441406 L 0 72.441406 Z M 0 0.746094 " clip-rule="nonzero"/></clipPath><clipPath id="64c93ba4da"><path d="M 339.007812 0.746094 C 358.886719 0.746094 375 16.796875 375 36.59375 C 375 56.394531 358.886719 72.441406 339.007812 72.441406 L 35.992188 72.441406 C 16.113281 72.441406 0 56.394531 0 36.59375 C 0 16.796875 16.113281 0.746094 35.992188 0.746094 Z M 339.007812 0.746094 " clip-rule="nonzero"/></clipPath><clipPath id="58f905ac03"><rect x="0" width="375" y="0" height="73"/></clipPath><clipPath id="e5ce09940b"><path d="M 0.015625 1.746094 L 375 1.746094 L 375 73.710938 L 0.015625 73.710938 Z M 0.015625 1.746094 " clip-rule="nonzero"/></clipPath><clipPath id="a582ee3024"><path d="M 338.992188 1.746094 C 358.867188 1.746094 374.980469 17.792969 374.980469 37.589844 C 374.980469 57.386719 358.867188 73.4375 338.992188 73.4375 L 36.003906 73.4375 C 16.128906 73.4375 0.015625 57.386719 0.015625 37.589844 C 0.015625 17.792969 16.128906 1.746094 36.003906 1.746094 Z M 338.992188 1.746094 " clip-rule="nonzero"/></clipPath><clipPath id="a74415c1d2"><rect x="0" width="200" y="0" height="32"/></clipPath><clipPath id="f1fbcf9b08"><rect x="0" width="375" y="0" height="75"/></clipPath></defs><g transform="matrix(1, 0, 0, 1, 0, -0.000000000000001893)"><g clip-path="url(#f1fbcf9b08)"><g clip-path="url(#454105f242)"><g clip-path="url(#3cec7743f6)"><g transform="matrix(1, 0, 0, 1, 0, 1)"><g clip-path="url(#58f905ac03)"><g clip-path="url(#3083f26569)"><g clip-path="url(#64c93ba4da)"><path fill="#eaeaea" d="M 0 0.746094 L 375.007812 0.746094 L 375.007812 72.441406 L 0 72.441406 Z M 0 0.746094 " fill-opacity="1" fill-rule="nonzero"/></g></g></g></g></g></g><g clip-path="url(#e5ce09940b)"><g clip-path="url(#a582ee3024)"><path stroke-linecap="butt" transform="matrix(0.705544, 0, 0, 0.705544, 0.00000749821, 1.746598)" fill="none" stroke-linejoin="miter" d="M 480.469538 -0.000714007 C 508.639309 -0.000714007 531.47742 22.743276 531.47742 50.802316 C 531.47742 78.861357 508.639309 101.610883 480.469538 101.610883 L 51.030017 101.610883 C 22.860246 101.610883 0.0221354 78.861357 0.0221354 50.802316 C 0.0221354 22.743276 22.860246 -0.000714007 51.030017 -0.000714007 Z M 480.469538 -0.000714007 " stroke="#a6a6a6" stroke-width="2.12602" stroke-opacity="1" stroke-miterlimit="4"/></g></g><g transform="matrix(1, 0, 0, 1, 111, 22)"><g clip-path="url(#a74415c1d2)"><g fill="#000000" fill-opacity="1"><g transform="translate(1.49201, 24.218663)"><g><path d="M 2.234375 0 L 2.234375 -16.328125 L 4.296875 -16.328125 L 4.296875 0 Z M 2.234375 0 "/></g></g></g><g fill="#000000" fill-opacity="1"><g transform="translate(8.015818, 24.218663)"><g><path d="M 5.640625 0 L 5.640625 -14.59375 L 0.6875 -14.59375 L 0.6875 -16.328125 L 12.65625 -16.328125 L 12.65625 -14.59375 L 7.703125 -14.59375 L 7.703125 0 Z M 5.640625 0 "/></g></g></g><g fill="#000000" fill-opacity="1"><g transform="translate(21.352888, 24.218663)"><g><path d="M 20.671875 -11.671875 L 19.671875 -10.203125 C 19.285156 -10.546875 18.785156 -10.90625 18.171875 -11.28125 C 17.566406 -11.664062 16.945312 -12.03125 16.3125 -12.375 C 15.6875 -12.726562 15.128906 -13.015625 14.640625 -13.234375 L 15.5 -14.609375 C 16.039062 -14.378906 16.644531 -14.082031 17.3125 -13.71875 C 17.976562 -13.363281 18.617188 -13 19.234375 -12.625 C 19.859375 -12.257812 20.335938 -11.941406 20.671875 -11.671875 Z M 12.65625 -15.015625 L 12.703125 -13.375 C 12.117188 -13.207031 11.488281 -13.050781 10.8125 -12.90625 C 10.132812 -12.769531 9.4375 -12.65625 8.71875 -12.5625 C 8.351562 -11.519531 7.90625 -10.429688 7.375 -9.296875 C 6.851562 -8.160156 6.289062 -7.066406 5.6875 -6.015625 C 5.09375 -4.960938 4.5 -4.035156 3.90625 -3.234375 L 2.15625 -4.125 C 2.78125 -4.832031 3.390625 -5.664062 3.984375 -6.625 C 4.578125 -7.582031 5.125 -8.5625 5.625 -9.5625 C 6.132812 -10.570312 6.554688 -11.503906 6.890625 -12.359375 C 6.242188 -12.316406 5.597656 -12.296875 4.953125 -12.296875 C 4.535156 -12.296875 4.109375 -12.300781 3.671875 -12.3125 C 3.234375 -12.332031 2.804688 -12.347656 2.390625 -12.359375 L 2.25 -14.03125 C 2.664062 -13.976562 3.101562 -13.9375 3.5625 -13.90625 C 4.019531 -13.882812 4.488281 -13.875 4.96875 -13.875 C 5.351562 -13.875 5.753906 -13.882812 6.171875 -13.90625 C 6.585938 -13.9375 7.003906 -13.96875 7.421875 -14 C 7.585938 -14.601562 7.738281 -15.238281 7.875 -15.90625 C 8.019531 -16.570312 8.097656 -17.203125 8.109375 -17.796875 L 10.09375 -17.625 C 9.988281 -17.21875 9.859375 -16.707031 9.703125 -16.09375 C 9.554688 -15.476562 9.394531 -14.851562 9.21875 -14.21875 C 10.40625 -14.394531 11.550781 -14.660156 12.65625 -15.015625 Z M 13.8125 -2.703125 C 13.8125 -2.847656 13.8125 -3.007812 13.8125 -3.1875 C 13.8125 -3.363281 13.804688 -3.550781 13.796875 -3.75 C 13.078125 -3.957031 12.332031 -4.0625 11.5625 -4.0625 C 10.75 -4.0625 10.097656 -3.894531 9.609375 -3.5625 C 9.117188 -3.238281 8.875 -2.820312 8.875 -2.3125 C 8.875 -1.8125 9.078125 -1.398438 9.484375 -1.078125 C 9.898438 -0.765625 10.539062 -0.609375 11.40625 -0.609375 C 12.3125 -0.609375 12.9375 -0.816406 13.28125 -1.234375 C 13.632812 -1.660156 13.8125 -2.148438 13.8125 -2.703125 Z M 13.5 -10.8125 L 15.28125 -10.8125 C 15.25 -10.34375 15.234375 -9.929688 15.234375 -9.578125 C 15.234375 -9.222656 15.242188 -8.835938 15.265625 -8.421875 C 15.273438 -8.023438 15.296875 -7.492188 15.328125 -6.828125 C 15.367188 -6.171875 15.398438 -5.503906 15.421875 -4.828125 C 16.367188 -4.492188 17.222656 -4.070312 17.984375 -3.5625 C 18.753906 -3.0625 19.421875 -2.566406 19.984375 -2.078125 L 19.03125 -0.5625 C 18.570312 -0.988281 18.046875 -1.425781 17.453125 -1.875 C 16.859375 -2.332031 16.203125 -2.734375 15.484375 -3.078125 C 15.492188 -2.910156 15.5 -2.75 15.5 -2.59375 C 15.5 -2.4375 15.5 -2.300781 15.5 -2.1875 C 15.5 -1.601562 15.363281 -1.066406 15.09375 -0.578125 C 14.832031 -0.0859375 14.414062 0.300781 13.84375 0.59375 C 13.269531 0.882812 12.53125 1.03125 11.625 1.03125 C 10.820312 1.03125 10.085938 0.910156 9.421875 0.671875 C 8.753906 0.441406 8.21875 0.0976562 7.8125 -0.359375 C 7.414062 -0.828125 7.21875 -1.425781 7.21875 -2.15625 C 7.21875 -2.84375 7.410156 -3.429688 7.796875 -3.921875 C 8.179688 -4.421875 8.707031 -4.804688 9.375 -5.078125 C 10.050781 -5.359375 10.800781 -5.5 11.625 -5.5 C 12.382812 -5.5 13.082031 -5.429688 13.71875 -5.296875 C 13.695312 -6.203125 13.660156 -7.148438 13.609375 -8.140625 C 13.566406 -9.140625 13.53125 -10.03125 13.5 -10.8125 Z M 13.5 -10.8125 "/></g></g></g><g fill="#000000" fill-opacity="1"><g transform="translate(43.618444, 24.218663)"><g><path d="M 12.34375 -16.75 C 12.132812 -16.488281 11.894531 -16.132812 11.625 -15.6875 C 11.394531 -15.3125 11.097656 -14.804688 10.734375 -14.171875 C 10.367188 -13.546875 9.976562 -12.867188 9.5625 -12.140625 C 9.15625 -11.410156 8.757812 -10.691406 8.375 -9.984375 C 7.988281 -9.285156 7.65625 -8.664062 7.375 -8.125 C 7.90625 -8.601562 8.445312 -8.945312 9 -9.15625 C 9.550781 -9.363281 10.085938 -9.46875 10.609375 -9.46875 C 11.347656 -9.46875 11.957031 -9.238281 12.4375 -8.78125 C 12.925781 -8.320312 13.1875 -7.65625 13.21875 -6.78125 C 13.238281 -6.125 13.242188 -5.410156 13.234375 -4.640625 C 13.234375 -3.878906 13.253906 -3.234375 13.296875 -2.703125 C 13.328125 -2.148438 13.507812 -1.75 13.84375 -1.5 C 14.175781 -1.257812 14.582031 -1.140625 15.0625 -1.140625 C 15.664062 -1.140625 16.210938 -1.304688 16.703125 -1.640625 C 17.203125 -1.972656 17.632812 -2.40625 18 -2.9375 C 18.375 -3.476562 18.6875 -4.0625 18.9375 -4.6875 C 19.1875 -5.320312 19.390625 -5.925781 19.546875 -6.5 L 21.015625 -5.328125 C 20.628906 -4.140625 20.148438 -3.09375 19.578125 -2.1875 C 19.015625 -1.28125 18.335938 -0.566406 17.546875 -0.046875 C 16.765625 0.460938 15.835938 0.71875 14.765625 0.71875 C 13.992188 0.71875 13.378906 0.570312 12.921875 0.28125 C 12.460938 -0.0078125 12.128906 -0.367188 11.921875 -0.796875 C 11.722656 -1.234375 11.613281 -1.664062 11.59375 -2.09375 C 11.539062 -2.75 11.515625 -3.460938 11.515625 -4.234375 C 11.515625 -5.003906 11.5 -5.6875 11.46875 -6.28125 C 11.425781 -7.3125 10.894531 -7.828125 9.875 -7.828125 C 9.28125 -7.828125 8.710938 -7.648438 8.171875 -7.296875 C 7.628906 -6.953125 7.132812 -6.507812 6.6875 -5.96875 C 6.25 -5.4375 5.882812 -4.878906 5.59375 -4.296875 C 5.425781 -3.972656 5.242188 -3.578125 5.046875 -3.109375 C 4.859375 -2.648438 4.675781 -2.179688 4.5 -1.703125 C 4.320312 -1.222656 4.160156 -0.765625 4.015625 -0.328125 C 3.878906 0.0976562 3.773438 0.445312 3.703125 0.71875 L 1.765625 0.0625 C 2.023438 -0.675781 2.367188 -1.523438 2.796875 -2.484375 C 3.234375 -3.453125 3.710938 -4.472656 4.234375 -5.546875 C 4.753906 -6.628906 5.28125 -7.703125 5.8125 -8.765625 C 6.351562 -9.828125 6.867188 -10.828125 7.359375 -11.765625 C 7.859375 -12.710938 8.300781 -13.539062 8.6875 -14.25 C 9.070312 -14.957031 9.363281 -15.488281 9.5625 -15.84375 C 9.675781 -16.113281 9.800781 -16.382812 9.9375 -16.65625 C 10.082031 -16.925781 10.222656 -17.226562 10.359375 -17.5625 Z M 12.34375 -16.75 "/></g></g></g><g fill="#000000" fill-opacity="1"><g transform="translate(64.770249, 24.218663)"><g><path d="M 16.3125 -11.5625 C 16.488281 -11.320312 16.6875 -11.019531 16.90625 -10.65625 C 17.132812 -10.289062 17.359375 -9.914062 17.578125 -9.53125 C 17.796875 -9.144531 17.984375 -8.789062 18.140625 -8.46875 L 17 -7.9375 C 16.75 -8.46875 16.46875 -9.007812 16.15625 -9.5625 C 15.84375 -10.113281 15.515625 -10.617188 15.171875 -11.078125 Z M 18.734375 -12.5 C 18.910156 -12.257812 19.117188 -11.960938 19.359375 -11.609375 C 19.597656 -11.253906 19.832031 -10.882812 20.0625 -10.5 C 20.289062 -10.113281 20.492188 -9.753906 20.671875 -9.421875 L 19.515625 -8.890625 C 19.253906 -9.421875 18.960938 -9.953125 18.640625 -10.484375 C 18.316406 -11.023438 17.976562 -11.523438 17.625 -11.984375 Z M 1.84375 -14.65625 C 2.28125 -14.675781 2.664062 -14.695312 3 -14.71875 C 3.332031 -14.738281 3.601562 -14.753906 3.8125 -14.765625 C 4.300781 -14.816406 5.046875 -14.890625 6.046875 -14.984375 C 7.046875 -15.078125 8.195312 -15.179688 9.5 -15.296875 C 10.800781 -15.421875 12.128906 -15.539062 13.484375 -15.65625 C 14.679688 -15.757812 15.789062 -15.84375 16.8125 -15.90625 C 17.832031 -15.96875 18.703125 -16.015625 19.421875 -16.046875 L 19.421875 -14.265625 C 19.015625 -14.265625 18.546875 -14.253906 18.015625 -14.234375 C 17.484375 -14.222656 16.960938 -14.191406 16.453125 -14.140625 C 15.941406 -14.097656 15.492188 -14.019531 15.109375 -13.90625 C 14.316406 -13.65625 13.609375 -13.273438 12.984375 -12.765625 C 12.359375 -12.265625 11.832031 -11.679688 11.40625 -11.015625 C 10.976562 -10.359375 10.648438 -9.675781 10.421875 -8.96875 C 10.191406 -8.257812 10.078125 -7.578125 10.078125 -6.921875 C 10.078125 -5.859375 10.296875 -4.960938 10.734375 -4.234375 C 11.179688 -3.503906 11.773438 -2.914062 12.515625 -2.46875 C 13.265625 -2.03125 14.085938 -1.707031 14.984375 -1.5 C 15.878906 -1.289062 16.773438 -1.171875 17.671875 -1.140625 L 17.015625 0.734375 C 15.992188 0.691406 14.96875 0.515625 13.9375 0.203125 C 12.914062 -0.0976562 11.976562 -0.539062 11.125 -1.125 C 10.269531 -1.707031 9.582031 -2.445312 9.0625 -3.34375 C 8.539062 -4.25 8.28125 -5.316406 8.28125 -6.546875 C 8.28125 -7.691406 8.476562 -8.753906 8.875 -9.734375 C 9.28125 -10.710938 9.796875 -11.566406 10.421875 -12.296875 C 11.046875 -13.023438 11.703125 -13.59375 12.390625 -14 C 12.003906 -13.945312 11.472656 -13.882812 10.796875 -13.8125 C 10.128906 -13.75 9.394531 -13.671875 8.59375 -13.578125 C 7.789062 -13.492188 6.976562 -13.398438 6.15625 -13.296875 C 5.332031 -13.191406 4.5625 -13.09375 3.84375 -13 C 3.125 -12.90625 2.523438 -12.804688 2.046875 -12.703125 Z M 1.84375 -14.65625 "/></g></g></g><g fill="#000000" fill-opacity="1"><g transform="translate(87.035805, 24.218663)"><g><path d="M 15.078125 -9.0625 L 17.0625 -9.46875 C 17.820312 -8.632812 18.390625 -7.8125 18.765625 -7 C 19.148438 -6.195312 19.34375 -5.316406 19.34375 -4.359375 C 19.34375 -3.273438 19.03125 -2.335938 18.40625 -1.546875 C 17.789062 -0.753906 16.9375 -0.148438 15.84375 0.265625 C 14.757812 0.691406 13.488281 0.90625 12.03125 0.90625 C 11.03125 0.90625 10.117188 0.742188 9.296875 0.421875 C 8.472656 0.109375 7.816406 -0.40625 7.328125 -1.125 C 6.835938 -1.84375 6.59375 -2.804688 6.59375 -4.015625 C 6.59375 -4.304688 6.609375 -4.671875 6.640625 -5.109375 C 6.671875 -5.546875 6.71875 -6.023438 6.78125 -6.546875 C 5.957031 -6.617188 5.148438 -6.71875 4.359375 -6.84375 C 3.578125 -6.976562 2.851562 -7.148438 2.1875 -7.359375 L 2.265625 -9.046875 C 2.992188 -8.796875 3.757812 -8.597656 4.5625 -8.453125 C 5.363281 -8.316406 6.148438 -8.21875 6.921875 -8.15625 C 7.003906 -8.8125 7.085938 -9.472656 7.171875 -10.140625 C 7.265625 -10.816406 7.347656 -11.476562 7.421875 -12.125 C 6.628906 -12.195312 5.820312 -12.296875 5 -12.421875 C 4.175781 -12.546875 3.414062 -12.695312 2.71875 -12.875 L 2.8125 -14.53125 C 3.507812 -14.300781 4.28125 -14.117188 5.125 -13.984375 C 5.96875 -13.859375 6.800781 -13.769531 7.625 -13.71875 C 7.675781 -14.164062 7.722656 -14.585938 7.765625 -14.984375 C 7.816406 -15.378906 7.847656 -15.722656 7.859375 -16.015625 C 7.890625 -16.273438 7.910156 -16.53125 7.921875 -16.78125 C 7.929688 -17.03125 7.921875 -17.289062 7.890625 -17.5625 L 9.890625 -17.453125 C 9.816406 -17.148438 9.753906 -16.878906 9.703125 -16.640625 C 9.660156 -16.398438 9.628906 -16.15625 9.609375 -15.90625 C 9.578125 -15.625 9.535156 -15.289062 9.484375 -14.90625 C 9.429688 -14.53125 9.375 -14.113281 9.3125 -13.65625 C 10.988281 -13.65625 12.472656 -13.742188 13.765625 -13.921875 L 13.71875 -12.25 C 13.019531 -12.195312 12.316406 -12.144531 11.609375 -12.09375 C 10.910156 -12.050781 10.125 -12.03125 9.25 -12.03125 L 9.09375 -12.03125 C 9 -11.394531 8.910156 -10.738281 8.828125 -10.0625 C 8.753906 -9.382812 8.675781 -8.726562 8.59375 -8.09375 L 9.03125 -8.09375 C 9.769531 -8.09375 10.523438 -8.109375 11.296875 -8.140625 C 12.066406 -8.179688 12.835938 -8.253906 13.609375 -8.359375 L 13.5625 -6.65625 C 12.84375 -6.582031 12.128906 -6.53125 11.421875 -6.5 C 10.710938 -6.476562 9.988281 -6.46875 9.25 -6.46875 C 9.113281 -6.46875 8.976562 -6.46875 8.84375 -6.46875 C 8.707031 -6.46875 8.570312 -6.46875 8.4375 -6.46875 C 8.394531 -6.03125 8.363281 -5.617188 8.34375 -5.234375 C 8.320312 -4.859375 8.3125 -4.539062 8.3125 -4.28125 C 8.3125 -3.238281 8.613281 -2.40625 9.21875 -1.78125 C 9.832031 -1.15625 10.769531 -0.84375 12.03125 -0.84375 C 13.707031 -0.84375 15.039062 -1.175781 16.03125 -1.84375 C 17.019531 -2.519531 17.515625 -3.425781 17.515625 -4.5625 C 17.515625 -5.3125 17.3125 -6.078125 16.90625 -6.859375 C 16.507812 -7.648438 15.898438 -8.382812 15.078125 -9.0625 Z M 15.078125 -9.0625 "/></g></g></g><g fill="#000000" fill-opacity="1"><g transform="translate(109.301361, 24.218663)"><g><path d="M 10.40625 -5.390625 L 9.875 -14.03125 L 9.796875 -16.671875 L 12.484375 -16.671875 L 12.4375 -14.03125 L 11.875 -5.390625 Z M 11.140625 0.109375 C 10.648438 0.109375 10.226562 -0.046875 9.875 -0.359375 C 9.53125 -0.671875 9.359375 -1.101562 9.359375 -1.65625 C 9.359375 -2.164062 9.53125 -2.582031 9.875 -2.90625 C 10.226562 -3.226562 10.648438 -3.390625 11.140625 -3.390625 C 11.628906 -3.390625 12.046875 -3.226562 12.390625 -2.90625 C 12.742188 -2.582031 12.921875 -2.164062 12.921875 -1.65625 C 12.921875 -1.101562 12.742188 -0.671875 12.390625 -0.359375 C 12.046875 -0.046875 11.628906 0.109375 11.140625 0.109375 Z M 11.140625 0.109375 "/></g></g></g><g fill="#000000" fill-opacity="1"><g transform="translate(131.566916, 24.218663)"><g><path d="M 16.671875 -14.890625 L 17.625 -13.25 C 17.382812 -13.101562 17.125 -12.953125 16.84375 -12.796875 C 16.5625 -12.640625 16.257812 -12.484375 15.9375 -12.328125 C 15.445312 -12.066406 14.8125 -11.742188 14.03125 -11.359375 C 13.25 -10.972656 12.429688 -10.550781 11.578125 -10.09375 C 10.734375 -9.632812 9.945312 -9.164062 9.21875 -8.6875 C 8.195312 -8.019531 7.394531 -7.316406 6.8125 -6.578125 C 6.238281 -5.847656 5.953125 -5.066406 5.953125 -4.234375 C 5.953125 -3.328125 6.382812 -2.601562 7.25 -2.0625 C 8.125 -1.53125 9.425781 -1.265625 11.15625 -1.265625 C 11.957031 -1.265625 12.789062 -1.296875 13.65625 -1.359375 C 14.53125 -1.429688 15.367188 -1.523438 16.171875 -1.640625 C 16.972656 -1.753906 17.65625 -1.882812 18.21875 -2.03125 L 18.21875 -0.015625 C 17.394531 0.128906 16.375 0.253906 15.15625 0.359375 C 13.9375 0.460938 12.632812 0.515625 11.25 0.515625 C 9.875 0.515625 8.644531 0.363281 7.5625 0.0625 C 6.488281 -0.226562 5.640625 -0.707031 5.015625 -1.375 C 4.398438 -2.050781 4.09375 -2.9375 4.09375 -4.03125 C 4.09375 -5.175781 4.4375 -6.210938 5.125 -7.140625 C 5.8125 -8.066406 6.738281 -8.941406 7.90625 -9.765625 C 7.40625 -10.671875 6.875 -11.726562 6.3125 -12.9375 C 5.757812 -14.144531 5.222656 -15.351562 4.703125 -16.5625 L 6.46875 -17.265625 C 6.90625 -16.066406 7.390625 -14.894531 7.921875 -13.75 C 8.453125 -12.613281 8.953125 -11.609375 9.421875 -10.734375 C 10.117188 -11.148438 10.820312 -11.550781 11.53125 -11.9375 C 12.25 -12.320312 12.921875 -12.675781 13.546875 -13 C 14.171875 -13.332031 14.679688 -13.613281 15.078125 -13.84375 C 15.410156 -14.019531 15.695312 -14.1875 15.9375 -14.34375 C 16.1875 -14.507812 16.429688 -14.691406 16.671875 -14.890625 Z M 16.671875 -14.890625 "/></g></g></g><g fill="#000000" fill-opacity="1"><g transform="translate(153.832472, 24.218663)"><g><path d="M 3.78125 -17.109375 L 5.75 -16.953125 C 5.6875 -16.773438 5.613281 -16.535156 5.53125 -16.234375 C 5.457031 -15.929688 5.40625 -15.675781 5.375 -15.46875 C 5.269531 -14.957031 5.148438 -14.320312 5.015625 -13.5625 C 4.890625 -12.8125 4.769531 -12.015625 4.65625 -11.171875 C 4.539062 -10.335938 4.445312 -9.519531 4.375 -8.71875 C 4.3125 -7.914062 4.28125 -7.203125 4.28125 -6.578125 C 4.28125 -6.035156 4.289062 -5.53125 4.3125 -5.0625 C 4.34375 -4.59375 4.398438 -4.09375 4.484375 -3.5625 C 4.660156 -4.070312 4.863281 -4.625 5.09375 -5.21875 C 5.320312 -5.8125 5.53125 -6.332031 5.71875 -6.78125 L 6.65625 -6.03125 C 6.476562 -5.53125 6.28125 -4.96875 6.0625 -4.34375 C 5.851562 -3.71875 5.660156 -3.125 5.484375 -2.5625 C 5.304688 -2 5.179688 -1.53125 5.109375 -1.15625 C 5.078125 -1.007812 5.046875 -0.84375 5.015625 -0.65625 C 4.984375 -0.46875 4.972656 -0.304688 4.984375 -0.171875 C 4.984375 -0.0664062 4.988281 0.0507812 5 0.1875 C 5.019531 0.332031 5.039062 0.460938 5.0625 0.578125 L 3.46875 0.71875 C 3.25 -0.0703125 3.050781 -1.066406 2.875 -2.265625 C 2.707031 -3.460938 2.625 -4.800781 2.625 -6.28125 C 2.625 -7.082031 2.660156 -7.925781 2.734375 -8.8125 C 2.816406 -9.707031 2.914062 -10.582031 3.03125 -11.4375 C 3.144531 -12.289062 3.257812 -13.070312 3.375 -13.78125 C 3.488281 -14.5 3.570312 -15.085938 3.625 -15.546875 C 3.675781 -15.804688 3.710938 -16.070312 3.734375 -16.34375 C 3.765625 -16.613281 3.78125 -16.867188 3.78125 -17.109375 Z M 15.046875 -3.4375 C 15.046875 -3.539062 15.046875 -3.65625 15.046875 -3.78125 C 15.046875 -3.90625 15.035156 -4.035156 15.015625 -4.171875 C 14.316406 -4.398438 13.566406 -4.515625 12.765625 -4.515625 C 11.953125 -4.515625 11.285156 -4.351562 10.765625 -4.03125 C 10.242188 -3.707031 9.984375 -3.285156 9.984375 -2.765625 C 9.984375 -2.210938 10.226562 -1.785156 10.71875 -1.484375 C 11.207031 -1.191406 11.847656 -1.046875 12.640625 -1.046875 C 13.566406 -1.046875 14.195312 -1.257812 14.53125 -1.6875 C 14.875 -2.125 15.046875 -2.707031 15.046875 -3.4375 Z M 21.0625 -2.34375 L 20.09375 -0.890625 C 19.539062 -1.410156 18.988281 -1.878906 18.4375 -2.296875 C 17.894531 -2.722656 17.34375 -3.09375 16.78125 -3.40625 L 16.78125 -3.015625 C 16.78125 -2.398438 16.664062 -1.816406 16.4375 -1.265625 C 16.21875 -0.722656 15.828125 -0.273438 15.265625 0.078125 C 14.710938 0.429688 13.941406 0.609375 12.953125 0.609375 C 11.460938 0.609375 10.320312 0.320312 9.53125 -0.25 C 8.75 -0.820312 8.359375 -1.597656 8.359375 -2.578125 C 8.359375 -3.203125 8.535156 -3.765625 8.890625 -4.265625 C 9.242188 -4.773438 9.757812 -5.179688 10.4375 -5.484375 C 11.113281 -5.796875 11.9375 -5.953125 12.90625 -5.953125 C 13.644531 -5.953125 14.328125 -5.882812 14.953125 -5.75 C 14.921875 -6.59375 14.878906 -7.515625 14.828125 -8.515625 C 14.773438 -9.523438 14.742188 -10.484375 14.734375 -11.390625 C 14.367188 -11.367188 14.007812 -11.351562 13.65625 -11.34375 C 13.3125 -11.34375 12.960938 -11.34375 12.609375 -11.34375 C 11.984375 -11.34375 11.375 -11.359375 10.78125 -11.390625 C 10.1875 -11.421875 9.5625 -11.445312 8.90625 -11.46875 L 8.90625 -13.171875 C 10.15625 -13.035156 11.40625 -12.96875 12.65625 -12.96875 C 13 -12.96875 13.34375 -12.96875 13.6875 -12.96875 C 14.039062 -12.976562 14.390625 -12.992188 14.734375 -13.015625 L 14.734375 -15.75 C 14.734375 -15.945312 14.71875 -16.171875 14.6875 -16.421875 C 14.664062 -16.671875 14.640625 -16.894531 14.609375 -17.09375 L 16.640625 -17.09375 C 16.585938 -16.675781 16.546875 -16.238281 16.515625 -15.78125 C 16.492188 -15.476562 16.476562 -15.085938 16.46875 -14.609375 C 16.46875 -14.140625 16.457031 -13.644531 16.4375 -13.125 C 17.113281 -13.164062 17.769531 -13.226562 18.40625 -13.3125 C 19.039062 -13.40625 19.65625 -13.515625 20.25 -13.640625 L 20.25 -11.890625 C 19.65625 -11.785156 19.035156 -11.703125 18.390625 -11.640625 C 17.742188 -11.578125 17.09375 -11.519531 16.4375 -11.46875 C 16.457031 -10.375 16.492188 -9.285156 16.546875 -8.203125 C 16.609375 -7.128906 16.660156 -6.132812 16.703125 -5.21875 C 17.597656 -4.851562 18.398438 -4.410156 19.109375 -3.890625 C 19.828125 -3.378906 20.476562 -2.863281 21.0625 -2.34375 Z M 21.0625 -2.34375 "/></g></g></g><g fill="#000000" fill-opacity="1"><g transform="translate(176.098027, 24.218663)"><g><path d="M 9.921875 -5.390625 C 9.796875 -6.015625 9.820312 -6.5625 10 -7.03125 C 10.175781 -7.507812 10.4375 -7.945312 10.78125 -8.34375 C 11.132812 -8.738281 11.519531 -9.101562 11.9375 -9.4375 C 12.351562 -9.78125 12.753906 -10.113281 13.140625 -10.4375 C 13.523438 -10.769531 13.84375 -11.113281 14.09375 -11.46875 C 14.351562 -11.832031 14.484375 -12.222656 14.484375 -12.640625 C 14.484375 -13.410156 14.203125 -14.039062 13.640625 -14.53125 C 13.085938 -15.03125 12.238281 -15.28125 11.09375 -15.28125 C 10.332031 -15.28125 9.597656 -15.113281 8.890625 -14.78125 C 8.179688 -14.445312 7.515625 -13.9375 6.890625 -13.25 L 5.6875 -14.375 C 6.425781 -15.15625 7.242188 -15.78125 8.140625 -16.25 C 9.035156 -16.71875 10.09375 -16.953125 11.3125 -16.953125 C 12.894531 -16.953125 14.148438 -16.578125 15.078125 -15.828125 C 16.003906 -15.078125 16.46875 -14.066406 16.46875 -12.796875 C 16.46875 -12.222656 16.335938 -11.722656 16.078125 -11.296875 C 15.828125 -10.867188 15.503906 -10.472656 15.109375 -10.109375 C 14.722656 -9.753906 14.3125 -9.410156 13.875 -9.078125 C 13.445312 -8.742188 13.050781 -8.398438 12.6875 -8.046875 C 12.320312 -7.691406 12.046875 -7.300781 11.859375 -6.875 C 11.679688 -6.445312 11.640625 -5.953125 11.734375 -5.390625 Z M 9.0625 -1.65625 C 9.0625 -2.1875 9.238281 -2.609375 9.59375 -2.921875 C 9.957031 -3.234375 10.382812 -3.390625 10.875 -3.390625 C 11.363281 -3.390625 11.78125 -3.234375 12.125 -2.921875 C 12.476562 -2.609375 12.65625 -2.1875 12.65625 -1.65625 C 12.65625 -1.113281 12.476562 -0.679688 12.125 -0.359375 C 11.78125 -0.046875 11.363281 0.109375 10.875 0.109375 C 10.382812 0.109375 9.957031 -0.046875 9.59375 -0.359375 C 9.238281 -0.679688 9.0625 -1.113281 9.0625 -1.65625 Z M 9.0625 -1.65625 "/></g></g></g></g></g></g></g><g fill="#ff3a3a" fill-opacity="1"><g transform="translate(25.713444, 51.991521)"><g><path d="M 12.78125 -10.40625 L 6.796875 -10.40625 C 6.617188 -11.519531 6.6875 -12.578125 7 -13.578125 C 7.3125 -14.585938 7.753906 -15.457031 8.328125 -16.1875 C 8.910156 -16.914062 9.492188 -17.601562 10.078125 -18.25 C 10.671875 -18.90625 11.1875 -19.550781 11.625 -20.1875 C 12.070312 -20.832031 12.296875 -21.445312 12.296875 -22.03125 C 12.296875 -22.851562 12.035156 -23.484375 11.515625 -23.921875 C 11.003906 -24.367188 10.332031 -24.59375 9.5 -24.59375 C 8.21875 -24.59375 6.910156 -23.925781 5.578125 -22.59375 L 1.8125 -26.0625 C 4.144531 -28.78125 6.984375 -30.140625 10.328125 -30.140625 C 12.867188 -30.140625 14.929688 -29.503906 16.515625 -28.234375 C 18.097656 -26.960938 18.890625 -25.046875 18.890625 -22.484375 C 18.890625 -21.503906 18.664062 -20.570312 18.21875 -19.6875 C 17.769531 -18.8125 17.226562 -18.03125 16.59375 -17.34375 C 15.96875 -16.664062 15.347656 -15.992188 14.734375 -15.328125 C 14.117188 -14.660156 13.613281 -13.90625 13.21875 -13.0625 C 12.832031 -12.226562 12.6875 -11.34375 12.78125 -10.40625 Z M 9.765625 0.53125 C 8.585938 0.53125 7.613281 0.125 6.84375 -0.6875 C 6.082031 -1.507812 5.703125 -2.523438 5.703125 -3.734375 C 5.703125 -4.910156 6.082031 -5.914062 6.84375 -6.75 C 7.613281 -7.582031 8.585938 -8 9.765625 -8 C 10.921875 -8 11.894531 -7.582031 12.6875 -6.75 C 13.476562 -5.914062 13.875 -4.910156 13.875 -3.734375 C 13.875 -2.554688 13.476562 -1.550781 12.6875 -0.71875 C 11.894531 0.113281 10.921875 0.53125 9.765625 0.53125 Z M 9.765625 0.53125 "/></g></g></g></svg>