<svg xmlns="http://www.w3.org/2000/svg" xmlns:xlink="http://www.w3.org/1999/xlink" width="500" zoomAndPan="magnify" viewBox="0 0 375 74.999997" height="100" preserveAspectRatio="xMidYMid meet" version="1.0"><defs><g/><clipPath id="c5a6523129"><path d="M 0 1.746094 L 375 1.746094 L 375 73.730469 L 0 73.730469 Z M 0 1.746094 " clip-rule="nonzero"/></clipPath><clipPath id="7138c11b75"><path d="M 339.007812 1.746094 C 358.886719 1.746094 375 17.859375 375 37.738281 C 375 57.617188 358.886719 73.730469 339.007812 73.730469 L 35.992188 73.730469 C 16.113281 73.730469 0 57.617188 0 37.738281 C 0 17.859375 16.113281 1.746094 35.992188 1.746094 Z M 339.007812 1.746094 " clip-rule="nonzero"/></clipPath><clipPath id="49a59f7960"><path d="M 0 0.746094 L 375 0.746094 L 375 72.730469 L 0 72.730469 Z M 0 0.746094 " clip-rule="nonzero"/></clipPath><clipPath id="269c569fe5"><path d="M 339.007812 0.746094 C 358.886719 0.746094 375 16.859375 375 36.738281 C 375 56.617188 358.886719 72.730469 339.007812 72.730469 L 35.992188 72.730469 C 16.113281 72.730469 0 56.617188 0 36.738281 C 0 16.859375 16.113281 0.746094 35.992188 0.746094 Z M 339.007812 0.746094 " clip-rule="nonzero"/></clipPath><clipPath id="a1d0abfeb4"><rect x="0" width="375" y="0" height="73"/></clipPath><clipPath id="6ede389e7a"><path d="M 0.0234375 1.746094 L 375 1.746094 L 375 73.710938 L 0.0234375 73.710938 Z M 0.0234375 1.746094 " clip-rule="nonzero"/></clipPath><clipPath id="6859f122db"><path d="M 338.984375 1.746094 C 358.863281 1.746094 374.972656 17.859375 374.972656 37.734375 C 374.972656 57.609375 358.863281 73.722656 338.984375 73.722656 L 36.011719 73.722656 C 16.132812 73.722656 0.0234375 57.609375 0.0234375 37.734375 C 0.0234375 17.859375 16.132812 1.746094 36.011719 1.746094 Z M 338.984375 1.746094 " clip-rule="nonzero"/></clipPath><clipPath id="201d64b792"><rect x="0" width="47" y="0" height="32"/></clipPath><clipPath id="ad78b1c6a9"><rect x="0" width="375" y="0" height="75"/></clipPath></defs><g transform="matrix(1, 0, 0, 1, 0, -0.000000000000001893)"><g clip-path="url(#ad78b1c6a9)"><g clip-path="url(#c5a6523129)"><g clip-path="url(#7138c11b75)"><g transform="matrix(1, 0, 0, 1, 0, 1)"><g clip-path="url(#a1d0abfeb4)"><g clip-path="url(#49a59f7960)"><g clip-path="url(#269c569fe5)"><path fill="#eaeaea" d="M 0 0.746094 L 375.113281 0.746094 L 375.113281 72.730469 L 0 72.730469 Z M 0 0.746094 " fill-opacity="1" fill-rule="nonzero"/></g></g></g></g></g></g><g clip-path="url(#6ede389e7a)"><g clip-path="url(#6859f122db)"><path stroke-linecap="butt" transform="matrix(0.705543, 0, 0, 0.705543, 0.0000075, 1.746598)" fill="none" stroke-linejoin="miter" d="M 480.458514 -0.000714008 C 508.633825 -0.000714008 531.466401 22.837399 531.466401 51.007172 C 531.466401 79.176946 508.633825 102.015059 480.458514 102.015059 L 51.041095 102.015059 C 22.865785 102.015059 0.0332084 79.176946 0.0332084 51.007172 C 0.0332084 22.837399 22.865785 -0.000714008 51.041095 -0.000714008 Z M 480.458514 -0.000714008 " stroke="#a6a6a6" stroke-width="2.12602" stroke-opacity="1" stroke-miterlimit="4"/></g></g><g transform="matrix(1, 0, 0, 1, 160, 22)"><g clip-path="url(#201d64b792)"><g fill="#000000" fill-opacity="1"><g transform="translate(1.283619, 24.363169)"><g><path d="M 17.046875 -15.28125 L 15.953125 -14.125 C 15.648438 -14.46875 15.257812 -14.84375 14.78125 -15.25 C 14.300781 -15.65625 13.78125 -16.054688 13.21875 -16.453125 C 12.664062 -16.847656 12.125 -17.191406 11.59375 -17.484375 L 12.59375 -18.53125 C 13.125 -18.25 13.671875 -17.921875 14.234375 -17.546875 C 14.796875 -17.171875 15.328125 -16.785156 15.828125 -16.390625 C 16.328125 -16.003906 16.734375 -15.632812 17.046875 -15.28125 Z M 9.359375 -3.609375 L 8.0625 -4.234375 C 8.414062 -4.785156 8.703125 -5.429688 8.921875 -6.171875 C 9.148438 -6.910156 9.332031 -7.691406 9.46875 -8.515625 C 9.613281 -9.347656 9.71875 -10.15625 9.78125 -10.9375 L 11.125 -10.671875 C 11.039062 -9.867188 10.929688 -9.03125 10.796875 -8.15625 C 10.671875 -7.289062 10.492188 -6.460938 10.265625 -5.671875 C 10.035156 -4.878906 9.734375 -4.191406 9.359375 -3.609375 Z M 8.9375 -6.90625 L 7.9375 -5.703125 C 7.78125 -6.003906 7.535156 -6.398438 7.203125 -6.890625 C 6.867188 -7.378906 6.53125 -7.851562 6.1875 -8.3125 L 6.1875 1.671875 L 4.609375 1.671875 L 4.609375 -8.40625 C 4.191406 -7.226562 3.71875 -6.09375 3.1875 -5 C 2.664062 -3.90625 2.144531 -3.003906 1.625 -2.296875 C 1.539062 -2.535156 1.40625 -2.796875 1.21875 -3.078125 C 1.039062 -3.367188 0.882812 -3.613281 0.75 -3.8125 C 1.1875 -4.34375 1.625 -4.992188 2.0625 -5.765625 C 2.5 -6.535156 2.90625 -7.363281 3.28125 -8.25 C 3.664062 -9.132812 3.984375 -10 4.234375 -10.84375 L 1.0625 -10.84375 L 1.0625 -12.390625 L 4.609375 -12.390625 L 4.609375 -15.8125 C 4.085938 -15.707031 3.566406 -15.609375 3.046875 -15.515625 C 2.523438 -15.421875 2.015625 -15.335938 1.515625 -15.265625 C 1.472656 -15.453125 1.398438 -15.664062 1.296875 -15.90625 C 1.203125 -16.144531 1.101562 -16.351562 1 -16.53125 C 1.800781 -16.664062 2.617188 -16.820312 3.453125 -17 C 4.296875 -17.175781 5.097656 -17.367188 5.859375 -17.578125 C 6.617188 -17.796875 7.25 -18.019531 7.75 -18.25 L 8.90625 -17.046875 C 8.519531 -16.878906 8.097656 -16.722656 7.640625 -16.578125 C 7.179688 -16.429688 6.695312 -16.296875 6.1875 -16.171875 L 6.1875 -12.390625 L 8.9375 -12.390625 L 8.9375 -10.84375 L 6.1875 -10.84375 L 6.1875 -9.9375 C 6.351562 -9.789062 6.566406 -9.570312 6.828125 -9.28125 C 7.085938 -8.988281 7.363281 -8.6875 7.65625 -8.375 C 7.945312 -8.0625 8.207031 -7.769531 8.4375 -7.5 C 8.664062 -7.238281 8.832031 -7.039062 8.9375 -6.90625 Z M 21.65625 -4.671875 L 20.171875 -4.234375 C 20.109375 -4.796875 19.976562 -5.429688 19.78125 -6.140625 C 19.59375 -6.859375 19.363281 -7.59375 19.09375 -8.34375 C 18.820312 -9.09375 18.523438 -9.800781 18.203125 -10.46875 C 17.617188 -9.175781 16.957031 -7.945312 16.21875 -6.78125 C 15.488281 -5.613281 14.664062 -4.503906 13.75 -3.453125 L 13.75 -1.03125 C 13.75 -0.582031 13.800781 -0.289062 13.90625 -0.15625 C 14.019531 -0.0195312 14.285156 0.046875 14.703125 0.046875 L 17.375 0.046875 C 17.644531 0.046875 17.84375 -0.046875 17.96875 -0.234375 C 18.09375 -0.421875 18.179688 -0.757812 18.234375 -1.25 C 18.285156 -1.75 18.328125 -2.460938 18.359375 -3.390625 C 18.566406 -3.234375 18.804688 -3.097656 19.078125 -2.984375 C 19.359375 -2.867188 19.609375 -2.773438 19.828125 -2.703125 C 19.765625 -1.628906 19.660156 -0.785156 19.515625 -0.171875 C 19.378906 0.441406 19.15625 0.878906 18.84375 1.140625 C 18.53125 1.398438 18.085938 1.53125 17.515625 1.53125 L 14.484375 1.53125 C 13.867188 1.53125 13.390625 1.457031 13.046875 1.3125 C 12.710938 1.164062 12.476562 0.90625 12.34375 0.53125 C 12.207031 0.164062 12.140625 -0.351562 12.140625 -1.03125 L 12.140625 -1.8125 C 11.585938 -1.300781 11.007812 -0.800781 10.40625 -0.3125 C 9.8125 0.164062 9.179688 0.617188 8.515625 1.046875 C 8.410156 0.867188 8.238281 0.664062 8 0.4375 C 7.757812 0.207031 7.535156 0.03125 7.328125 -0.09375 C 8.253906 -0.664062 9.117188 -1.285156 9.921875 -1.953125 C 10.722656 -2.628906 11.460938 -3.332031 12.140625 -4.0625 L 12.140625 -14.15625 L 13.75 -14.15625 L 13.75 -5.953125 C 15.007812 -7.597656 16.054688 -9.394531 16.890625 -11.34375 C 17.734375 -13.289062 18.394531 -15.335938 18.875 -17.484375 L 20.40625 -17.140625 C 19.882812 -14.941406 19.21875 -12.875 18.40625 -10.9375 L 19.40625 -11.234375 C 19.78125 -10.546875 20.117188 -9.804688 20.421875 -9.015625 C 20.722656 -8.234375 20.984375 -7.460938 21.203125 -6.703125 C 21.429688 -5.941406 21.582031 -5.265625 21.65625 -4.671875 Z M 21.65625 -4.671875 "/></g></g></g><g fill="#000000" fill-opacity="1"><g transform="translate(23.549174, 24.363169)"><g><path d="M 3.40625 -15.234375 L 3.40625 -12.40625 L 1.8125 -12.40625 L 1.8125 -16.734375 L 10.25 -16.734375 L 10.25 -18.625 L 11.921875 -18.625 L 11.921875 -16.734375 L 20.546875 -16.734375 L 20.546875 -12.40625 L 18.875 -12.40625 L 18.875 -15.234375 Z M 12.5625 -12.59375 L 11.671875 -11.515625 C 11.410156 -11.785156 11.066406 -12.066406 10.640625 -12.359375 C 10.210938 -12.648438 9.757812 -12.9375 9.28125 -13.21875 C 8.800781 -13.5 8.328125 -13.742188 7.859375 -13.953125 L 8.71875 -14.90625 C 9.175781 -14.707031 9.644531 -14.472656 10.125 -14.203125 C 10.601562 -13.941406 11.054688 -13.671875 11.484375 -13.390625 C 11.921875 -13.109375 12.28125 -12.84375 12.5625 -12.59375 Z M 4.09375 -12.296875 L 5.484375 -11.78125 C 5.203125 -10.96875 4.820312 -10.164062 4.34375 -9.375 C 3.863281 -8.59375 3.21875 -7.957031 2.40625 -7.46875 L 1.140625 -8.359375 C 1.878906 -8.785156 2.5 -9.351562 3 -10.0625 C 3.5 -10.78125 3.863281 -11.523438 4.09375 -12.296875 Z M 14.171875 -6.265625 L 9.671875 -6.265625 C 8.554688 -6.265625 7.804688 -6.394531 7.421875 -6.65625 C 6.523438 -6.257812 5.613281 -5.894531 4.6875 -5.5625 C 3.757812 -5.238281 2.820312 -4.941406 1.875 -4.671875 C 1.800781 -4.859375 1.660156 -5.09375 1.453125 -5.375 C 1.253906 -5.65625 1.070312 -5.875 0.90625 -6.03125 C 1.9375 -6.289062 2.945312 -6.578125 3.9375 -6.890625 C 4.9375 -7.210938 5.894531 -7.582031 6.8125 -8 C 6.8125 -8.039062 6.8125 -8.085938 6.8125 -8.140625 C 6.8125 -8.191406 6.8125 -8.25 6.8125 -8.3125 L 6.8125 -12.65625 L 8.328125 -12.65625 L 8.328125 -8.6875 C 9.722656 -9.382812 10.992188 -10.175781 12.140625 -11.0625 C 13.296875 -11.945312 14.273438 -12.929688 15.078125 -14.015625 L 16.515625 -13.390625 C 15.617188 -12.203125 14.554688 -11.128906 13.328125 -10.171875 C 12.109375 -9.210938 10.785156 -8.351562 9.359375 -7.59375 L 14.015625 -7.59375 C 14.359375 -7.59375 14.613281 -7.644531 14.78125 -7.75 C 14.957031 -7.851562 15.078125 -8.066406 15.140625 -8.390625 C 15.203125 -8.722656 15.25 -9.207031 15.28125 -9.84375 C 15.457031 -9.726562 15.679688 -9.617188 15.953125 -9.515625 C 16.222656 -9.421875 16.460938 -9.351562 16.671875 -9.3125 C 16.609375 -8.5 16.492188 -7.875 16.328125 -7.4375 C 16.171875 -7 15.921875 -6.691406 15.578125 -6.515625 C 15.242188 -6.347656 14.773438 -6.265625 14.171875 -6.265625 Z M 17.21875 -0.78125 L 17.21875 -4.65625 L 18.875 -4.65625 L 18.875 1.65625 L 17.21875 1.65625 L 17.21875 0.734375 L 5.265625 0.734375 L 5.265625 1.6875 L 3.65625 1.6875 L 3.65625 -4.65625 L 5.265625 -4.65625 L 5.265625 -0.78125 L 10.265625 -0.78125 L 10.265625 -5.921875 L 11.921875 -5.921875 L 11.921875 -0.78125 Z M 16.171875 -11.390625 L 17.359375 -12.1875 C 17.878906 -11.789062 18.394531 -11.34375 18.90625 -10.84375 C 19.414062 -10.34375 19.882812 -9.84375 20.3125 -9.34375 C 20.75 -8.84375 21.09375 -8.390625 21.34375 -7.984375 L 20.078125 -7.0625 C 19.835938 -7.476562 19.503906 -7.941406 19.078125 -8.453125 C 18.660156 -8.960938 18.195312 -9.472656 17.6875 -9.984375 C 17.1875 -10.503906 16.679688 -10.972656 16.171875 -11.390625 Z M 16.171875 -11.390625 "/></g></g></g></g></g></g></g></svg>