<svg xmlns="http://www.w3.org/2000/svg" xmlns:xlink="http://www.w3.org/1999/xlink" width="500" zoomAndPan="magnify" viewBox="0 0 375 74.999997" height="100" preserveAspectRatio="xMidYMid meet" version="1.0"><defs><g/><clipPath id="5e8802c465"><path d="M 0 1.609375 L 375 1.609375 L 375 73.390625 L 0 73.390625 Z M 0 1.609375 " clip-rule="nonzero"/></clipPath><clipPath id="45a7a9ec5a"><path d="M 342.96875 1.609375 C 360.660156 1.609375 375 17.679688 375 37.5 C 375 57.320312 360.660156 73.390625 342.96875 73.390625 L 32.03125 73.390625 C 14.339844 73.390625 0 57.320312 0 37.5 C 0 17.679688 14.339844 1.609375 32.03125 1.609375 Z M 342.96875 1.609375 " clip-rule="nonzero"/></clipPath><clipPath id="cebaf455ee"><path d="M 0 0.609375 L 375 0.609375 L 375 72.390625 L 0 72.390625 Z M 0 0.609375 " clip-rule="nonzero"/></clipPath><clipPath id="96425e5706"><path d="M 342.96875 0.609375 C 360.660156 0.609375 375 16.679688 375 36.5 C 375 56.320312 360.660156 72.390625 342.96875 72.390625 L 32.03125 72.390625 C 14.339844 72.390625 0 56.320312 0 36.5 C 0 16.679688 14.339844 0.609375 32.03125 0.609375 Z M 342.96875 0.609375 " clip-rule="nonzero"/></clipPath><clipPath id="a330d36e84"><rect x="0" width="375" y="0" height="73"/></clipPath><clipPath id="2cf4ba7596"><path d="M 0.00390625 1.609375 L 375 1.609375 L 375 73.609375 L 0.00390625 73.609375 Z M 0.00390625 1.609375 " clip-rule="nonzero"/></clipPath><clipPath id="e0e778c45f"><path d="M 342.964844 1.609375 C 360.65625 1.609375 374.996094 17.679688 374.996094 37.5 C 374.996094 57.320312 360.65625 73.386719 342.964844 73.386719 L 32.035156 73.386719 C 14.34375 73.386719 0.00390625 57.320312 0.00390625 37.5 C 0.00390625 17.679688 14.34375 1.609375 32.035156 1.609375 Z M 342.964844 1.609375 " clip-rule="nonzero"/></clipPath><clipPath id="1e34b8876e"><path d="M 14.136719 15.808594 L 57.636719 15.808594 L 57.636719 59.308594 L 14.136719 59.308594 Z M 14.136719 15.808594 " clip-rule="nonzero"/></clipPath></defs><g clip-path="url(#5e8802c465)"><g clip-path="url(#45a7a9ec5a)"><g transform="matrix(1, 0, 0, 1, 0, 1)"><g clip-path="url(#a330d36e84)"><g clip-path="url(#cebaf455ee)"><g clip-path="url(#96425e5706)"><path fill="#eaeaea" d="M 0 0.609375 L 374.875 0.609375 L 374.875 72.390625 L 0 72.390625 Z M 0 0.609375 " fill-opacity="1" fill-rule="nonzero"/></g></g></g></g></g></g><g clip-path="url(#2cf4ba7596)"><g clip-path="url(#e0e778c45f)"><path stroke-linecap="butt" transform="matrix(0.75, 0, 0, 0.75, 0.00000750045, 1.610602)" fill="none" stroke-linejoin="miter" d="M 457.286515 -0.00163617 C 480.87506 -0.00163617 499.994854 21.42545 499.994854 47.852537 C 499.994854 74.279625 480.87506 95.701503 457.286515 95.701503 L 42.713538 95.701503 C 19.124993 95.701503 0.00519833 74.279625 0.00519833 47.852537 C 0.00519833 21.42545 19.124993 -0.00163617 42.713538 -0.00163617 Z M 457.286515 -0.00163617 " stroke="#a6a6a6" stroke-width="2" stroke-opacity="1" stroke-miterlimit="4"/></g></g><path fill="#53dae8" d="M 35.828125 24.730469 C 31.734375 24.730469 28.394531 28.054688 28.394531 32.148438 C 28.394531 36.253906 31.734375 39.582031 35.828125 39.582031 C 39.917969 39.582031 43.261719 36.253906 43.261719 32.148438 C 43.261719 28.054688 39.917969 24.730469 35.828125 24.730469 Z M 35.828125 24.730469 " fill-opacity="1" fill-rule="nonzero"/><g clip-path="url(#1e34b8876e)"><path fill="#53dae8" d="M 35.8125 15.820312 C 23.867188 15.820312 14.136719 25.539062 14.136719 37.5 C 14.136719 44.152344 17.15625 50.109375 21.886719 54.085938 C 21.886719 54.085938 21.886719 54.085938 21.886719 54.101562 C 25.660156 57.265625 30.519531 59.175781 35.8125 59.175781 C 43.359375 59.175781 50.246094 55.359375 54.234375 48.953125 C 56.390625 45.511719 57.519531 41.5625 57.519531 37.5 C 57.519531 33.433594 56.390625 29.472656 54.234375 26.046875 C 50.246094 19.640625 43.359375 15.820312 35.8125 15.820312 Z M 51.792969 47.417969 C 51.097656 48.53125 50.289062 49.515625 49.40625 50.441406 C 47.207031 45.929688 42.535156 42.921875 37.375 42.921875 L 34.28125 42.921875 C 30.695312 42.921875 27.324219 44.324219 24.792969 46.855469 C 23.738281 47.894531 22.898438 49.125 22.25 50.457031 C 19.023438 47.085938 17.027344 42.53125 17.027344 37.5 C 17.027344 27.144531 25.457031 18.714844 35.8125 18.714844 C 42.363281 18.714844 48.320312 22.027344 51.792969 27.578125 C 53.644531 30.558594 54.625 33.984375 54.625 37.5 C 54.625 41.011719 53.644531 44.441406 51.792969 47.417969 Z M 51.792969 47.417969 " fill-opacity="1" fill-rule="nonzero"/></g><g fill="#000000" fill-opacity="1"><g transform="translate(173.299667, 42.53615)"><g><path d="M 1.765625 0 L 1.765625 -12.96875 L 3.40625 -12.96875 L 3.40625 -7.53125 L 9.46875 -7.53125 L 9.46875 -12.96875 L 11.09375 -12.96875 L 11.09375 0 L 9.46875 0 L 9.46875 -6.125 L 3.40625 -6.125 L 3.40625 0 Z M 1.765625 0 "/></g></g></g><g fill="#000000" fill-opacity="1"><g transform="translate(186.173342, 42.53615)"><g><path d="M 1.625 0 L 1.625 -9.609375 L 3.234375 -9.609375 L 3.234375 0 Z M 2.4375 -11.578125 C 2.125 -11.578125 1.859375 -11.675781 1.640625 -11.875 C 1.429688 -12.082031 1.328125 -12.332031 1.328125 -12.625 C 1.328125 -12.957031 1.429688 -13.210938 1.640625 -13.390625 C 1.859375 -13.578125 2.125 -13.671875 2.4375 -13.671875 C 2.757812 -13.671875 3.023438 -13.578125 3.234375 -13.390625 C 3.453125 -13.210938 3.5625 -12.957031 3.5625 -12.625 C 3.5625 -12.332031 3.453125 -12.082031 3.234375 -11.875 C 3.023438 -11.675781 2.757812 -11.578125 2.4375 -11.578125 Z M 2.4375 -11.578125 "/></g></g></g><g fill="#000000" fill-opacity="1"><g transform="translate(191.036337, 42.53615)"><g><path d="M 1.625 0 L 1.625 -9.609375 L 2.953125 -9.609375 L 3.09375 -7.859375 L 3.140625 -7.859375 C 3.484375 -8.460938 3.890625 -8.945312 4.359375 -9.3125 C 4.828125 -9.675781 5.332031 -9.859375 5.875 -9.859375 C 6.28125 -9.859375 6.617188 -9.785156 6.890625 -9.640625 L 6.59375 -8.21875 C 6.320312 -8.332031 6.007812 -8.390625 5.65625 -8.390625 C 5.257812 -8.390625 4.835938 -8.222656 4.390625 -7.890625 C 3.941406 -7.566406 3.554688 -6.992188 3.234375 -6.171875 L 3.234375 0 Z M 1.625 0 "/></g></g></g><g fill="#000000" fill-opacity="1"><g transform="translate(197.702966, 42.53615)"><g><path d="M 5.359375 0.234375 C 4.578125 0.234375 3.847656 0.0351562 3.171875 -0.359375 C 2.492188 -0.753906 1.945312 -1.328125 1.53125 -2.078125 C 1.113281 -2.828125 0.90625 -3.734375 0.90625 -4.796875 C 0.90625 -5.867188 1.113281 -6.78125 1.53125 -7.53125 C 1.945312 -8.28125 2.492188 -8.851562 3.171875 -9.25 C 3.847656 -9.65625 4.578125 -9.859375 5.359375 -9.859375 C 6.148438 -9.859375 6.878906 -9.65625 7.546875 -9.25 C 8.222656 -8.851562 8.769531 -8.28125 9.1875 -7.53125 C 9.601562 -6.78125 9.8125 -5.867188 9.8125 -4.796875 C 9.8125 -3.734375 9.601562 -2.828125 9.1875 -2.078125 C 8.769531 -1.328125 8.222656 -0.753906 7.546875 -0.359375 C 6.878906 0.0351562 6.148438 0.234375 5.359375 0.234375 Z M 5.359375 -1.109375 C 6.191406 -1.109375 6.863281 -1.441406 7.375 -2.109375 C 7.894531 -2.785156 8.15625 -3.679688 8.15625 -4.796875 C 8.15625 -5.535156 8.035156 -6.179688 7.796875 -6.734375 C 7.566406 -7.285156 7.238281 -7.71875 6.8125 -8.03125 C 6.394531 -8.34375 5.910156 -8.5 5.359375 -8.5 C 4.804688 -8.5 4.316406 -8.34375 3.890625 -8.03125 C 3.472656 -7.71875 3.148438 -7.285156 2.921875 -6.734375 C 2.691406 -6.179688 2.578125 -5.535156 2.578125 -4.796875 C 2.578125 -3.679688 2.832031 -2.785156 3.34375 -2.109375 C 3.863281 -1.441406 4.535156 -1.109375 5.359375 -1.109375 Z M 5.359375 -1.109375 "/></g></g></g><g fill="#000000" fill-opacity="1"><g transform="translate(208.136166, 42.53615)"><g><path d="M 3.84375 0.234375 C 3.039062 0.234375 2.367188 -0.00390625 1.828125 -0.484375 C 1.296875 -0.960938 1.03125 -1.632812 1.03125 -2.5 C 1.03125 -3.539062 1.503906 -4.34375 2.453125 -4.90625 C 3.398438 -5.46875 4.894531 -5.859375 6.9375 -6.078125 C 6.9375 -6.492188 6.878906 -6.882812 6.765625 -7.25 C 6.648438 -7.625 6.453125 -7.925781 6.171875 -8.15625 C 5.890625 -8.382812 5.484375 -8.5 4.953125 -8.5 C 4.398438 -8.5 3.875 -8.394531 3.375 -8.1875 C 2.882812 -7.976562 2.445312 -7.742188 2.0625 -7.484375 L 1.4375 -8.59375 C 1.882812 -8.875 2.429688 -9.15625 3.078125 -9.4375 C 3.734375 -9.71875 4.445312 -9.859375 5.21875 -9.859375 C 6.382812 -9.859375 7.226562 -9.492188 7.75 -8.765625 C 8.28125 -8.046875 8.546875 -7.09375 8.546875 -5.90625 L 8.546875 0 L 7.21875 0 L 7.078125 -1.15625 L 7.015625 -1.15625 C 6.554688 -0.769531 6.054688 -0.441406 5.515625 -0.171875 C 4.984375 0.0976562 4.425781 0.234375 3.84375 0.234375 Z M 4.296875 -1.0625 C 4.765625 -1.0625 5.203125 -1.171875 5.609375 -1.390625 C 6.015625 -1.609375 6.457031 -1.921875 6.9375 -2.328125 L 6.9375 -5.015625 C 5.863281 -4.890625 5.003906 -4.71875 4.359375 -4.5 C 3.722656 -4.28125 3.269531 -4.007812 3 -3.6875 C 2.726562 -3.375 2.59375 -3.007812 2.59375 -2.59375 C 2.59375 -2.050781 2.757812 -1.660156 3.09375 -1.421875 C 3.425781 -1.179688 3.828125 -1.0625 4.296875 -1.0625 Z M 4.296875 -1.0625 "/></g></g></g><g fill="#000000" fill-opacity="1"><g transform="translate(218.109725, 42.53615)"><g><path d="M 4.140625 0.234375 C 3.453125 0.234375 2.796875 0.109375 2.171875 -0.140625 C 1.546875 -0.398438 1.003906 -0.71875 0.546875 -1.09375 L 1.34375 -2.15625 C 1.757812 -1.820312 2.191406 -1.550781 2.640625 -1.34375 C 3.097656 -1.132812 3.613281 -1.03125 4.1875 -1.03125 C 4.820312 -1.03125 5.296875 -1.175781 5.609375 -1.46875 C 5.921875 -1.757812 6.078125 -2.113281 6.078125 -2.53125 C 6.078125 -2.863281 5.96875 -3.132812 5.75 -3.34375 C 5.539062 -3.5625 5.265625 -3.75 4.921875 -3.90625 C 4.585938 -4.070312 4.242188 -4.21875 3.890625 -4.34375 C 3.441406 -4.507812 2.992188 -4.703125 2.546875 -4.921875 C 2.109375 -5.148438 1.742188 -5.4375 1.453125 -5.78125 C 1.171875 -6.132812 1.03125 -6.582031 1.03125 -7.125 C 1.03125 -7.894531 1.320312 -8.539062 1.90625 -9.0625 C 2.488281 -9.59375 3.296875 -9.859375 4.328125 -9.859375 C 4.921875 -9.859375 5.472656 -9.75 5.984375 -9.53125 C 6.492188 -9.320312 6.941406 -9.066406 7.328125 -8.765625 L 6.546875 -7.734375 C 6.210938 -7.972656 5.867188 -8.171875 5.515625 -8.328125 C 5.160156 -8.492188 4.765625 -8.578125 4.328125 -8.578125 C 3.734375 -8.578125 3.289062 -8.441406 3 -8.171875 C 2.71875 -7.898438 2.578125 -7.578125 2.578125 -7.203125 C 2.578125 -6.890625 2.679688 -6.632812 2.890625 -6.4375 C 3.097656 -6.25 3.363281 -6.085938 3.6875 -5.953125 C 4.007812 -5.816406 4.347656 -5.675781 4.703125 -5.53125 C 5.171875 -5.351562 5.628906 -5.15625 6.078125 -4.9375 C 6.523438 -4.71875 6.894531 -4.425781 7.1875 -4.0625 C 7.488281 -3.707031 7.640625 -3.226562 7.640625 -2.625 C 7.640625 -2.101562 7.503906 -1.625 7.234375 -1.1875 C 6.960938 -0.757812 6.566406 -0.414062 6.046875 -0.15625 C 5.523438 0.101562 4.890625 0.234375 4.140625 0.234375 Z M 4.140625 0.234375 "/></g></g></g><g fill="#000000" fill-opacity="1"><g transform="translate(226.385657, 42.53615)"><g><path d="M 3.84375 0.234375 C 3.039062 0.234375 2.367188 -0.00390625 1.828125 -0.484375 C 1.296875 -0.960938 1.03125 -1.632812 1.03125 -2.5 C 1.03125 -3.539062 1.503906 -4.34375 2.453125 -4.90625 C 3.398438 -5.46875 4.894531 -5.859375 6.9375 -6.078125 C 6.9375 -6.492188 6.878906 -6.882812 6.765625 -7.25 C 6.648438 -7.625 6.453125 -7.925781 6.171875 -8.15625 C 5.890625 -8.382812 5.484375 -8.5 4.953125 -8.5 C 4.398438 -8.5 3.875 -8.394531 3.375 -8.1875 C 2.882812 -7.976562 2.445312 -7.742188 2.0625 -7.484375 L 1.4375 -8.59375 C 1.882812 -8.875 2.429688 -9.15625 3.078125 -9.4375 C 3.734375 -9.71875 4.445312 -9.859375 5.21875 -9.859375 C 6.382812 -9.859375 7.226562 -9.492188 7.75 -8.765625 C 8.28125 -8.046875 8.546875 -7.09375 8.546875 -5.90625 L 8.546875 0 L 7.21875 0 L 7.078125 -1.15625 L 7.015625 -1.15625 C 6.554688 -0.769531 6.054688 -0.441406 5.515625 -0.171875 C 4.984375 0.0976562 4.425781 0.234375 3.84375 0.234375 Z M 4.296875 -1.0625 C 4.765625 -1.0625 5.203125 -1.171875 5.609375 -1.390625 C 6.015625 -1.609375 6.457031 -1.921875 6.9375 -2.328125 L 6.9375 -5.015625 C 5.863281 -4.890625 5.003906 -4.71875 4.359375 -4.5 C 3.722656 -4.28125 3.269531 -4.007812 3 -3.6875 C 2.726562 -3.375 2.59375 -3.007812 2.59375 -2.59375 C 2.59375 -2.050781 2.757812 -1.660156 3.09375 -1.421875 C 3.425781 -1.179688 3.828125 -1.0625 4.296875 -1.0625 Z M 4.296875 -1.0625 "/></g></g></g></svg>