<svg xmlns="http://www.w3.org/2000/svg" xmlns:xlink="http://www.w3.org/1999/xlink" width="500" zoomAndPan="magnify" viewBox="0 0 375 74.999997" height="100" preserveAspectRatio="xMidYMid meet" version="1.0"><defs><g/><clipPath id="c0f46dbca4"><path d="M 0 1.609375 L 375 1.609375 L 375 73.390625 L 0 73.390625 Z M 0 1.609375 " clip-rule="nonzero"/></clipPath><clipPath id="a8a4ca62bc"><path d="M 342.96875 1.609375 C 360.660156 1.609375 375 17.679688 375 37.5 C 375 57.320312 360.660156 73.390625 342.96875 73.390625 L 32.03125 73.390625 C 14.339844 73.390625 0 57.320312 0 37.5 C 0 17.679688 14.339844 1.609375 32.03125 1.609375 Z M 342.96875 1.609375 " clip-rule="nonzero"/></clipPath><clipPath id="cc7333ef86"><path d="M 0 0.609375 L 375 0.609375 L 375 72.390625 L 0 72.390625 Z M 0 0.609375 " clip-rule="nonzero"/></clipPath><clipPath id="d51ea9f93c"><path d="M 342.96875 0.609375 C 360.660156 0.609375 375 16.679688 375 36.5 C 375 56.320312 360.660156 72.390625 342.96875 72.390625 L 32.03125 72.390625 C 14.339844 72.390625 0 56.320312 0 36.5 C 0 16.679688 14.339844 0.609375 32.03125 0.609375 Z M 342.96875 0.609375 " clip-rule="nonzero"/></clipPath><clipPath id="e9d74eb4c2"><rect x="0" width="375" y="0" height="73"/></clipPath><clipPath id="e88db96270"><path d="M 0.00390625 1.609375 L 375 1.609375 L 375 73.609375 L 0.00390625 73.609375 Z M 0.00390625 1.609375 " clip-rule="nonzero"/></clipPath><clipPath id="ec4635e6e0"><path d="M 342.964844 1.609375 C 360.65625 1.609375 374.996094 17.679688 374.996094 37.5 C 374.996094 57.320312 360.65625 73.386719 342.964844 73.386719 L 32.035156 73.386719 C 14.34375 73.386719 0.00390625 57.320312 0.00390625 37.5 C 0.00390625 17.679688 14.34375 1.609375 32.035156 1.609375 Z M 342.964844 1.609375 " clip-rule="nonzero"/></clipPath><clipPath id="17f066d2a7"><path d="M 14.136719 15.808594 L 57.636719 15.808594 L 57.636719 59.308594 L 14.136719 59.308594 Z M 14.136719 15.808594 " clip-rule="nonzero"/></clipPath></defs><g clip-path="url(#c0f46dbca4)"><g clip-path="url(#a8a4ca62bc)"><g transform="matrix(1, 0, 0, 1, 0, 1)"><g clip-path="url(#e9d74eb4c2)"><g clip-path="url(#cc7333ef86)"><g clip-path="url(#d51ea9f93c)"><path fill="#eaeaea" d="M 0 0.609375 L 374.875 0.609375 L 374.875 72.390625 L 0 72.390625 Z M 0 0.609375 " fill-opacity="1" fill-rule="nonzero"/></g></g></g></g></g></g><g clip-path="url(#e88db96270)"><g clip-path="url(#ec4635e6e0)"><path stroke-linecap="butt" transform="matrix(0.75, 0, 0, 0.75, 0.00000750045, 1.610602)" fill="none" stroke-linejoin="miter" d="M 457.286515 -0.00163617 C 480.87506 -0.00163617 499.994854 21.42545 499.994854 47.852537 C 499.994854 74.279625 480.87506 95.701503 457.286515 95.701503 L 42.713538 95.701503 C 19.124993 95.701503 0.00519833 74.279625 0.00519833 47.852537 C 0.00519833 21.42545 19.124993 -0.00163617 42.713538 -0.00163617 Z M 457.286515 -0.00163617 " stroke="#a6a6a6" stroke-width="2" stroke-opacity="1" stroke-miterlimit="4"/></g></g><path fill="#ffd80b" d="M 35.828125 24.730469 C 31.734375 24.730469 28.394531 28.054688 28.394531 32.148438 C 28.394531 36.253906 31.734375 39.582031 35.828125 39.582031 C 39.917969 39.582031 43.261719 36.253906 43.261719 32.148438 C 43.261719 28.054688 39.917969 24.730469 35.828125 24.730469 Z M 35.828125 24.730469 " fill-opacity="1" fill-rule="nonzero"/><g clip-path="url(#17f066d2a7)"><path fill="#ffd80b" d="M 35.8125 15.820312 C 23.867188 15.820312 14.136719 25.539062 14.136719 37.5 C 14.136719 44.152344 17.15625 50.109375 21.886719 54.085938 C 21.886719 54.085938 21.886719 54.085938 21.886719 54.101562 C 25.660156 57.265625 30.519531 59.175781 35.8125 59.175781 C 43.359375 59.175781 50.246094 55.359375 54.234375 48.953125 C 56.390625 45.511719 57.519531 41.5625 57.519531 37.5 C 57.519531 33.433594 56.390625 29.472656 54.234375 26.046875 C 50.246094 19.640625 43.359375 15.820312 35.8125 15.820312 Z M 51.792969 47.417969 C 51.097656 48.53125 50.289062 49.515625 49.40625 50.441406 C 47.207031 45.929688 42.535156 42.921875 37.375 42.921875 L 34.28125 42.921875 C 30.695312 42.921875 27.324219 44.324219 24.792969 46.855469 C 23.738281 47.894531 22.898438 49.125 22.25 50.457031 C 19.023438 47.085938 17.027344 42.53125 17.027344 37.5 C 17.027344 27.144531 25.457031 18.714844 35.8125 18.714844 C 42.363281 18.714844 48.320312 22.027344 51.792969 27.578125 C 53.644531 30.558594 54.625 33.984375 54.625 37.5 C 54.625 41.011719 53.644531 44.441406 51.792969 47.417969 Z M 51.792969 47.417969 " fill-opacity="1" fill-rule="nonzero"/></g><g fill="#000000" fill-opacity="1"><g transform="translate(179.065291, 42.53615)"><g><path d="M 3.375 -5.265625 L 7.3125 -5.265625 L 6.6875 -7.25 C 6.445312 -7.976562 6.222656 -8.703125 6.015625 -9.421875 C 5.804688 -10.140625 5.59375 -10.878906 5.375 -11.640625 L 5.3125 -11.640625 C 5.101562 -10.878906 4.894531 -10.140625 4.6875 -9.421875 C 4.476562 -8.703125 4.253906 -7.976562 4.015625 -7.25 Z M 8.953125 0 L 7.71875 -3.96875 L 2.96875 -3.96875 L 1.71875 0 L 0.046875 0 L 4.453125 -12.96875 L 6.28125 -12.96875 L 10.6875 0 Z M 8.953125 0 "/></g></g></g><g fill="#000000" fill-opacity="1"><g transform="translate(189.799253, 42.53615)"><g><path d="M 1.625 0 L 1.625 -14.078125 L 3.21875 -14.078125 L 3.21875 -4.53125 L 3.25 -4.53125 L 7.375 -9.609375 L 9.15625 -9.609375 L 5.9375 -5.75 L 9.59375 0 L 7.828125 0 L 5.015625 -4.640625 L 3.21875 -2.53125 L 3.21875 0 Z M 1.625 0 "/></g></g></g><g fill="#000000" fill-opacity="1"><g transform="translate(199.560616, 42.53615)"><g><path d="M 1.625 0 L 1.625 -14.078125 L 3.21875 -14.078125 L 3.21875 -4.53125 L 3.25 -4.53125 L 7.375 -9.609375 L 9.15625 -9.609375 L 5.9375 -5.75 L 9.59375 0 L 7.828125 0 L 5.015625 -4.640625 L 3.21875 -2.53125 L 3.21875 0 Z M 1.625 0 "/></g></g></g><g fill="#000000" fill-opacity="1"><g transform="translate(209.056591, 42.53615)"><g><path d="M 4.421875 0.234375 C 3.421875 0.234375 2.679688 -0.0859375 2.203125 -0.734375 C 1.734375 -1.378906 1.5 -2.304688 1.5 -3.515625 L 1.5 -9.609375 L 3.109375 -9.609375 L 3.109375 -3.71875 C 3.109375 -2.820312 3.25 -2.171875 3.53125 -1.765625 C 3.820312 -1.367188 4.285156 -1.171875 4.921875 -1.171875 C 5.410156 -1.171875 5.847656 -1.296875 6.234375 -1.546875 C 6.628906 -1.796875 7.054688 -2.210938 7.515625 -2.796875 L 7.515625 -9.609375 L 9.125 -9.609375 L 9.125 0 L 7.78125 0 L 7.65625 -1.5 L 7.609375 -1.5 C 7.160156 -0.976562 6.679688 -0.554688 6.171875 -0.234375 C 5.660156 0.078125 5.078125 0.234375 4.421875 0.234375 Z M 4.421875 0.234375 "/></g></g></g><g fill="#000000" fill-opacity="1"><g transform="translate(219.790553, 42.53615)"><g><path d="M 1.625 0 L 1.625 -9.609375 L 2.953125 -9.609375 L 3.09375 -8.21875 L 3.140625 -8.21875 C 3.609375 -8.664062 4.097656 -9.050781 4.609375 -9.375 C 5.128906 -9.695312 5.71875 -9.859375 6.375 -9.859375 C 7.382812 -9.859375 8.125 -9.535156 8.59375 -8.890625 C 9.0625 -8.242188 9.296875 -7.304688 9.296875 -6.078125 L 9.296875 0 L 7.6875 0 L 7.6875 -5.875 C 7.6875 -6.78125 7.539062 -7.429688 7.25 -7.828125 C 6.96875 -8.234375 6.507812 -8.4375 5.875 -8.4375 C 5.375 -8.4375 4.929688 -8.3125 4.546875 -8.0625 C 4.160156 -7.8125 3.722656 -7.445312 3.234375 -6.96875 L 3.234375 0 Z M 1.625 0 "/></g></g></g></svg>