<svg xmlns="http://www.w3.org/2000/svg" xmlns:xlink="http://www.w3.org/1999/xlink" width="500" zoomAndPan="magnify" viewBox="0 0 375 74.999997" height="100" preserveAspectRatio="xMidYMid meet" version="1.0"><defs><g/><clipPath id="a93f7749ba"><path d="M 0 1.609375 L 375 1.609375 L 375 75 L 0 75 Z M 0 1.609375 " clip-rule="nonzero"/></clipPath><clipPath id="6ecd5a947e"><path d="M 342.96875 1.609375 C 360.660156 1.609375 375 18.039062 375 38.304688 C 375 58.570312 360.660156 75 342.96875 75 L 32.03125 75 C 14.339844 75 0 58.570312 0 38.304688 C 0 18.039062 14.339844 1.609375 32.03125 1.609375 Z M 342.96875 1.609375 " clip-rule="nonzero"/></clipPath><clipPath id="e8e3eabebe"><path d="M 0 0.609375 L 375 0.609375 L 375 74 L 0 74 Z M 0 0.609375 " clip-rule="nonzero"/></clipPath><clipPath id="cc1e07e951"><path d="M 342.96875 0.609375 C 360.660156 0.609375 375 17.039062 375 37.304688 C 375 57.570312 360.660156 74 342.96875 74 L 32.03125 74 C 14.339844 74 0 57.570312 0 37.304688 C 0 17.039062 14.339844 0.609375 32.03125 0.609375 Z M 342.96875 0.609375 " clip-rule="nonzero"/></clipPath><clipPath id="def91d8b2e"><rect x="0" width="375" y="0" height="74"/></clipPath><clipPath id="794b81410c"><path d="M 0.015625 1.609375 L 375 1.609375 L 375 75 L 0.015625 75 Z M 0.015625 1.609375 " clip-rule="nonzero"/></clipPath><clipPath id="667072afec"><path d="M 342.957031 1.609375 C 360.644531 1.609375 374.984375 18.039062 374.984375 38.300781 C 374.984375 58.566406 360.644531 74.992188 342.957031 74.992188 L 32.042969 74.992188 C 14.355469 74.992188 0.015625 58.566406 0.015625 38.300781 C 0.015625 18.039062 14.355469 1.609375 32.042969 1.609375 Z M 342.957031 1.609375 " clip-rule="nonzero"/></clipPath><clipPath id="67052b4742"><path d="M 14.136719 15.808594 L 57.636719 15.808594 L 57.636719 59.308594 L 14.136719 59.308594 Z M 14.136719 15.808594 " clip-rule="nonzero"/></clipPath></defs><g clip-path="url(#a93f7749ba)"><g clip-path="url(#6ecd5a947e)"><g transform="matrix(1, 0, 0, 1, 0, 1)"><g clip-path="url(#def91d8b2e)"><g clip-path="url(#e8e3eabebe)"><g clip-path="url(#cc1e07e951)"><path fill="#eaeaea" d="M 0 0.609375 L 374.972656 0.609375 L 374.972656 74 L 0 74 Z M 0 0.609375 " fill-opacity="1" fill-rule="nonzero"/></g></g></g></g></g></g><g clip-path="url(#794b81410c)"><g clip-path="url(#667072afec)"><path stroke-linecap="butt" transform="matrix(0.75, 0, 0, 0.75, 0.00000750179, 1.610602)" fill="none" stroke-linejoin="miter" d="M 457.276069 -0.00163617 C 480.859404 -0.00163617 499.979197 21.904616 499.979197 48.920243 C 499.979197 75.941078 480.859404 97.842122 457.276069 97.842122 L 42.723952 97.842122 C 19.140617 97.842122 0.0208233 75.941078 0.0208233 48.920243 C 0.0208233 21.904616 19.140617 -0.00163617 42.723952 -0.00163617 Z M 457.276069 -0.00163617 " stroke="#a6a6a6" stroke-width="2" stroke-opacity="1" stroke-miterlimit="4"/></g></g><path fill="#ff3a3a" d="M 35.828125 24.730469 C 31.734375 24.730469 28.394531 28.054688 28.394531 32.148438 C 28.394531 36.253906 31.734375 39.582031 35.828125 39.582031 C 39.917969 39.582031 43.261719 36.253906 43.261719 32.148438 C 43.261719 28.054688 39.917969 24.730469 35.828125 24.730469 Z M 35.828125 24.730469 " fill-opacity="1" fill-rule="nonzero"/><g clip-path="url(#67052b4742)"><path fill="#ff3a3a" d="M 35.8125 15.820312 C 23.867188 15.820312 14.136719 25.539062 14.136719 37.5 C 14.136719 44.152344 17.15625 50.109375 21.886719 54.085938 C 21.886719 54.085938 21.886719 54.085938 21.886719 54.101562 C 25.660156 57.265625 30.519531 59.175781 35.8125 59.175781 C 43.359375 59.175781 50.246094 55.359375 54.234375 48.953125 C 56.390625 45.511719 57.519531 41.5625 57.519531 37.5 C 57.519531 33.433594 56.390625 29.472656 54.234375 26.046875 C 50.246094 19.640625 43.359375 15.820312 35.8125 15.820312 Z M 51.792969 47.417969 C 51.097656 48.53125 50.289062 49.515625 49.40625 50.441406 C 47.207031 45.929688 42.535156 42.921875 37.375 42.921875 L 34.28125 42.921875 C 30.695312 42.921875 27.324219 44.324219 24.792969 46.855469 C 23.738281 47.894531 22.898438 49.125 22.25 50.457031 C 19.023438 47.085938 17.027344 42.53125 17.027344 37.5 C 17.027344 27.144531 25.457031 18.714844 35.8125 18.714844 C 42.363281 18.714844 48.320312 22.027344 51.792969 27.578125 C 53.644531 30.558594 54.625 33.984375 54.625 37.5 C 54.625 41.011719 53.644531 44.441406 51.792969 47.417969 Z M 51.792969 47.417969 " fill-opacity="1" fill-rule="nonzero"/></g><g fill="#000000" fill-opacity="1"><g transform="translate(174.869979, 42.53615)"><g><path d="M 4.46875 0 L 4.46875 -11.578125 L 0.546875 -11.578125 L 0.546875 -12.96875 L 10.046875 -12.96875 L 10.046875 -11.578125 L 6.125 -11.578125 L 6.125 0 Z M 4.46875 0 "/></g></g></g><g fill="#000000" fill-opacity="1"><g transform="translate(184.029372, 42.53615)"><g><path d="M 3.84375 0.234375 C 3.039062 0.234375 2.367188 -0.00390625 1.828125 -0.484375 C 1.296875 -0.960938 1.03125 -1.632812 1.03125 -2.5 C 1.03125 -3.539062 1.503906 -4.34375 2.453125 -4.90625 C 3.398438 -5.46875 4.894531 -5.859375 6.9375 -6.078125 C 6.9375 -6.492188 6.878906 -6.882812 6.765625 -7.25 C 6.648438 -7.625 6.453125 -7.925781 6.171875 -8.15625 C 5.890625 -8.382812 5.484375 -8.5 4.953125 -8.5 C 4.398438 -8.5 3.875 -8.394531 3.375 -8.1875 C 2.882812 -7.976562 2.445312 -7.742188 2.0625 -7.484375 L 1.4375 -8.59375 C 1.882812 -8.875 2.429688 -9.15625 3.078125 -9.4375 C 3.734375 -9.71875 4.445312 -9.859375 5.21875 -9.859375 C 6.382812 -9.859375 7.226562 -9.492188 7.75 -8.765625 C 8.28125 -8.046875 8.546875 -7.09375 8.546875 -5.90625 L 8.546875 0 L 7.21875 0 L 7.078125 -1.15625 L 7.015625 -1.15625 C 6.554688 -0.769531 6.054688 -0.441406 5.515625 -0.171875 C 4.984375 0.0976562 4.425781 0.234375 3.84375 0.234375 Z M 4.296875 -1.0625 C 4.765625 -1.0625 5.203125 -1.171875 5.609375 -1.390625 C 6.015625 -1.609375 6.457031 -1.921875 6.9375 -2.328125 L 6.9375 -5.015625 C 5.863281 -4.890625 5.003906 -4.71875 4.359375 -4.5 C 3.722656 -4.28125 3.269531 -4.007812 3 -3.6875 C 2.726562 -3.375 2.59375 -3.007812 2.59375 -2.59375 C 2.59375 -2.050781 2.757812 -1.660156 3.09375 -1.421875 C 3.425781 -1.179688 3.828125 -1.0625 4.296875 -1.0625 Z M 4.296875 -1.0625 "/></g></g></g><g fill="#000000" fill-opacity="1"><g transform="translate(194.002931, 42.53615)"><g><path d="M 1.625 0 L 1.625 -14.078125 L 3.21875 -14.078125 L 3.21875 -4.53125 L 3.25 -4.53125 L 7.375 -9.609375 L 9.15625 -9.609375 L 5.9375 -5.75 L 9.59375 0 L 7.828125 0 L 5.015625 -4.640625 L 3.21875 -2.53125 L 3.21875 0 Z M 1.625 0 "/></g></g></g><g fill="#000000" fill-opacity="1"><g transform="translate(203.764294, 42.53615)"><g><path d="M 1.625 0 L 1.625 -14.078125 L 3.21875 -14.078125 L 3.21875 -4.53125 L 3.25 -4.53125 L 7.375 -9.609375 L 9.15625 -9.609375 L 5.9375 -5.75 L 9.59375 0 L 7.828125 0 L 5.015625 -4.640625 L 3.21875 -2.53125 L 3.21875 0 Z M 1.625 0 "/></g></g></g><g fill="#000000" fill-opacity="1"><g transform="translate(213.260269, 42.53615)"><g><path d="M 4.421875 0.234375 C 3.421875 0.234375 2.679688 -0.0859375 2.203125 -0.734375 C 1.734375 -1.378906 1.5 -2.304688 1.5 -3.515625 L 1.5 -9.609375 L 3.109375 -9.609375 L 3.109375 -3.71875 C 3.109375 -2.820312 3.25 -2.171875 3.53125 -1.765625 C 3.820312 -1.367188 4.285156 -1.171875 4.921875 -1.171875 C 5.410156 -1.171875 5.847656 -1.296875 6.234375 -1.546875 C 6.628906 -1.796875 7.054688 -2.210938 7.515625 -2.796875 L 7.515625 -9.609375 L 9.125 -9.609375 L 9.125 0 L 7.78125 0 L 7.65625 -1.5 L 7.609375 -1.5 C 7.160156 -0.976562 6.679688 -0.554688 6.171875 -0.234375 C 5.660156 0.078125 5.078125 0.234375 4.421875 0.234375 Z M 4.421875 0.234375 "/></g></g></g><g fill="#000000" fill-opacity="1"><g transform="translate(223.994231, 42.53615)"><g><path d="M 1.625 0 L 1.625 -9.609375 L 2.953125 -9.609375 L 3.09375 -8.21875 L 3.140625 -8.21875 C 3.609375 -8.664062 4.097656 -9.050781 4.609375 -9.375 C 5.128906 -9.695312 5.71875 -9.859375 6.375 -9.859375 C 7.382812 -9.859375 8.125 -9.535156 8.59375 -8.890625 C 9.0625 -8.242188 9.296875 -7.304688 9.296875 -6.078125 L 9.296875 0 L 7.6875 0 L 7.6875 -5.875 C 7.6875 -6.78125 7.539062 -7.429688 7.25 -7.828125 C 6.96875 -8.234375 6.507812 -8.4375 5.875 -8.4375 C 5.375 -8.4375 4.929688 -8.3125 4.546875 -8.0625 C 4.160156 -7.8125 3.722656 -7.445312 3.234375 -6.96875 L 3.234375 0 Z M 1.625 0 "/></g></g></g></svg>