<svg xmlns="http://www.w3.org/2000/svg" xmlns:xlink="http://www.w3.org/1999/xlink" width="500" zoomAndPan="magnify" viewBox="0 0 375 74.999997" height="100" preserveAspectRatio="xMidYMid meet" version="1.0"><defs><g/><clipPath id="0c67dd5f79"><path d="M 0 0 L 375 0 L 375 71.984375 L 0 71.984375 Z M 0 0 " clip-rule="nonzero"/></clipPath><clipPath id="436d6d604b"><path d="M 339.007812 0 C 358.886719 0 375 16.113281 375 35.992188 C 375 55.871094 358.886719 71.984375 339.007812 71.984375 L 35.992188 71.984375 C 16.113281 71.984375 0 55.871094 0 35.992188 C 0 16.113281 16.113281 0 35.992188 0 Z M 339.007812 0 " clip-rule="nonzero"/></clipPath><clipPath id="c08aa0d246"><path d="M 0 0 L 375 0 L 375 71.984375 L 0 71.984375 Z M 0 0 " clip-rule="nonzero"/></clipPath><clipPath id="db4ea635ef"><path d="M 339.007812 0 C 358.886719 0 375 16.113281 375 35.992188 C 375 55.871094 358.886719 71.984375 339.007812 71.984375 L 35.992188 71.984375 C 16.113281 71.984375 0 55.871094 0 35.992188 C 0 16.113281 16.113281 0 35.992188 0 Z M 339.007812 0 " clip-rule="nonzero"/></clipPath><clipPath id="08cbf7803f"><rect x="0" width="375" y="0" height="72"/></clipPath><clipPath id="074491f2e8"><path d="M 0.0234375 0 L 375 0 L 375 71.976562 L 0.0234375 71.976562 Z M 0.0234375 0 " clip-rule="nonzero"/></clipPath><clipPath id="0a0174bfd7"><path d="M 338.988281 0 C 358.863281 0 374.976562 16.113281 374.976562 35.988281 C 374.976562 55.863281 358.863281 71.976562 338.988281 71.976562 L 36.011719 71.976562 C 16.136719 71.976562 0.0234375 55.863281 0.0234375 35.988281 C 0.0234375 16.113281 16.136719 0 36.011719 0 Z M 338.988281 0 " clip-rule="nonzero"/></clipPath><clipPath id="f8791b12ef"><path d="M 18.75 9.84375 L 71.25 9.84375 L 71.25 62.34375 L 18.75 62.34375 Z M 18.75 9.84375 " clip-rule="nonzero"/></clipPath></defs><g clip-path="url(#0c67dd5f79)"><g clip-path="url(#436d6d604b)"><g transform="matrix(1, 0, 0, 1, 0, -0.000000000000001893)"><g clip-path="url(#08cbf7803f)"><g clip-path="url(#c08aa0d246)"><g clip-path="url(#db4ea635ef)"><path fill="#eaeaea" d="M 0 0 L 375.113281 0 L 375.113281 71.984375 L 0 71.984375 Z M 0 0 " fill-opacity="1" fill-rule="nonzero"/></g></g></g></g></g></g><g clip-path="url(#074491f2e8)"><g clip-path="url(#0a0174bfd7)"><path stroke-linecap="butt" transform="matrix(0.75, 0, 0, 0.75, 0.0000075, -0.000001)" fill="none" stroke-linejoin="miter" d="M 451.984402 0.00000133333 C 478.484404 0.00000133333 499.968781 21.484378 499.968781 47.98438 C 499.968781 74.484382 478.484404 95.968759 451.984402 95.968759 L 48.015619 95.968759 C 21.515617 95.968759 0.03124 74.484382 0.03124 47.98438 C 0.03124 21.484378 21.515617 0.00000133333 48.015619 0.00000133333 Z M 451.984402 0.00000133333 " stroke="#a6a6a6" stroke-width="2" stroke-opacity="1" stroke-miterlimit="4"/></g></g><path fill="#25db00" d="M 44.902344 20.597656 C 39.964844 20.597656 35.941406 24.609375 35.941406 29.542969 C 35.941406 34.492188 39.964844 38.503906 44.902344 38.503906 C 49.835938 38.503906 53.859375 34.492188 53.859375 29.542969 C 53.859375 24.609375 49.835938 20.597656 44.902344 20.597656 Z M 44.902344 20.597656 " fill-opacity="1" fill-rule="nonzero"/><g clip-path="url(#f8791b12ef)"><path fill="#25db00" d="M 44.882812 9.859375 C 30.484375 9.859375 18.75 21.574219 18.75 35.992188 C 18.75 44.011719 22.394531 51.195312 28.09375 55.988281 C 28.09375 55.988281 28.09375 55.988281 28.09375 56.007812 C 32.644531 59.824219 38.503906 62.125 44.882812 62.125 C 53.984375 62.125 62.28125 57.523438 67.09375 49.800781 C 69.691406 45.652344 71.050781 40.890625 71.050781 35.992188 C 71.050781 31.09375 69.691406 26.316406 67.09375 22.183594 C 62.28125 14.460938 53.984375 9.859375 44.882812 9.859375 Z M 64.148438 47.953125 C 63.308594 49.292969 62.332031 50.480469 61.269531 51.59375 C 58.621094 46.15625 52.988281 42.53125 46.765625 42.53125 L 43.035156 42.53125 C 38.710938 42.53125 34.648438 44.222656 31.597656 47.273438 C 30.324219 48.527344 29.316406 50.007812 28.53125 51.613281 C 24.640625 47.550781 22.238281 42.058594 22.238281 35.992188 C 22.238281 23.511719 32.402344 13.347656 44.882812 13.347656 C 52.78125 13.347656 59.964844 17.339844 64.148438 24.03125 C 66.378906 27.625 67.5625 31.757812 67.5625 35.992188 C 67.5625 40.230469 66.378906 44.359375 64.148438 47.953125 Z M 64.148438 47.953125 " fill-opacity="1" fill-rule="nonzero"/></g><g fill="#000000" fill-opacity="1"><g transform="translate(167.749645, 44.472066)"><g><path d="M 5.640625 0 L 5.640625 -14.59375 L 0.6875 -14.59375 L 0.6875 -16.328125 L 12.65625 -16.328125 L 12.65625 -14.59375 L 7.703125 -14.59375 L 7.703125 0 Z M 5.640625 0 "/></g></g></g><g fill="#000000" fill-opacity="1"><g transform="translate(179.282439, 44.472066)"><g><path d="M 4.828125 0.296875 C 3.816406 0.296875 2.972656 -0.00390625 2.296875 -0.609375 C 1.628906 -1.210938 1.296875 -2.054688 1.296875 -3.140625 C 1.296875 -4.460938 1.890625 -5.472656 3.078125 -6.171875 C 4.273438 -6.878906 6.160156 -7.378906 8.734375 -7.671875 C 8.734375 -8.179688 8.660156 -8.671875 8.515625 -9.140625 C 8.378906 -9.609375 8.128906 -9.988281 7.765625 -10.28125 C 7.410156 -10.570312 6.898438 -10.71875 6.234375 -10.71875 C 5.535156 -10.71875 4.875 -10.582031 4.25 -10.3125 C 3.625 -10.050781 3.078125 -9.753906 2.609375 -9.421875 L 1.8125 -10.828125 C 2.375 -11.179688 3.066406 -11.53125 3.890625 -11.875 C 4.710938 -12.226562 5.609375 -12.40625 6.578125 -12.40625 C 8.046875 -12.40625 9.109375 -11.953125 9.765625 -11.046875 C 10.429688 -10.140625 10.765625 -8.9375 10.765625 -7.4375 L 10.765625 0 L 9.09375 0 L 8.90625 -1.453125 L 8.84375 -1.453125 C 8.269531 -0.972656 7.644531 -0.5625 6.96875 -0.21875 C 6.289062 0.125 5.578125 0.296875 4.828125 0.296875 Z M 5.421875 -1.34375 C 6.015625 -1.34375 6.566406 -1.476562 7.078125 -1.75 C 7.585938 -2.019531 8.140625 -2.414062 8.734375 -2.9375 L 8.734375 -6.328125 C 7.378906 -6.160156 6.300781 -5.941406 5.5 -5.671875 C 4.695312 -5.398438 4.125 -5.0625 3.78125 -4.65625 C 3.445312 -4.257812 3.28125 -3.800781 3.28125 -3.28125 C 3.28125 -2.59375 3.484375 -2.097656 3.890625 -1.796875 C 4.304688 -1.492188 4.816406 -1.34375 5.421875 -1.34375 Z M 5.421875 -1.34375 "/></g></g></g><g fill="#000000" fill-opacity="1"><g transform="translate(191.840211, 44.472066)"><g><path d="M 2.046875 0 L 2.046875 -17.734375 L 4.0625 -17.734375 L 4.0625 -5.703125 L 4.09375 -5.703125 L 9.296875 -12.09375 L 11.546875 -12.09375 L 7.484375 -7.234375 L 12.078125 0 L 9.875 0 L 6.328125 -5.84375 L 4.0625 -3.1875 L 4.0625 0 Z M 2.046875 0 "/></g></g></g><g fill="#000000" fill-opacity="1"><g transform="translate(203.796677, 44.472066)"><g><path d="M 5.5625 0.296875 C 4.300781 0.296875 3.375 -0.109375 2.78125 -0.921875 C 2.1875 -1.734375 1.890625 -2.90625 1.890625 -4.4375 L 1.890625 -12.09375 L 3.921875 -12.09375 L 3.921875 -4.671875 C 3.921875 -3.546875 4.097656 -2.726562 4.453125 -2.21875 C 4.804688 -1.71875 5.382812 -1.46875 6.1875 -1.46875 C 6.8125 -1.46875 7.367188 -1.625 7.859375 -1.9375 C 8.347656 -2.257812 8.882812 -2.785156 9.46875 -3.515625 L 9.46875 -12.09375 L 11.5 -12.09375 L 11.5 0 L 9.796875 0 L 9.640625 -1.890625 L 9.578125 -1.890625 C 9.015625 -1.234375 8.410156 -0.703125 7.765625 -0.296875 C 7.128906 0.0976562 6.394531 0.296875 5.5625 0.296875 Z M 5.5625 0.296875 "/></g></g></g><g fill="#000000" fill-opacity="1"><g transform="translate(217.311862, 44.472066)"><g><path d="M 5.21875 0.296875 C 4.351562 0.296875 3.523438 0.132812 2.734375 -0.1875 C 1.953125 -0.507812 1.269531 -0.90625 0.6875 -1.375 L 1.6875 -2.71875 C 2.207031 -2.300781 2.753906 -1.957031 3.328125 -1.6875 C 3.898438 -1.425781 4.550781 -1.296875 5.28125 -1.296875 C 6.082031 -1.296875 6.679688 -1.476562 7.078125 -1.84375 C 7.472656 -2.21875 7.671875 -2.664062 7.671875 -3.1875 C 7.671875 -3.601562 7.53125 -3.945312 7.25 -4.21875 C 6.976562 -4.5 6.628906 -4.738281 6.203125 -4.9375 C 5.773438 -5.132812 5.34375 -5.316406 4.90625 -5.484375 C 4.34375 -5.691406 3.78125 -5.9375 3.21875 -6.21875 C 2.664062 -6.5 2.207031 -6.859375 1.84375 -7.296875 C 1.476562 -7.734375 1.296875 -8.296875 1.296875 -8.984375 C 1.296875 -9.941406 1.660156 -10.75 2.390625 -11.40625 C 3.128906 -12.070312 4.148438 -12.40625 5.453125 -12.40625 C 6.203125 -12.40625 6.898438 -12.269531 7.546875 -12 C 8.191406 -11.738281 8.75 -11.421875 9.21875 -11.046875 L 8.25 -9.734375 C 7.832031 -10.046875 7.398438 -10.300781 6.953125 -10.5 C 6.503906 -10.707031 6.003906 -10.8125 5.453125 -10.8125 C 4.703125 -10.8125 4.144531 -10.640625 3.78125 -10.296875 C 3.425781 -9.953125 3.25 -9.539062 3.25 -9.0625 C 3.25 -8.675781 3.378906 -8.359375 3.640625 -8.109375 C 3.898438 -7.867188 4.234375 -7.660156 4.640625 -7.484375 C 5.054688 -7.316406 5.484375 -7.144531 5.921875 -6.96875 C 6.515625 -6.75 7.09375 -6.5 7.65625 -6.21875 C 8.226562 -5.945312 8.695312 -5.582031 9.0625 -5.125 C 9.4375 -4.675781 9.625 -4.066406 9.625 -3.296875 C 9.625 -2.640625 9.453125 -2.039062 9.109375 -1.5 C 8.765625 -0.957031 8.265625 -0.519531 7.609375 -0.1875 C 6.960938 0.132812 6.164062 0.296875 5.21875 0.296875 Z M 5.21875 0.296875 "/></g></g></g><g fill="#000000" fill-opacity="1"><g transform="translate(227.732141, 44.472066)"><g><path d="M 4.828125 0.296875 C 3.816406 0.296875 2.972656 -0.00390625 2.296875 -0.609375 C 1.628906 -1.210938 1.296875 -2.054688 1.296875 -3.140625 C 1.296875 -4.460938 1.890625 -5.472656 3.078125 -6.171875 C 4.273438 -6.878906 6.160156 -7.378906 8.734375 -7.671875 C 8.734375 -8.179688 8.660156 -8.671875 8.515625 -9.140625 C 8.378906 -9.609375 8.128906 -9.988281 7.765625 -10.28125 C 7.410156 -10.570312 6.898438 -10.71875 6.234375 -10.71875 C 5.535156 -10.71875 4.875 -10.582031 4.25 -10.3125 C 3.625 -10.050781 3.078125 -9.753906 2.609375 -9.421875 L 1.8125 -10.828125 C 2.375 -11.179688 3.066406 -11.53125 3.890625 -11.875 C 4.710938 -12.226562 5.609375 -12.40625 6.578125 -12.40625 C 8.046875 -12.40625 9.109375 -11.953125 9.765625 -11.046875 C 10.429688 -10.140625 10.765625 -8.9375 10.765625 -7.4375 L 10.765625 0 L 9.09375 0 L 8.90625 -1.453125 L 8.84375 -1.453125 C 8.269531 -0.972656 7.644531 -0.5625 6.96875 -0.21875 C 6.289062 0.125 5.578125 0.296875 4.828125 0.296875 Z M 5.421875 -1.34375 C 6.015625 -1.34375 6.566406 -1.476562 7.078125 -1.75 C 7.585938 -2.019531 8.140625 -2.414062 8.734375 -2.9375 L 8.734375 -6.328125 C 7.378906 -6.160156 6.300781 -5.941406 5.5 -5.671875 C 4.695312 -5.398438 4.125 -5.0625 3.78125 -4.65625 C 3.445312 -4.257812 3.28125 -3.800781 3.28125 -3.28125 C 3.28125 -2.59375 3.484375 -2.097656 3.890625 -1.796875 C 4.304688 -1.492188 4.816406 -1.34375 5.421875 -1.34375 Z M 5.421875 -1.34375 "/></g></g></g><g fill="#000000" fill-opacity="1"><g transform="translate(240.289914, 44.472066)"><g><path d="M 2.046875 0 L 2.046875 -12.09375 L 3.71875 -12.09375 L 3.90625 -10.359375 L 3.96875 -10.359375 C 4.539062 -10.921875 5.15625 -11.398438 5.8125 -11.796875 C 6.46875 -12.203125 7.203125 -12.40625 8.015625 -12.40625 C 9.296875 -12.40625 10.234375 -12 10.828125 -11.1875 C 11.421875 -10.382812 11.71875 -9.210938 11.71875 -7.671875 L 11.71875 0 L 9.6875 0 L 9.6875 -7.390625 C 9.6875 -8.535156 9.503906 -9.359375 9.140625 -9.859375 C 8.773438 -10.367188 8.191406 -10.625 7.390625 -10.625 C 6.773438 -10.625 6.21875 -10.46875 5.71875 -10.15625 C 5.226562 -9.84375 4.679688 -9.382812 4.078125 -8.78125 L 4.078125 0 Z M 2.046875 0 "/></g></g></g></svg>